<?xml version="1.0" encoding="utf-8"?>
<!-- Generator: Adobe Illustrator 15.1.0, SVG Export Plug-In . SVG Version: 6.00 Build 0)  -->
<!DOCTYPE svg PUBLIC "-//W3C//DTD SVG 1.1//EN" "http://www.w3.org/Graphics/SVG/1.1/DTD/svg11.dtd">
<svg version="1.1" id="Layer_1" xmlns="http://www.w3.org/2000/svg" xmlns:xlink="http://www.w3.org/1999/xlink" x="0px" y="0px"
	 width="15px" height="7px" viewBox="0 0 15 7" enable-background="new 0 0 15 7" xml:space="preserve">
<path fill="#1A1A1A" d="M14.316,0h-12c-0.276,0-0.5,0.224-0.5,0.5v1.81c-0.401-0.094-0.764-0.287-1.1-0.588
	C0.539,1.563,0.268,1.577,0.109,1.755C0.035,1.838,0,1.94,0,2.042c0,0.117,0.047,0.235,0.144,0.321
	C0.637,2.804,1.201,3.07,1.816,3.176v0.928c-0.401-0.094-0.764-0.287-1.1-0.588C0.539,3.358,0.268,3.372,0.109,3.549
	C0.035,3.632,0,3.735,0,3.836c0,0.117,0.047,0.235,0.144,0.321c0.493,0.44,1.058,0.707,1.673,0.813v0.622c0,0.276,0.224,0.5,0.5,0.5
	s0.5-0.224,0.5-0.5V5C3.497,4.907,4.12,4.589,4.671,4.047c0.171-0.166,0.173-0.438,0.007-0.606C4.511,3.271,4.238,3.268,4.069,3.433
	C3.685,3.812,3.269,4.034,2.816,4.121V3.205C3.497,3.112,4.12,2.794,4.671,2.252c0.171-0.166,0.173-0.438,0.007-0.606
	C4.511,1.477,4.238,1.474,4.069,1.639c-0.385,0.378-0.801,0.6-1.253,0.688V1h11.5c0.276,0,0.5-0.224,0.5-0.5S14.593,0,14.316,0z"/>
</svg>
