<?xml version="1.0" encoding="utf-8"?>
<!-- Generator: Adobe Illustrator 15.1.0, SVG Export Plug-In . SVG Version: 6.00 Build 0)  -->
<!DOCTYPE svg PUBLIC "-//W3C//DTD SVG 1.1//EN" "http://www.w3.org/Graphics/SVG/1.1/DTD/svg11.dtd">
<svg version="1.1" id="Layer_1" xmlns="http://www.w3.org/2000/svg" xmlns:xlink="http://www.w3.org/1999/xlink" x="0px" y="0px"
	 width="15px" height="7px" viewBox="0 0 15 7" enable-background="new 0 0 15 7" xml:space="preserve">
<path fill="#1A1A1A" d="M14.016,0h-12c-0.276,0-0.5,0.224-0.5,0.5v1.558C1.193,1.97,0.899,1.81,0.626,1.565
	c-0.155-0.138-0.392-0.126-0.53,0.03C0.03,1.667,0,1.757,0,1.846c0,0.103,0.041,0.206,0.125,0.281c0.412,0.369,0.88,0.599,1.391,0.7
	v0.632C1.193,3.371,0.899,3.21,0.626,2.965c-0.155-0.139-0.392-0.126-0.53,0.03C0.03,3.067,0,3.156,0,3.246
	c0,0.103,0.041,0.205,0.125,0.281c0.412,0.368,0.88,0.598,1.391,0.7v0.631C1.193,4.77,0.899,4.609,0.626,4.365
	c-0.155-0.139-0.392-0.127-0.53,0.029C0.03,4.467,0,4.557,0,4.646c0,0.102,0.041,0.205,0.125,0.279
	c0.412,0.369,0.88,0.6,1.391,0.701V6c0,0.277,0.224,0.5,0.5,0.5s0.5-0.223,0.5-0.5V5.654C3.091,5.562,3.618,5.291,4.087,4.83
	c0.148-0.145,0.15-0.383,0.005-0.531S3.708,4.148,3.56,4.293C3.238,4.609,2.891,4.797,2.516,4.881V4.254
	c0.575-0.09,1.103-0.364,1.571-0.825c0.148-0.144,0.15-0.383,0.005-0.53C3.946,2.751,3.708,2.749,3.56,2.893
	C3.238,3.209,2.891,3.398,2.516,3.482V2.854C3.091,2.763,3.618,2.49,4.087,2.03C4.235,1.885,4.237,1.646,4.092,1.5
	C3.946,1.352,3.708,1.349,3.56,1.493C3.238,1.81,2.891,1.997,2.516,2.081V1h11.5c0.276,0,0.5-0.224,0.5-0.5S14.292,0,14.016,0z"/>
</svg>
