<?xml version="1.0" encoding="utf-8"?>
<!-- Generator: Adobe Illustrator 15.1.0, SVG Export Plug-In . SVG Version: 6.00 Build 0)  -->
<!DOCTYPE svg PUBLIC "-//W3C//DTD SVG 1.1//EN" "http://www.w3.org/Graphics/SVG/1.1/DTD/svg11.dtd">
<svg version="1.1" id="Layer_1" xmlns="http://www.w3.org/2000/svg" xmlns:xlink="http://www.w3.org/1999/xlink" x="0px" y="0px"
	 width="16px" height="7px" viewBox="0 0 16 7" enable-background="new 0 0 16 7" xml:space="preserve">
<path fill="#1A1A1A" d="M14.666,0h-12c-0.276,0-0.5,0.224-0.5,0.5v2.938C1.674,3.339,1.229,3.117,0.82,2.751
	C0.617,2.57,0.307,2.586,0.125,2.79C0.04,2.884,0,3.001,0,3.118c0,0.134,0.054,0.269,0.164,0.368
	C0.751,4.011,1.427,4.32,2.166,4.431v1.162c0,0.276,0.224,0.5,0.5,0.5s0.5-0.224,0.5-0.5v-1.14C3.969,4.357,4.704,3.996,5.352,3.36
	c0.195-0.19,0.197-0.502,0.008-0.695C5.168,2.471,4.856,2.467,4.662,2.656C4.203,3.107,3.709,3.37,3.166,3.46V1h11.5
	c0.276,0,0.5-0.224,0.5-0.5S14.942,0,14.666,0z"/>
</svg>
