<?xml version="1.0" encoding="utf-8"?>
<!-- Generator: Adobe Illustrator 15.1.0, SVG Export Plug-In . SVG Version: 6.00 Build 0)  -->
<!DOCTYPE svg PUBLIC "-//W3C//DTD SVG 1.1//EN" "http://www.w3.org/Graphics/SVG/1.1/DTD/svg11.dtd">
<svg version="1.1" id="Layer_1" xmlns="http://www.w3.org/2000/svg" xmlns:xlink="http://www.w3.org/1999/xlink" x="0px" y="0px"
	 width="12px" height="7px" viewBox="0 0 12 7" enable-background="new 0 0 12 7" xml:space="preserve">
<path fill="#1A1A1A" d="M0,1.416h1.33c0.788,0,1.164,0.181,1.517,0.473C3.215,2.194,3.491,2.537,3.784,2.9
	c0.207,0.257,0.42,0.522,0.667,0.77C5.135,4.354,5.98,4.701,6.964,4.701c0.691,0,1.309-0.182,1.854-0.523l1.863,2.179
	c0.079,0.093,0.191,0.141,0.304,0.141c0.092,0,0.185-0.032,0.26-0.097c0.168-0.144,0.188-0.396,0.044-0.563L9.448,3.684
	c0.006-0.006,0.014-0.011,0.021-0.018c0.673-0.682,1.015-1.528,1.015-2.513c0-0.391-0.317-0.708-0.708-0.708
	S9.067,0.762,9.067,1.153c0,0.608-0.198,1.105-0.605,1.518C8.053,3.084,7.562,3.285,6.964,3.285c-0.603,0-1.097-0.202-1.511-0.615
	C5.26,2.476,5.079,2.251,4.887,2.013C4.578,1.629,4.229,1.194,3.749,0.798C3.074,0.239,2.35,0,1.33,0H0V1.416z"/>
</svg>
