<?xml version="1.0" encoding="utf-8"?>
<!-- Generator: Adobe Illustrator 15.1.0, SVG Export Plug-In . SVG Version: 6.00 Build 0)  -->
<!DOCTYPE svg PUBLIC "-//W3C//DTD SVG 1.1//EN" "http://www.w3.org/Graphics/SVG/1.1/DTD/svg11.dtd">
<svg version="1.1" id="Layer_1" xmlns="http://www.w3.org/2000/svg" xmlns:xlink="http://www.w3.org/1999/xlink" x="0px" y="0px"
	 width="13px" height="7px" viewBox="0 0 13 7" enable-background="new 0 0 13 7" xml:space="preserve">
<path fill="#1A1A1A" d="M0,1.416h1.33c0.788,0,1.164,0.181,1.517,0.473C3.215,2.194,3.491,2.537,3.784,2.9
	c0.207,0.257,0.42,0.522,0.667,0.77C5.135,4.354,5.98,4.701,6.964,4.701c0.691,0,1.31-0.182,1.854-0.523l0.55,0.643
	c-0.41,0.212-0.865,0.299-1.381,0.259C7.74,5.083,7.576,5.231,7.56,5.451C7.546,5.671,7.712,5.862,7.933,5.877
	c0.092,0.006,0.182,0.009,0.271,0.009c0.619,0,1.184-0.156,1.689-0.452l0.432,0.507c-0.25,0.129-0.516,0.227-0.814,0.26
	C9.328,6.221,9.197,6.385,9.218,6.569c0.018,0.17,0.162,0.295,0.33,0.295c0.012,0,0.023,0,0.037-0.002
	c0.43-0.048,0.816-0.203,1.178-0.41l0.316,0.37c0.078,0.093,0.191,0.141,0.303,0.141c0.092,0,0.186-0.032,0.26-0.097
	c0.168-0.144,0.188-0.396,0.045-0.563l-0.273-0.319c0.318-0.322,0.541-0.698,0.656-1.125c0.047-0.178-0.059-0.36-0.236-0.408
	c-0.174-0.049-0.359,0.058-0.408,0.235c-0.08,0.296-0.248,0.544-0.461,0.772l-0.438-0.513c0.49-0.479,0.777-1.058,0.832-1.738
	c0.018-0.22-0.146-0.413-0.367-0.43c-0.238-0.017-0.412,0.146-0.43,0.367c-0.037,0.469-0.225,0.861-0.553,1.196L9.448,3.684
	c0.006-0.006,0.014-0.01,0.021-0.017c0.673-0.682,1.015-1.528,1.015-2.513c0-0.391-0.317-0.708-0.708-0.708S9.067,0.762,9.067,1.153
	c0,0.608-0.198,1.105-0.605,1.518C8.053,3.084,7.562,3.285,6.964,3.285c-0.603,0-1.097-0.202-1.511-0.615
	C5.26,2.476,5.079,2.251,4.887,2.013C4.578,1.629,4.229,1.194,3.749,0.798C3.074,0.239,2.35,0,1.33,0H0V1.416z"/>
</svg>
