<?xml version="1.0" encoding="utf-8"?>
<!-- Generator: Adobe Illustrator 15.1.0, SVG Export Plug-In . SVG Version: 6.00 Build 0)  -->
<!DOCTYPE svg PUBLIC "-//W3C//DTD SVG 1.1//EN" "http://www.w3.org/Graphics/SVG/1.1/DTD/svg11.dtd">
<svg version="1.1" id="Layer_1" xmlns="http://www.w3.org/2000/svg" xmlns:xlink="http://www.w3.org/1999/xlink" x="0px" y="0px"
	 width="22px" height="6px" viewBox="0 0 22 6" enable-background="new 0 0 22 6" xml:space="preserve">
<path fill="#1A1A1A" d="M7.476,5.732c-1.219,0-2.522-0.606-3.4-1.582C3.762,3.801,3.531,3.469,3.308,3.148
	C3.007,2.716,2.747,2.343,2.334,2.004C1.842,1.599,1.521,1.418,0.919,1.417c-0.183-0.001-0.918,0-0.918,0L0,0
	c0,0,0.743-0.001,0.925,0c1.004,0.003,1.628,0.35,2.309,0.91C3.798,1.374,4.139,1.864,4.47,2.339
	C4.678,2.638,4.874,2.92,5.128,3.203c0.608,0.676,1.53,1.113,2.348,1.113c0.847,0,1.631-0.342,2.267-0.99
	c0.679-0.692,1.015-1.392,1.33-2.775C11.146,0.229,11.432,0,11.763,0h8.792c0.392,0,0.708,0.317,0.708,0.708
	s-0.316,0.708-0.708,0.708h-8.237c-0.302,1.142-0.704,2.024-1.565,2.902C9.858,5.229,8.694,5.732,7.476,5.732z"/>
</svg>
