<?xml version="1.0" encoding="utf-8"?>
<!-- Generator: Adobe Illustrator 15.1.0, SVG Export Plug-In . SVG Version: 6.00 Build 0)  -->
<!DOCTYPE svg PUBLIC "-//W3C//DTD SVG 1.1//EN" "http://www.w3.org/Graphics/SVG/1.1/DTD/svg11.dtd">
<svg version="1.1" id="Layer_1" xmlns="http://www.w3.org/2000/svg" xmlns:xlink="http://www.w3.org/1999/xlink" x="0px" y="0px"
	 width="13px" height="8px" viewBox="0 0 13 8" enable-background="new 0 0 13 8" xml:space="preserve">
<path fill="#1A1A1A" d="M0,1.416h1.33c0.788,0,1.164,0.181,1.517,0.473C3.215,2.194,3.491,2.537,3.784,2.9
	c0.207,0.257,0.42,0.522,0.667,0.77C5.135,4.354,5.98,4.701,6.964,4.701c0.691,0,1.31-0.182,1.854-0.523l0.583,0.682
	C9.066,5.01,8.699,5.078,8.283,5.048C8.087,5.055,7.923,5.182,7.91,5.375C7.898,5.568,8.044,5.734,8.236,5.748
	c0.08,0.005,0.158,0.008,0.236,0.008c0.512,0,0.98-0.115,1.402-0.344l0.422,0.494c-0.217,0.1-0.443,0.176-0.689,0.203
	C9.443,6.126,9.324,6.275,9.341,6.44C9.359,6.593,9.488,6.707,9.64,6.707c0.01,0,0.021,0,0.033-0.002
	c0.367-0.04,0.701-0.17,1.016-0.339l0.465,0.543c-0.152,0.062-0.312,0.104-0.482,0.122c-0.131,0.015-0.227,0.134-0.211,0.265
	c0.012,0.121,0.117,0.212,0.236,0.212c0.01,0,0.018,0,0.027-0.002c0.266-0.029,0.51-0.117,0.742-0.231l0.084,0.099
	c0.078,0.093,0.191,0.141,0.303,0.141c0.092,0,0.186-0.032,0.26-0.097c0.168-0.144,0.188-0.396,0.045-0.563L12.103,6.79
	c0.201-0.222,0.365-0.466,0.443-0.753c0.033-0.128-0.043-0.258-0.17-0.293c-0.131-0.03-0.258,0.042-0.293,0.169
	c-0.053,0.195-0.158,0.362-0.287,0.518l-0.449-0.525c0.299-0.298,0.506-0.647,0.613-1.045c0.043-0.16-0.051-0.324-0.211-0.368
	c-0.164-0.039-0.324,0.053-0.369,0.212c-0.074,0.28-0.234,0.514-0.438,0.729l-0.43-0.503c0.43-0.42,0.684-0.929,0.73-1.526
	c0.016-0.192-0.129-0.361-0.322-0.376c-0.193-0.023-0.361,0.129-0.375,0.321C10.513,3.76,10.349,4.105,10.06,4.4L9.448,3.684
	c0.006-0.006,0.014-0.01,0.021-0.017c0.673-0.682,1.015-1.528,1.015-2.513c0-0.391-0.317-0.708-0.708-0.708S9.067,0.762,9.067,1.153
	c0,0.608-0.198,1.105-0.605,1.518C8.053,3.084,7.562,3.285,6.964,3.285c-0.603,0-1.097-0.202-1.511-0.615
	C5.26,2.476,5.079,2.251,4.887,2.013C4.578,1.629,4.229,1.194,3.749,0.798C3.074,0.239,2.35,0,1.33,0H0V1.416z"/>
</svg>
