<?xml version="1.0" encoding="utf-8"?>
<!-- Generator: Adobe Illustrator 15.1.0, SVG Export Plug-In . SVG Version: 6.00 Build 0)  -->
<!DOCTYPE svg PUBLIC "-//W3C//DTD SVG 1.1//EN" "http://www.w3.org/Graphics/SVG/1.1/DTD/svg11.dtd">
<svg version="1.1" id="Layer_1" xmlns="http://www.w3.org/2000/svg" xmlns:xlink="http://www.w3.org/1999/xlink" x="0px" y="0px"
	 width="12px" height="7px" viewBox="0 0 12 7" enable-background="new 0 0 12 7" xml:space="preserve">
<path fill="#1A1A1A" d="M0,1.416h1.33c0.788,0,1.164,0.181,1.517,0.473C3.215,2.194,3.491,2.537,3.784,2.9
	c0.207,0.257,0.42,0.522,0.667,0.77C5.135,4.354,5.98,4.701,6.964,4.701c0.691,0,1.309-0.182,1.854-0.523l0.708,0.83
	C9.14,5.188,8.714,5.268,8.238,5.229C8.001,5.228,7.826,5.382,7.81,5.601C7.796,5.822,7.962,6.012,8.183,6.028
	c0.092,0.006,0.182,0.009,0.271,0.009c0.588,0,1.125-0.136,1.609-0.401l0.617,0.722c0.08,0.093,0.191,0.141,0.305,0.141
	c0.092,0,0.184-0.032,0.26-0.097c0.168-0.144,0.188-0.396,0.043-0.563l-0.58-0.679c0.533-0.49,0.844-1.091,0.9-1.802
	c0.018-0.22-0.146-0.413-0.367-0.43c-0.244-0.037-0.412,0.146-0.43,0.367c-0.041,0.499-0.25,0.91-0.621,1.259l-0.743-0.87
	c0.006-0.006,0.014-0.01,0.021-0.017c0.673-0.682,1.015-1.528,1.015-2.513c0-0.391-0.317-0.708-0.708-0.708S9.067,0.762,9.067,1.153
	c0,0.608-0.198,1.105-0.605,1.518C8.053,3.084,7.562,3.285,6.964,3.285c-0.603,0-1.097-0.202-1.511-0.615
	C5.26,2.476,5.079,2.251,4.887,2.013C4.578,1.629,4.229,1.194,3.749,0.798C3.074,0.239,2.35,0,1.33,0H0V1.416z"/>
</svg>
