<?xml version="1.0" encoding="utf-8"?>
<!-- Generator: Adobe Illustrator 15.1.0, SVG Export Plug-In . SVG Version: 6.00 Build 0)  -->
<!DOCTYPE svg PUBLIC "-//W3C//DTD SVG 1.1//EN" "http://www.w3.org/Graphics/SVG/1.1/DTD/svg11.dtd">
<svg version="1.1" id="Layer_1" xmlns="http://www.w3.org/2000/svg" xmlns:xlink="http://www.w3.org/1999/xlink" x="0px" y="0px"
	 width="76px" height="9px" viewBox="0 0 76 9" enable-background="new 0 0 76 9" xml:space="preserve">
<path fill="#1A1A1A" d="M12.318,3.794c-0.302,1.142-0.704,2.024-1.565,2.902C9.858,7.608,8.694,8.11,7.476,8.11
	c-1.219,0-2.522-0.606-3.4-1.582C3.762,6.18,3.531,5.848,3.308,5.526C3.007,5.095,2.747,4.722,2.334,4.382
	C1.842,3.978,1.521,3.797,0.919,3.795c-0.183-0.001-0.918,0-0.918,0L0,2.379c0,0,0.743-0.001,0.925,0
	c1.004,0.003,1.628,0.35,2.309,0.91C3.798,3.752,4.139,4.243,4.47,4.718c0.208,0.298,0.404,0.581,0.659,0.863
	c0.608,0.676,1.53,1.113,2.348,1.113c0.847,0,1.631-0.342,2.267-0.99c0.679-0.692,1.015-1.392,1.33-2.775
	c0.073-0.322,0.36-0.551,0.69-0.551h2.298c-0.164-0.481-0.439-0.934-0.856-1.358c-0.231-0.236-0.228-0.616,0.009-0.849
	c0.235-0.231,0.615-0.229,0.849,0.009c0.648,0.661,1.045,1.401,1.233,2.198h1.465c-0.164-0.481-0.439-0.934-0.856-1.358
	c-0.231-0.236-0.228-0.616,0.009-0.849c0.235-0.231,0.615-0.229,0.849,0.009c0.648,0.661,1.045,1.401,1.233,2.198h56.584
	c0.384,0,0.694,0.316,0.694,0.707c0,0.393-0.311,0.709-0.694,0.709H18.106C18.015,4.8,17.617,5.711,16.912,6.5
	C16.794,6.632,16.63,6.7,16.465,6.7c-0.143,0-0.285-0.05-0.4-0.152c-0.247-0.221-0.268-0.601-0.047-0.848
	c0.511-0.57,0.793-1.197,0.879-1.905h-1.489C15.315,4.8,14.918,5.711,14.213,6.5C14.095,6.632,13.931,6.7,13.766,6.7
	c-0.143,0-0.285-0.05-0.4-0.152c-0.247-0.221-0.268-0.601-0.047-0.848c0.511-0.57,0.793-1.197,0.879-1.905H12.318z"/>
</svg>
