<?xml version="1.0" encoding="utf-8"?>
<!-- Generator: Adobe Illustrator 15.1.0, SVG Export Plug-In . SVG Version: 6.00 Build 0)  -->
<!DOCTYPE svg PUBLIC "-//W3C//DTD SVG 1.1//EN" "http://www.w3.org/Graphics/SVG/1.1/DTD/svg11.dtd">
<svg version="1.1" id="Layer_1" xmlns="http://www.w3.org/2000/svg" xmlns:xlink="http://www.w3.org/1999/xlink" x="0px" y="0px"
	 width="9px" height="9px" viewBox="0 0 9 9" enable-background="new 0 0 9 9" xml:space="preserve">
<path fill="#1A1A1A" d="M7.398,1.222C6.557,0.407,5.531,0,4.321,0C3.115,0,2.092,0.407,1.255,1.222C0.419,2.036,0,3.029,0,4.201
	C0,5.369,0.419,6.36,1.255,7.174c0.837,0.814,1.859,1.222,3.065,1.222c1.21,0,2.236-0.407,3.077-1.222S8.66,5.369,8.66,4.201
	C8.66,3.029,8.239,2.036,7.398,1.222z M7.056,6.34c-0.472,0.582-1.044,0.873-1.72,0.873c-0.675,0-1.245-0.291-1.713-0.873
	C3.157,5.758,2.922,5.05,2.922,4.216c0-0.838,0.234-1.547,0.701-2.129c0.468-0.582,1.038-0.873,1.713-0.873
	c0.676,0,1.248,0.291,1.72,0.873c0.468,0.582,0.703,1.291,0.703,2.129C7.759,5.05,7.524,5.758,7.056,6.34z"/>
</svg>
