<?xml version="1.0" encoding="utf-8"?>
<!-- Generator: Adobe Illustrator 15.1.0, SVG Export Plug-In . SVG Version: 6.00 Build 0)  -->
<!DOCTYPE svg PUBLIC "-//W3C//DTD SVG 1.1//EN" "http://www.w3.org/Graphics/SVG/1.1/DTD/svg11.dtd">
<svg version="1.1" id="Layer_1" xmlns="http://www.w3.org/2000/svg" xmlns:xlink="http://www.w3.org/1999/xlink" x="0px" y="0px"
	 width="12px" height="9px" viewBox="0 0 12 9" enable-background="new 0 0 12 9" xml:space="preserve">
<path fill="#1A1A1A" d="M10.006,1.061C9.277,0.354,8.388,0,7.338,0C6.293,0,5.407,0.354,4.68,1.061
	C4.164,1.562,3.84,2.146,3.692,2.805C3.27,2.901,2.869,3.019,2.512,3.182C2.014,3.411,1.575,3.705,1.194,4.059
	c-0.379,0.356-0.68,0.755-0.898,1.195C0.004,5.842-0.072,6.396,0.067,6.919C0.206,7.44,0.534,7.83,1.051,8.086
	c0.463,0.228,0.934,0.263,1.416,0.103c0.48-0.161,0.836-0.47,1.064-0.931c0.22-0.445,0.258-0.896,0.113-1.351
	C3.5,5.454,3.211,5.119,2.78,4.905C2.491,4.761,2.163,4.693,1.797,4.698c0.365-0.359,0.766-0.631,1.201-0.815
	c0.187-0.078,0.39-0.14,0.598-0.197C3.607,4.679,3.964,5.523,4.68,6.221c0.727,0.707,1.613,1.06,2.658,1.06
	c1.05,0,1.938-0.353,2.668-1.06C10.735,5.513,11.1,4.655,11.1,3.643C11.1,2.625,10.735,1.765,10.006,1.061z M2.227,5.533
	c0.285,0.142,0.475,0.339,0.568,0.59c0.094,0.25,0.074,0.51-0.057,0.774C2.61,7.155,2.422,7.332,2.172,7.42
	c-0.248,0.089-0.498,0.071-0.75-0.054c-0.281-0.14-0.463-0.353-0.543-0.642C0.797,6.436,0.834,6.138,0.989,5.828
	C1.063,5.674,1.141,5.543,1.225,5.43c0.236-0.032,0.428-0.042,0.568-0.027C1.936,5.417,2.079,5.46,2.227,5.533z M6.827,6.222
	c-0.004,0.073-0.008,0.13-0.012,0.195c-0.567-0.098-1.064-0.352-1.49-0.77C4.772,5.102,4.497,4.433,4.497,3.643
	c0-0.796,0.275-1.464,0.828-2.012c0.426-0.418,0.923-0.672,1.49-0.769c0.004,0.064,0.008,0.124,0.012,0.195
	c0.037,0.708,0.055,1.567,0.055,2.585C6.881,4.656,6.864,5.515,6.827,6.222z M9.377,5.647C8.952,6.07,8.45,6.324,7.875,6.419
	C7.872,6.354,7.868,6.296,7.864,6.222C7.829,5.515,7.811,4.656,7.811,3.642c0-1.018,0.018-1.877,0.053-2.585
	c0.004-0.073,0.008-0.132,0.013-0.198C8.45,0.954,8.952,1.208,9.377,1.63c0.547,0.548,0.818,1.216,0.818,2.012
	C10.196,4.433,9.924,5.102,9.377,5.647z"/>
</svg>
