<?xml version="1.0" encoding="utf-8"?>
<!-- Generator: Adobe Illustrator 15.1.0, SVG Export Plug-In . SVG Version: 6.00 Build 0)  -->
<!DOCTYPE svg PUBLIC "-//W3C//DTD SVG 1.1//EN" "http://www.w3.org/Graphics/SVG/1.1/DTD/svg11.dtd">
<svg version="1.1" id="Layer_1" xmlns="http://www.w3.org/2000/svg" xmlns:xlink="http://www.w3.org/1999/xlink" x="0px" y="0px"
	 width="41px" height="11px" viewBox="0 0 41 11" enable-background="new 0 0 41 11" xml:space="preserve">
<path fill="#1A1A1A" d="M39.767,4.654H16.789c-0.188-0.797-0.585-1.537-1.233-2.198c-0.233-0.237-0.613-0.24-0.849-0.009
	c-0.236,0.232-0.24,0.612-0.009,0.849c0.417,0.425,0.692,0.877,0.856,1.358h-2.303c-0.192-0.677-0.542-1.287-1.086-1.814
	c-0.841-0.814-1.867-1.222-3.077-1.222c-1.206,0-2.229,0.407-3.065,1.222c-0.755,0.735-1.151,1.624-1.225,2.65
	C4.405,5.401,3.489,5.12,3.052,4.324c-0.229-0.42-0.312-0.942-0.326-1.463C3.143,2.902,3.56,2.986,3.968,3.158
	C4.195,3.25,4.461,3.147,4.557,2.917c0.096-0.229-0.012-0.492-0.241-0.589C3.803,2.112,3.279,2.008,2.754,1.963
	c0.08-0.77,0.253-1.374,0.257-1.386c0.07-0.238-0.066-0.488-0.305-0.559C2.465-0.053,2.218,0.085,2.148,0.324
	C2.131,0.38,1.931,1.077,1.85,1.968C1.317,2.021,0.785,2.135,0.268,2.365c-0.228,0.101-0.33,0.366-0.229,0.593
	C0.113,3.126,0.277,3.226,0.45,3.226c0.062,0,0.123-0.013,0.182-0.039c0.39-0.173,0.79-0.263,1.191-0.313
	c0.019,0.649,0.134,1.321,0.44,1.882C2.988,6.079,4.545,6.368,4.822,6.41c0.121,0.912,0.51,1.711,1.201,2.383
	c0.837,0.814,1.859,1.222,3.065,1.222c1.21,0,2.236-0.407,3.077-1.222c0.778-0.754,1.18-1.666,1.238-2.723h2.287
	c-0.086,0.708-0.368,1.335-0.879,1.905c-0.221,0.247-0.2,0.627,0.047,0.848c0.115,0.103,0.258,0.152,0.4,0.152
	c0.165,0,0.329-0.067,0.447-0.199c0.705-0.789,1.103-1.7,1.194-2.706h22.866c0.384,0,0.694-0.316,0.694-0.709
	C40.461,4.97,40.151,4.654,39.767,4.654z M11.824,7.958c-0.472,0.582-1.044,0.873-1.72,0.873c-0.675,0-1.245-0.291-1.713-0.873
	C7.924,7.376,7.69,6.668,7.69,5.834c0-0.839,0.234-1.548,0.701-2.13c0.468-0.582,1.038-0.873,1.713-0.873
	c0.676,0,1.248,0.291,1.72,0.873c0.468,0.582,0.703,1.291,0.703,2.13C12.527,6.668,12.292,7.376,11.824,7.958z"/>
</svg>
