<?xml version="1.0" encoding="utf-8"?>
<!-- Generator: Adobe Illustrator 15.1.0, SVG Export Plug-In . SVG Version: 6.00 Build 0)  -->
<!DOCTYPE svg PUBLIC "-//W3C//DTD SVG 1.1//EN" "http://www.w3.org/Graphics/SVG/1.1/DTD/svg11.dtd">
<svg version="1.1" id="Layer_1" xmlns="http://www.w3.org/2000/svg" xmlns:xlink="http://www.w3.org/1999/xlink" x="0px" y="0px"
	 width="9px" height="9px" viewBox="0 0 9 9" enable-background="new 0 0 9 9" xml:space="preserve">
<path fill="#1A1A1A" d="M7.397,1.222C6.69,0.537,5.845,0.158,4.877,0.049C4.693,0.028,4.513,0,4.32,0
	C4.133,0,3.958,0.028,3.779,0.048C2.81,0.154,1.962,0.534,1.255,1.222C0.419,2.036,0,3.029,0,4.201C0,5.369,0.419,6.36,1.255,7.174
	c0.708,0.688,1.557,1.068,2.528,1.175c0.178,0.02,0.351,0.047,0.537,0.047c0.191,0,0.37-0.028,0.553-0.048
	c0.97-0.109,1.816-0.488,2.524-1.174C8.238,6.36,8.659,5.369,8.659,4.201C8.659,3.029,8.238,2.036,7.397,1.222z M1.9,6.614
	c-0.667-0.657-1-1.461-1-2.413c0-0.956,0.333-1.762,1-2.419c0.539-0.531,1.18-0.836,1.913-0.938C3.845,1.786,3.86,2.909,3.86,4.231
	c0,1.291-0.015,2.391-0.046,3.32C3.081,7.451,2.44,7.146,1.9,6.614z M6.771,6.614C6.23,7.153,5.583,7.457,4.843,7.553
	c-0.03-0.93-0.047-2.03-0.047-3.322c0-1.324,0.018-2.447,0.048-3.388c0.74,0.097,1.387,0.401,1.927,0.939
	C7.43,2.439,7.759,3.245,7.759,4.201C7.759,5.153,7.43,5.957,6.771,6.614z"/>
</svg>
