<?xml version="1.0" encoding="utf-8"?>
<!-- Generator: Adobe Illustrator 15.1.0, SVG Export Plug-In . SVG Version: 6.00 Build 0)  -->
<!DOCTYPE svg PUBLIC "-//W3C//DTD SVG 1.1//EN" "http://www.w3.org/Graphics/SVG/1.1/DTD/svg11.dtd">
<svg version="1.1" id="Layer_1" xmlns="http://www.w3.org/2000/svg" xmlns:xlink="http://www.w3.org/1999/xlink" x="0px" y="0px"
	 width="10px" height="10px" viewBox="0 0 10 10" enable-background="new 0 0 10 10" xml:space="preserve">
<path fill="#1A1A1A" d="M9.107,9.215c0.201-0.222,0.365-0.466,0.443-0.753c0.033-0.128-0.043-0.258-0.17-0.293
	C9.25,8.139,9.123,8.211,9.088,8.338C9.035,8.533,8.93,8.7,8.801,8.855L8.352,8.33C8.65,8.032,8.857,7.683,8.965,7.285
	c0.043-0.16-0.051-0.324-0.211-0.368C8.59,6.878,8.43,6.97,8.385,7.129C8.311,7.409,8.15,7.643,7.947,7.857l-0.43-0.503
	c0.43-0.42,0.684-0.929,0.73-1.526c0.016-0.192-0.129-0.361-0.322-0.376C7.732,5.429,7.564,5.581,7.551,5.773
	C7.518,6.186,7.354,6.53,7.064,6.825L6.48,6.142c0.68-0.693,1.025-1.523,1.025-2.499c0-1.019-0.363-1.878-1.094-2.582
	C5.684,0.354,4.795,0,3.746,0C2.701,0,1.812,0.354,1.088,1.061C0.361,1.765,0,2.624,0,3.643c0,1.012,0.361,1.87,1.088,2.578
	c0.725,0.707,1.613,1.06,2.658,1.06c0.801,0,1.508-0.21,2.123-0.623l0.537,0.627C6.07,7.436,5.703,7.503,5.287,7.474
	C5.092,7.48,4.928,7.607,4.914,7.8C4.902,7.993,5.049,8.159,5.24,8.173c0.08,0.005,0.158,0.008,0.236,0.008
	c0.512,0,0.98-0.115,1.402-0.344l0.422,0.494c-0.217,0.1-0.443,0.176-0.689,0.203C6.447,8.552,6.328,8.7,6.346,8.865
	c0.018,0.153,0.146,0.267,0.299,0.267c0.01,0,0.021,0,0.033-0.002c0.367-0.04,0.701-0.17,1.016-0.339l0.465,0.543
	C8.006,9.396,7.846,9.438,7.676,9.456C7.545,9.471,7.449,9.59,7.465,9.721c0.012,0.121,0.117,0.212,0.236,0.212
	c0.01,0,0.018,0,0.027-0.002c0.266-0.029,0.51-0.117,0.742-0.231l0.084,0.099c0.078,0.093,0.191,0.141,0.303,0.141
	c0.092,0,0.186-0.032,0.26-0.097c0.168-0.144,0.188-0.396,0.045-0.563L9.107,9.215z M3.232,6.222
	C3.23,6.295,3.227,6.353,3.223,6.417c-0.568-0.098-1.064-0.353-1.49-0.77c-0.553-0.546-0.83-1.215-0.83-2.005
	c0-0.797,0.277-1.465,0.83-2.013c0.426-0.418,0.922-0.672,1.49-0.769c0.004,0.064,0.008,0.123,0.01,0.195
	C3.27,1.764,3.287,2.624,3.287,3.642C3.287,4.656,3.27,5.515,3.232,6.222z M4.271,6.222c-0.037-0.707-0.055-1.565-0.055-2.58
	c0-1.018,0.018-1.878,0.055-2.585c0.004-0.073,0.008-0.132,0.012-0.198C4.857,0.954,5.359,1.207,5.785,1.63
	C6.33,2.178,6.604,2.846,6.604,3.643c0,0.79-0.273,1.459-0.818,2.005C5.359,6.07,4.857,6.324,4.283,6.419
	C4.279,6.354,4.275,6.296,4.271,6.222z"/>
</svg>
