<?xml version="1.0" encoding="utf-8"?>
<!-- Generator: Adobe Illustrator 15.1.0, SVG Export Plug-In . SVG Version: 6.00 Build 0)  -->
<!DOCTYPE svg PUBLIC "-//W3C//DTD SVG 1.1//EN" "http://www.w3.org/Graphics/SVG/1.1/DTD/svg11.dtd">
<svg version="1.1" id="Layer_1" xmlns="http://www.w3.org/2000/svg" xmlns:xlink="http://www.w3.org/1999/xlink" x="0px" y="0px"
	 width="14px" height="12px" viewBox="0 0 14 12" enable-background="new 0 0 14 12" xml:space="preserve">
<path fill="#1A1A1A" d="M12.141,9.871c0.531-0.49,0.844-1.092,0.898-1.803c0.018-0.219-0.146-0.412-0.367-0.43
	c-0.242-0.037-0.412,0.146-0.43,0.367c-0.039,0.5-0.25,0.91-0.619,1.26l-0.717-0.838c0.68-0.693,1.027-1.523,1.027-2.5
	c0-1.017-0.365-1.876-1.096-2.582c-0.727-0.706-1.615-1.06-2.666-1.06c-1.044,0-1.932,0.354-2.658,1.06
	c-0.596,0.577-0.933,1.265-1.04,2.052C4.025,5.25,3.393,4.946,3.052,4.324c-0.229-0.42-0.312-0.942-0.326-1.463
	C3.143,2.902,3.56,2.986,3.968,3.158C4.195,3.25,4.461,3.147,4.557,2.917c0.096-0.229-0.012-0.492-0.241-0.589
	C3.803,2.112,3.279,2.008,2.754,1.963c0.08-0.77,0.253-1.374,0.257-1.386c0.07-0.238-0.066-0.488-0.305-0.559
	C2.465-0.053,2.218,0.085,2.148,0.324C2.131,0.38,1.931,1.077,1.85,1.968C1.317,2.021,0.785,2.135,0.268,2.365
	c-0.228,0.101-0.33,0.366-0.229,0.593C0.113,3.126,0.277,3.226,0.45,3.226c0.062,0,0.123-0.013,0.182-0.039
	c0.39-0.173,0.79-0.263,1.191-0.313c0.019,0.649,0.134,1.321,0.44,1.882C2.822,5.775,3.877,6.18,4.462,6.33
	c0.087,0.838,0.425,1.566,1.052,2.176C6.24,9.213,7.127,9.564,8.172,9.564c0.803,0,1.51-0.209,2.123-0.621l0.664,0.775
	C10.572,9.9,10.145,9.98,9.668,9.941c-0.236-0.002-0.41,0.152-0.426,0.371c-0.016,0.221,0.152,0.412,0.371,0.428
	c0.092,0.006,0.184,0.008,0.271,0.008c0.588,0,1.127-0.135,1.611-0.4l0.617,0.721c0.078,0.094,0.191,0.141,0.303,0.141
	c0.092,0,0.186-0.031,0.26-0.096c0.168-0.145,0.188-0.396,0.045-0.564L12.141,9.871z M9.027,8.395c-0.555,0-1.027-0.24-1.408-0.721
	C7.233,7.197,7.042,6.613,7.042,5.928c0-0.688,0.19-1.273,0.577-1.748C8,3.701,8.473,3.459,9.027,3.459
	c0.553,0,1.023,0.241,1.412,0.721c0.385,0.475,0.578,1.06,0.578,1.748c0,0.686-0.193,1.27-0.578,1.746
	C10.051,8.154,9.58,8.395,9.027,8.395z"/>
</svg>
