<?xml version="1.0" encoding="utf-8"?>
<!-- Generator: Adobe Illustrator 15.1.0, SVG Export Plug-In . SVG Version: 6.00 Build 0)  -->
<!DOCTYPE svg PUBLIC "-//W3C//DTD SVG 1.1//EN" "http://www.w3.org/Graphics/SVG/1.1/DTD/svg11.dtd">
<svg version="1.1" id="Layer_1" xmlns="http://www.w3.org/2000/svg" xmlns:xlink="http://www.w3.org/1999/xlink" x="0px" y="0px"
	 width="13px" height="12px" viewBox="0 0 13 12" enable-background="new 0 0 13 12" xml:space="preserve">
<path fill="#1A1A1A" d="M12.72,10.549l-1.813-2.121c0.679-0.693,1.026-1.522,1.026-2.499c0-1.019-0.364-1.878-1.094-2.582
	C10.11,2.641,9.222,2.287,8.172,2.287c-1.045,0-1.933,0.354-2.658,1.061c-0.596,0.576-0.933,1.264-1.04,2.051
	C4.025,5.25,3.393,4.946,3.052,4.324c-0.229-0.42-0.312-0.942-0.326-1.463C3.143,2.902,3.56,2.986,3.968,3.158
	C4.195,3.25,4.461,3.147,4.557,2.917c0.096-0.229-0.012-0.492-0.241-0.589C3.803,2.112,3.279,2.008,2.754,1.963
	c0.08-0.77,0.253-1.374,0.257-1.386c0.07-0.238-0.066-0.488-0.305-0.559C2.465-0.053,2.218,0.085,2.148,0.324
	C2.131,0.38,1.931,1.077,1.85,1.968C1.317,2.021,0.785,2.135,0.268,2.365c-0.228,0.101-0.33,0.366-0.229,0.593
	C0.113,3.126,0.277,3.226,0.45,3.226c0.062,0,0.123-0.013,0.182-0.039c0.39-0.173,0.79-0.263,1.191-0.313
	c0.019,0.649,0.134,1.321,0.44,1.882c0.559,1.021,1.614,1.424,2.199,1.575c0.086,0.837,0.425,1.566,1.052,2.177
	c0.726,0.707,1.613,1.06,2.658,1.06c0.803,0,1.509-0.21,2.123-0.622l1.817,2.124c0.079,0.093,0.191,0.141,0.304,0.141
	c0.092,0,0.185-0.032,0.26-0.097C12.844,10.969,12.864,10.717,12.72,10.549z M6.159,7.929C5.606,7.384,5.33,6.715,5.33,5.924
	c0-0.624,0.176-1.167,0.516-1.637c0.663,0.509,1.436,0.784,2.326,0.784c0.9,0,1.676-0.278,2.344-0.793
	c0.339,0.473,0.515,1.018,0.515,1.646c0,0.791-0.272,1.46-0.818,2.005c-0.55,0.547-1.223,0.818-2.021,0.818
	C7.391,8.748,6.715,8.476,6.159,7.929z"/>
</svg>
