<?xml version="1.0" encoding="utf-8"?>
<!-- Generator: Adobe Illustrator 15.1.0, SVG Export Plug-In . SVG Version: 6.00 Build 0)  -->
<!DOCTYPE svg PUBLIC "-//W3C//DTD SVG 1.1//EN" "http://www.w3.org/Graphics/SVG/1.1/DTD/svg11.dtd">
<svg version="1.1" id="Layer_1" xmlns="http://www.w3.org/2000/svg" xmlns:xlink="http://www.w3.org/1999/xlink" x="0px" y="0px"
	 width="8px" height="8px" viewBox="0 0 8 8" enable-background="new 0 0 8 8" xml:space="preserve">
<path fill="#1A1A1A" d="M6.414,1.061C5.685,0.354,4.796,0,3.746,0C2.701,0,1.814,0.354,1.088,1.061C0.361,1.765,0,2.625,0,3.643
	c0,1.012,0.361,1.87,1.088,2.578c0.727,0.707,1.613,1.06,2.658,1.06c1.05,0,1.938-0.353,2.668-1.06
	c0.729-0.708,1.094-1.566,1.094-2.578C7.508,2.625,7.143,1.765,6.414,1.061z M0.904,3.643c0-0.796,0.275-1.464,0.828-2.012
	c0.426-0.418,0.923-0.672,1.49-0.769C3.227,0.926,3.23,0.985,3.234,1.057c0.037,0.708,0.055,1.567,0.055,2.585
	c0,1.015-0.018,1.874-0.055,2.581C3.23,6.295,3.227,6.353,3.223,6.417c-0.567-0.098-1.064-0.352-1.49-0.77
	C1.18,5.102,0.904,4.433,0.904,3.643z M5.785,5.647C5.359,6.07,4.857,6.324,4.283,6.419C4.279,6.354,4.275,6.296,4.271,6.222
	C4.236,5.515,4.219,4.656,4.219,3.642c0-1.018,0.018-1.877,0.053-2.585c0.004-0.073,0.008-0.132,0.013-0.198
	C4.857,0.954,5.359,1.208,5.785,1.63c0.547,0.548,0.818,1.216,0.818,2.012C6.604,4.433,6.332,5.102,5.785,5.647z"/>
</svg>
