<?xml version="1.0" encoding="utf-8"?>
<!-- Generator: Adobe Illustrator 15.1.0, SVG Export Plug-In . SVG Version: 6.00 Build 0)  -->
<!DOCTYPE svg PUBLIC "-//W3C//DTD SVG 1.1//EN" "http://www.w3.org/Graphics/SVG/1.1/DTD/svg11.dtd">
<svg version="1.1" id="Layer_1" xmlns="http://www.w3.org/2000/svg" xmlns:xlink="http://www.w3.org/1999/xlink" x="0px" y="0px"
	 width="23px" height="11px" viewBox="0 0 23 11" enable-background="new 0 0 23 11" xml:space="preserve">
<path fill="#1A1A1A" d="M21.768,4.654h-8.516c-0.192-0.677-0.542-1.287-1.086-1.814c-0.841-0.814-1.867-1.222-3.077-1.222
	c-1.206,0-2.229,0.407-3.065,1.222c-0.755,0.735-1.151,1.624-1.225,2.65c-0.393-0.087-1.31-0.368-1.747-1.166
	c-0.229-0.42-0.312-0.942-0.326-1.463C3.143,2.902,3.56,2.986,3.968,3.158C4.195,3.25,4.461,3.147,4.557,2.917
	c0.096-0.229-0.012-0.492-0.241-0.589C3.803,2.112,3.279,2.008,2.754,1.963c0.08-0.77,0.253-1.374,0.257-1.386
	c0.07-0.238-0.066-0.488-0.305-0.559C2.465-0.053,2.218,0.085,2.148,0.324C2.131,0.38,1.931,1.077,1.85,1.968
	C1.317,2.021,0.785,2.135,0.268,2.365c-0.228,0.101-0.33,0.366-0.229,0.593C0.113,3.126,0.277,3.226,0.45,3.226
	c0.062,0,0.123-0.013,0.182-0.039c0.39-0.173,0.79-0.263,1.191-0.313c0.019,0.649,0.134,1.321,0.44,1.882
	c0.726,1.326,2.286,1.613,2.56,1.654c0.121,0.912,0.511,1.711,1.201,2.383c0.837,0.814,1.859,1.222,3.065,1.222
	c1.21,0,2.236-0.407,3.077-1.222c0.778-0.754,1.18-1.666,1.238-2.723h8.363c0.384,0,0.694-0.316,0.694-0.709
	C22.462,4.97,22.152,4.654,21.768,4.654z M11.825,7.958c-0.472,0.582-1.044,0.873-1.72,0.873c-0.675,0-1.245-0.291-1.713-0.873
	c-0.467-0.582-0.701-1.29-0.701-2.124c0-0.839,0.234-1.548,0.701-2.13C8.86,3.123,9.43,2.832,10.105,2.832
	c0.676,0,1.248,0.291,1.72,0.873c0.468,0.582,0.703,1.291,0.703,2.13C12.528,6.668,12.292,7.376,11.825,7.958z"/>
</svg>
