<?xml version="1.0" encoding="utf-8"?>
<!-- Generator: Adobe Illustrator 15.1.0, SVG Export Plug-In . SVG Version: 6.00 Build 0)  -->
<!DOCTYPE svg PUBLIC "-//W3C//DTD SVG 1.1//EN" "http://www.w3.org/Graphics/SVG/1.1/DTD/svg11.dtd">
<svg version="1.1" id="Layer_1" xmlns="http://www.w3.org/2000/svg" xmlns:xlink="http://www.w3.org/1999/xlink" x="0px" y="0px"
	 width="36px" height="9px" viewBox="0 0 36 9" enable-background="new 0 0 36 9" xml:space="preserve">
<path fill="#1A1A1A" d="M35,3.036H12.021c-0.188-0.797-0.585-1.537-1.233-2.198c-0.233-0.237-0.613-0.24-0.849-0.009
	c-0.236,0.232-0.24,0.612-0.009,0.849c0.417,0.425,0.692,0.877,0.856,1.358H8.484C8.292,2.359,7.942,1.749,7.398,1.222
	C6.558,0.407,5.531,0,4.321,0C3.115,0,2.093,0.407,1.256,1.222S0,3.029,0,4.201C0,5.369,0.419,6.36,1.256,7.175
	s1.859,1.222,3.065,1.222c1.21,0,2.236-0.407,3.077-1.222c0.778-0.754,1.18-1.666,1.238-2.723h2.287
	c-0.086,0.708-0.368,1.335-0.879,1.905c-0.221,0.247-0.2,0.627,0.047,0.848c0.115,0.103,0.258,0.152,0.4,0.152
	c0.165,0,0.329-0.067,0.447-0.199c0.705-0.789,1.103-1.7,1.194-2.706H35c0.384,0,0.694-0.316,0.694-0.709
	C35.694,3.353,35.384,3.036,35,3.036z M7.057,6.341c-0.472,0.582-1.044,0.873-1.72,0.873c-0.675,0-1.245-0.291-1.713-0.873
	c-0.467-0.582-0.701-1.29-0.701-2.124c0-0.839,0.234-1.548,0.701-2.13c0.468-0.582,1.038-0.873,1.713-0.873
	c0.676,0,1.248,0.291,1.72,0.873C7.524,2.669,7.76,3.378,7.76,4.217C7.76,5.051,7.524,5.759,7.057,6.341z"/>
</svg>
