<?xml version="1.0" encoding="utf-8"?>
<!-- Generator: Adobe Illustrator 15.1.0, SVG Export Plug-In . SVG Version: 6.00 Build 0)  -->
<!DOCTYPE svg PUBLIC "-//W3C//DTD SVG 1.1//EN" "http://www.w3.org/Graphics/SVG/1.1/DTD/svg11.dtd">
<svg version="1.1" id="Layer_1" xmlns="http://www.w3.org/2000/svg" xmlns:xlink="http://www.w3.org/1999/xlink" x="0px" y="0px"
	 width="14px" height="13px" viewBox="0 0 14 13" enable-background="new 0 0 14 13" xml:space="preserve">
<path fill="#1A1A1A" d="M13.534,11.501c0.201-0.222,0.365-0.466,0.443-0.753c0.033-0.128-0.043-0.258-0.17-0.293
	c-0.131-0.03-0.258,0.042-0.293,0.169c-0.053,0.195-0.158,0.362-0.287,0.518l-0.449-0.525c0.299-0.298,0.506-0.647,0.613-1.045
	c0.043-0.16-0.051-0.324-0.211-0.368c-0.164-0.039-0.324,0.053-0.369,0.212c-0.074,0.28-0.234,0.514-0.438,0.729l-0.43-0.503
	c0.43-0.42,0.684-0.929,0.73-1.526c0.016-0.192-0.129-0.361-0.322-0.376c-0.193-0.023-0.361,0.129-0.375,0.321
	c-0.033,0.412-0.197,0.757-0.486,1.052l-0.584-0.684c0.68-0.693,1.026-1.523,1.026-2.499c0-1.019-0.364-1.878-1.094-2.582
	C10.11,2.641,9.221,2.287,8.172,2.287c-1.045,0-1.933,0.354-2.658,1.061C4.918,3.924,4.583,4.611,4.475,5.398
	C4.026,5.251,3.393,4.947,3.051,4.324c-0.229-0.42-0.311-0.942-0.325-1.463c0.417,0.041,0.833,0.125,1.241,0.297
	c0.227,0.093,0.494-0.011,0.59-0.241c0.096-0.229-0.012-0.492-0.242-0.589C3.803,2.112,3.278,2.008,2.754,1.963
	c0.08-0.77,0.252-1.374,0.256-1.386c0.07-0.238-0.066-0.488-0.304-0.559C2.465-0.053,2.218,0.085,2.148,0.324
	C2.131,0.38,1.931,1.077,1.85,1.968C1.317,2.021,0.785,2.135,0.268,2.365c-0.228,0.101-0.33,0.366-0.229,0.593
	C0.113,3.126,0.277,3.226,0.45,3.226c0.062,0,0.123-0.013,0.182-0.039c0.39-0.173,0.79-0.263,1.191-0.313
	c0.019,0.649,0.134,1.321,0.44,1.882c0.559,1.021,1.615,1.424,2.2,1.576c0.086,0.836,0.424,1.565,1.051,2.176
	c0.726,0.707,1.613,1.06,2.658,1.06c0.802,0,1.509-0.21,2.124-0.623l0.536,0.627C10.497,9.722,10.129,9.79,9.713,9.76
	C9.518,9.767,9.354,9.894,9.34,10.086c-0.012,0.193,0.135,0.359,0.326,0.373c0.08,0.005,0.158,0.008,0.236,0.008
	c0.512,0,0.98-0.115,1.402-0.344l0.422,0.494c-0.217,0.1-0.443,0.176-0.689,0.203c-0.164,0.018-0.283,0.166-0.266,0.331
	c0.018,0.153,0.146,0.267,0.299,0.267c0.01,0,0.021,0,0.033-0.002c0.367-0.04,0.701-0.17,1.016-0.339l0.465,0.543
	c-0.152,0.062-0.312,0.104-0.482,0.122c-0.131,0.015-0.227,0.134-0.211,0.265c0.012,0.121,0.117,0.212,0.236,0.212
	c0.01,0,0.018,0,0.027-0.002c0.266-0.029,0.51-0.117,0.742-0.231l0.084,0.099c0.078,0.093,0.191,0.141,0.303,0.141
	c0.092,0,0.186-0.032,0.26-0.097c0.168-0.144,0.188-0.396,0.045-0.563L13.534,11.501z M7.66,8.508
	C7.657,8.582,7.653,8.639,7.649,8.704c-0.568-0.098-1.064-0.353-1.49-0.77C5.606,7.388,5.33,6.719,5.33,5.929
	c0-0.797,0.276-1.465,0.829-2.013c0.426-0.418,0.922-0.672,1.49-0.769C7.653,3.212,7.657,3.271,7.66,3.343
	C7.697,4.05,7.714,4.911,7.714,5.928C7.714,6.943,7.697,7.801,7.66,8.508z M8.698,8.508c-0.036-0.707-0.054-1.565-0.054-2.58
	c0-1.018,0.018-1.878,0.054-2.585C8.702,3.27,8.706,3.211,8.709,3.145c0.574,0.096,1.076,0.349,1.502,0.771
	c0.546,0.548,0.818,1.216,0.818,2.013c0,0.79-0.272,1.459-0.818,2.005C9.786,8.357,9.284,8.611,8.709,8.706
	C8.706,8.64,8.702,8.583,8.698,8.508z"/>
</svg>
