<?xml version="1.0" encoding="utf-8"?>
<!-- Generator: Adobe Illustrator 15.1.0, SVG Export Plug-In . SVG Version: 6.00 Build 0)  -->
<!DOCTYPE svg PUBLIC "-//W3C//DTD SVG 1.1//EN" "http://www.w3.org/Graphics/SVG/1.1/DTD/svg11.dtd">
<svg version="1.1" id="Layer_1" xmlns="http://www.w3.org/2000/svg" xmlns:xlink="http://www.w3.org/1999/xlink" x="0px" y="0px"
	 width="77px" height="11px" viewBox="0 0 77 11" enable-background="new 0 0 77 11" xml:space="preserve">
<path fill="#1A1A1A" d="M76.072,4.653H19.488c-0.189-0.796-0.585-1.537-1.234-2.198c-0.233-0.237-0.613-0.24-0.849-0.009
	c-0.236,0.232-0.24,0.612-0.009,0.849c0.417,0.425,0.692,0.877,0.856,1.358h-1.465c-0.188-0.796-0.585-1.537-1.233-2.198
	c-0.233-0.237-0.613-0.24-0.849-0.009c-0.236,0.232-0.24,0.612-0.009,0.849c0.417,0.425,0.692,0.877,0.856,1.358h-2.303
	c-0.192-0.676-0.542-1.287-1.086-1.814c-0.841-0.814-1.867-1.222-3.077-1.222c-1.206,0-2.229,0.407-3.065,1.222
	c-0.756,0.735-1.151,1.624-1.226,2.65C4.405,5.401,3.489,5.12,3.052,4.324c-0.229-0.42-0.312-0.942-0.326-1.463
	C3.143,2.902,3.56,2.986,3.968,3.158C4.195,3.25,4.461,3.147,4.557,2.917c0.096-0.229-0.012-0.492-0.241-0.589
	C3.803,2.112,3.279,2.008,2.754,1.963c0.08-0.77,0.253-1.374,0.257-1.386c0.07-0.238-0.066-0.488-0.305-0.559
	C2.465-0.053,2.218,0.085,2.148,0.324C2.131,0.38,1.931,1.077,1.85,1.968C1.317,2.021,0.785,2.135,0.268,2.365
	c-0.228,0.101-0.33,0.366-0.229,0.593C0.113,3.126,0.277,3.226,0.45,3.226c0.062,0,0.123-0.013,0.182-0.039
	c0.39-0.173,0.79-0.263,1.191-0.313c0.019,0.649,0.134,1.321,0.44,1.881c0.725,1.324,2.281,1.613,2.559,1.654
	C4.943,7.321,5.333,8.12,6.023,8.792c0.837,0.814,1.859,1.223,3.065,1.223c1.21,0,2.236-0.408,3.077-1.223
	c0.778-0.754,1.18-1.666,1.238-2.723h2.287c-0.086,0.709-0.368,1.336-0.879,1.906c-0.221,0.246-0.2,0.627,0.047,0.848
	c0.115,0.102,0.258,0.152,0.4,0.152c0.165,0,0.329-0.068,0.447-0.199c0.705-0.789,1.103-1.701,1.194-2.707h1.489
	c-0.086,0.709-0.368,1.336-0.879,1.906c-0.221,0.246-0.2,0.627,0.047,0.848c0.115,0.102,0.258,0.152,0.4,0.152
	c0.165,0,0.329-0.068,0.447-0.199c0.705-0.789,1.102-1.701,1.194-2.707h56.473c0.385,0,0.695-0.316,0.695-0.709
	C76.768,4.97,76.457,4.653,76.072,4.653z"/>
</svg>
