<?xml version="1.0" encoding="utf-8"?>
<!-- Generator: Adobe Illustrator 15.1.0, SVG Export Plug-In . SVG Version: 6.00 Build 0)  -->
<!DOCTYPE svg PUBLIC "-//W3C//DTD SVG 1.1//EN" "http://www.w3.org/Graphics/SVG/1.1/DTD/svg11.dtd">
<svg version="1.1" id="Layer_1" xmlns="http://www.w3.org/2000/svg" xmlns:xlink="http://www.w3.org/1999/xlink" x="0px" y="0px"
	 width="10px" height="10px" viewBox="0 0 10 10" enable-background="new 0 0 10 10" xml:space="preserve">
<g>
	<path fill="#1A1A1A" d="M3.75,2.469c-0.336,0-0.621,0.112-0.855,0.343c-0.232,0.226-0.35,0.502-0.35,0.828
		c0,0.327,0.117,0.603,0.35,0.83c0.234,0.227,0.52,0.342,0.855,0.342c0.338,0,0.625-0.115,0.859-0.342
		c0.234-0.228,0.352-0.503,0.352-0.83c0-0.326-0.117-0.603-0.352-0.828C4.375,2.581,4.088,2.469,3.75,2.469z"/>
	<path fill="#1A1A1A" d="M9.107,9.215c0.201-0.222,0.365-0.466,0.443-0.753c0.033-0.128-0.043-0.258-0.17-0.293
		C9.25,8.139,9.123,8.211,9.088,8.338C9.035,8.533,8.93,8.7,8.801,8.855L8.352,8.33C8.65,8.032,8.857,7.683,8.965,7.285
		c0.043-0.16-0.051-0.324-0.211-0.368C8.59,6.878,8.43,6.97,8.385,7.129C8.311,7.409,8.15,7.643,7.947,7.857l-0.43-0.503
		c0.43-0.42,0.684-0.929,0.73-1.526c0.016-0.192-0.129-0.361-0.322-0.376C7.732,5.429,7.564,5.581,7.551,5.773
		C7.518,6.186,7.354,6.53,7.064,6.825L6.48,6.142c0.68-0.693,1.025-1.523,1.025-2.499c0-1.019-0.363-1.878-1.092-2.582
		C5.684,0.354,4.795,0,3.746,0C2.701,0,1.814,0.354,1.088,1.061C0.361,1.765,0,2.624,0,3.643c0,1.012,0.361,1.87,1.088,2.578
		c0.727,0.707,1.613,1.06,2.658,1.06c0.803,0,1.51-0.21,2.125-0.623l0.535,0.627C6.07,7.436,5.703,7.503,5.287,7.474
		C5.092,7.48,4.928,7.607,4.914,7.8C4.902,7.993,5.049,8.159,5.24,8.173c0.08,0.005,0.158,0.008,0.236,0.008
		c0.512,0,0.98-0.115,1.402-0.344l0.422,0.494c-0.217,0.1-0.443,0.176-0.689,0.203C6.447,8.552,6.328,8.7,6.346,8.865
		c0.018,0.153,0.146,0.267,0.299,0.267c0.01,0,0.021,0,0.033-0.002c0.367-0.04,0.701-0.17,1.016-0.339l0.465,0.543
		C8.006,9.396,7.846,9.438,7.676,9.456C7.545,9.471,7.449,9.59,7.465,9.721c0.012,0.121,0.117,0.212,0.236,0.212
		c0.01,0,0.018,0,0.027-0.002c0.266-0.029,0.51-0.117,0.742-0.231l0.084,0.099c0.078,0.093,0.191,0.141,0.303,0.141
		c0.092,0,0.186-0.032,0.26-0.097c0.168-0.144,0.188-0.396,0.045-0.563L9.107,9.215z M1.732,5.647
		c-0.553-0.546-0.83-1.215-0.83-2.005c0-0.797,0.277-1.465,0.83-2.012c0.557-0.547,1.232-0.818,2.031-0.818s1.471,0.271,2.021,0.818
		c0.547,0.547,0.818,1.215,0.818,2.012c0,0.79-0.271,1.459-0.818,2.005C5.234,6.193,4.562,6.465,3.764,6.465
		S2.289,6.193,1.732,5.647z"/>
</g>
</svg>
