<?xml version="1.0" encoding="utf-8"?>
<!-- Generator: Adobe Illustrator 15.1.0, SVG Export Plug-In . SVG Version: 6.00 Build 0)  -->
<!DOCTYPE svg PUBLIC "-//W3C//DTD SVG 1.1//EN" "http://www.w3.org/Graphics/SVG/1.1/DTD/svg11.dtd">
<svg version="1.1" id="Layer_1" xmlns="http://www.w3.org/2000/svg" xmlns:xlink="http://www.w3.org/1999/xlink" x="0px" y="0px"
	 width="18px" height="9px" viewBox="0 0 18 9" enable-background="new 0 0 18 9" xml:space="preserve">
<path fill="#1A1A1A" d="M17,3.036H8.484C8.292,2.359,7.942,1.749,7.398,1.222C6.691,0.537,5.846,0.158,4.878,0.049
	C4.694,0.028,4.514,0,4.321,0C4.134,0,3.959,0.028,3.78,0.048c-0.97,0.106-1.817,0.486-2.524,1.174C0.419,2.036,0,3.029,0,4.201
	C0,5.369,0.419,6.36,1.256,7.175C1.964,7.863,2.812,8.243,3.784,8.35c0.178,0.02,0.351,0.047,0.537,0.047
	c0.191,0,0.37-0.028,0.553-0.048C5.844,8.239,6.69,7.86,7.398,7.175c0.778-0.754,1.18-1.666,1.238-2.723H17
	c0.384,0,0.694-0.316,0.694-0.709C17.694,3.353,17.384,3.036,17,3.036z M3.815,7.552C3.081,7.451,2.44,7.146,1.9,6.614
	c-0.667-0.657-1-1.461-1-2.413c0-0.956,0.333-1.762,1-2.419c0.539-0.531,1.18-0.836,1.913-0.938
	c0.032,0.941,0.048,2.064,0.048,3.387C3.861,5.522,3.847,6.622,3.815,7.552z M6.771,6.614c-0.54,0.539-1.188,0.843-1.928,0.939
	c-0.03-0.93-0.047-2.03-0.047-3.322c0-1.324,0.018-2.447,0.048-3.389c0.74,0.097,1.387,0.401,1.927,0.939
	C7.431,2.439,7.76,3.245,7.76,4.201C7.76,5.153,7.431,5.957,6.771,6.614z"/>
</svg>
