<?xml version="1.0" encoding="utf-8"?>
<!-- Generator: Adobe Illustrator 15.1.0, SVG Export Plug-In . SVG Version: 6.00 Build 0)  -->
<!DOCTYPE svg PUBLIC "-//W3C//DTD SVG 1.1//EN" "http://www.w3.org/Graphics/SVG/1.1/DTD/svg11.dtd">
<svg version="1.1" id="Layer_1" xmlns="http://www.w3.org/2000/svg" xmlns:xlink="http://www.w3.org/1999/xlink" x="0px" y="0px"
	 width="9px" height="9px" viewBox="0 0 9 9" enable-background="new 0 0 9 9" xml:space="preserve">
<g>
	<path fill="#1A1A1A" d="M3.752,2.469c-0.337,0-0.622,0.112-0.855,0.343C2.663,3.037,2.546,3.313,2.546,3.64
		c0,0.327,0.117,0.603,0.351,0.83C3.13,4.696,3.415,4.812,3.752,4.812c0.338,0,0.624-0.115,0.857-0.342
		c0.235-0.228,0.353-0.503,0.353-0.83c0-0.326-0.117-0.603-0.353-0.828C4.376,2.581,4.09,2.469,3.752,2.469z"/>
	<path fill="#1A1A1A" d="M8.295,8.263L6.481,6.142C7.16,5.448,7.508,4.619,7.508,3.643c0-1.019-0.364-1.878-1.094-2.582
		C5.685,0.354,4.797,0,3.747,0C2.702,0,1.814,0.354,1.089,1.061C0.362,1.765,0,2.624,0,3.643c0,1.012,0.362,1.87,1.089,2.578
		c0.726,0.707,1.613,1.06,2.658,1.06c0.803,0,1.509-0.21,2.123-0.622l1.817,2.124c0.079,0.093,0.191,0.141,0.304,0.141
		c0.092,0,0.185-0.032,0.26-0.097C8.419,8.683,8.438,8.431,8.295,8.263z M1.733,5.647C1.181,5.102,0.904,4.433,0.904,3.643
		c0-0.797,0.276-1.465,0.829-2.012C2.29,1.084,2.966,0.812,3.766,0.812c0.798,0,1.47,0.271,2.021,0.818
		c0.546,0.547,0.817,1.215,0.817,2.012c0,0.79-0.271,1.459-0.817,2.005C5.235,6.193,4.563,6.465,3.766,6.465
		C2.966,6.465,2.29,6.193,1.733,5.647z"/>
</g>
</svg>
