<?xml version="1.0" encoding="utf-8"?>
<!-- Generator: Adobe Illustrator 15.1.0, SVG Export Plug-In . SVG Version: 6.00 Build 0)  -->
<!DOCTYPE svg PUBLIC "-//W3C//DTD SVG 1.1//EN" "http://www.w3.org/Graphics/SVG/1.1/DTD/svg11.dtd">
<svg version="1.1" id="Layer_1" xmlns="http://www.w3.org/2000/svg" xmlns:xlink="http://www.w3.org/1999/xlink" x="0px" y="0px"
	 width="9px" height="9px" viewBox="0 0 9 9" enable-background="new 0 0 9 9" xml:space="preserve">
<path fill="#1A1A1A" d="M7.398,1.222C6.557,0.407,5.531,0,4.321,0C3.115,0,2.093,0.407,1.256,1.222S0,3.029,0,4.201
	c0,0.662,0.15,1.261,0.42,1.81C0.625,6.43,0.894,6.822,1.256,7.174c0.837,0.814,1.859,1.222,3.065,1.222
	c1.21,0,2.236-0.407,3.077-1.222c0.364-0.353,0.634-0.744,0.84-1.163C8.509,5.462,8.66,4.863,8.66,4.201
	C8.66,3.029,8.239,2.036,7.398,1.222z M7.398,4.846C6.557,4.032,5.531,3.625,4.321,3.625c-1.206,0-2.228,0.407-3.065,1.221
	C1.17,4.93,1.107,5.024,1.029,5.112C0.953,4.823,0.9,4.524,0.9,4.201c0-0.956,0.333-1.762,1-2.419s1.48-0.984,2.444-0.984
	c0.957,0,1.768,0.327,2.427,0.984s0.988,1.463,0.988,2.419c0,0.325-0.053,0.625-0.129,0.917C7.551,5.028,7.486,4.932,7.398,4.846z"
	/>
</svg>
