<?xml version="1.0" encoding="utf-8"?>
<!-- Generator: Adobe Illustrator 15.1.0, SVG Export Plug-In . SVG Version: 6.00 Build 0)  -->
<!DOCTYPE svg PUBLIC "-//W3C//DTD SVG 1.1//EN" "http://www.w3.org/Graphics/SVG/1.1/DTD/svg11.dtd">
<svg version="1.1" id="Layer_1" xmlns="http://www.w3.org/2000/svg" xmlns:xlink="http://www.w3.org/1999/xlink" x="0px" y="0px"
	 width="9px" height="9px" viewBox="0 0 9 9" enable-background="new 0 0 9 9" xml:space="preserve">
<path fill="#1A1A1A" d="M8.294,8.263L6.48,6.142c0.679-0.693,1.026-1.522,1.026-2.499c0-1.019-0.364-1.878-1.094-2.582
	C5.685,0.354,4.796,0,3.746,0C2.701,0,1.813,0.354,1.088,1.061C0.361,1.765,0,2.624,0,3.643c0,1.012,0.361,1.87,1.088,2.578
	c0.726,0.707,1.613,1.06,2.658,1.06c0.803,0,1.509-0.21,2.124-0.622l1.816,2.124C7.766,8.875,7.878,8.923,7.99,8.923
	c0.092,0,0.185-0.032,0.26-0.097C8.418,8.683,8.438,8.431,8.294,8.263z M3.233,6.222C3.23,6.295,3.227,6.353,3.223,6.417
	c-0.567-0.098-1.064-0.353-1.49-0.77C1.18,5.102,0.903,4.433,0.903,3.643c0-0.797,0.276-1.465,0.829-2.013
	c0.426-0.418,0.923-0.672,1.49-0.769C3.227,0.926,3.23,0.984,3.233,1.057c0.037,0.707,0.055,1.567,0.055,2.585
	C3.288,4.656,3.271,5.515,3.233,6.222z M4.271,6.222c-0.036-0.707-0.054-1.565-0.054-2.58c0-1.018,0.018-1.878,0.054-2.585
	c0.004-0.073,0.008-0.132,0.013-0.198C4.857,0.954,5.359,1.207,5.785,1.63c0.546,0.548,0.818,1.216,0.818,2.013
	c0,0.79-0.272,1.459-0.818,2.005C5.359,6.07,4.857,6.324,4.283,6.419C4.279,6.354,4.275,6.296,4.271,6.222z"/>
</svg>
