<?xml version="1.0" encoding="utf-8"?>
<!-- Generator: Adobe Illustrator 15.1.0, SVG Export Plug-In . SVG Version: 6.00 Build 0)  -->
<!DOCTYPE svg PUBLIC "-//W3C//DTD SVG 1.1//EN" "http://www.w3.org/Graphics/SVG/1.1/DTD/svg11.dtd">
<svg version="1.1" id="Layer_1" xmlns="http://www.w3.org/2000/svg" xmlns:xlink="http://www.w3.org/1999/xlink" x="0px" y="0px"
	 width="40px" height="9px" viewBox="0 0 40 9" enable-background="new 0 0 40 9" xml:space="preserve">
<path fill="#1A1A1A" d="M38.933,3.036H15.955c-0.188-0.797-0.585-1.537-1.233-2.198c-0.233-0.237-0.613-0.24-0.849-0.009
	c-0.236,0.232-0.24,0.612-0.009,0.849c0.417,0.425,0.692,0.877,0.856,1.358h-2.303c-0.192-0.677-0.542-1.287-1.086-1.814
	C10.491,0.407,9.464,0,8.254,0C7.048,0,6.026,0.407,5.189,1.222C4.548,1.845,4.158,2.574,4.007,3.406
	C3.46,3.504,2.957,3.647,2.512,3.852C2.014,4.08,1.575,4.374,1.194,4.729c-0.38,0.356-0.681,0.755-0.899,1.195
	c-0.29,0.588-0.366,1.142-0.228,1.665c0.139,0.521,0.467,0.91,0.983,1.167c0.463,0.228,0.934,0.263,1.416,0.103
	c0.48-0.161,0.836-0.47,1.065-0.931c0.22-0.445,0.258-0.896,0.113-1.351C3.5,6.123,3.211,5.788,2.779,5.574
	C2.49,5.431,2.163,5.362,1.796,5.367c0.365-0.359,0.766-0.631,1.202-0.815c0.285-0.119,0.606-0.204,0.943-0.273
	c0.012,0.63,0.152,1.207,0.411,1.733c0.205,0.419,0.474,0.811,0.836,1.163c0.837,0.814,1.859,1.222,3.065,1.222
	c1.21,0,2.236-0.407,3.077-1.222c0.364-0.353,0.634-0.744,0.84-1.163c0.235-0.477,0.359-0.999,0.393-1.56h2.293
	c-0.086,0.708-0.368,1.335-0.879,1.905c-0.221,0.247-0.2,0.627,0.047,0.848c0.115,0.103,0.258,0.152,0.4,0.152
	c0.165,0,0.329-0.067,0.447-0.199c0.705-0.789,1.103-1.7,1.194-2.706h22.866c0.384,0,0.694-0.316,0.694-0.709
	C39.627,3.353,39.317,3.036,38.933,3.036z M2.226,6.202c0.286,0.142,0.476,0.339,0.569,0.59c0.094,0.25,0.074,0.51-0.057,0.774
	C2.609,7.824,2.421,8.001,2.172,8.09c-0.248,0.089-0.498,0.071-0.75-0.054C1.14,7.896,0.958,7.684,0.879,7.395
	C0.797,7.105,0.833,6.808,0.988,6.497C1.063,6.344,1.14,6.213,1.225,6.1c0.236-0.032,0.427-0.042,0.567-0.027
	C1.936,6.087,2.079,6.13,2.226,6.202z M11.564,5.118c-0.079-0.09-0.145-0.186-0.232-0.271c-0.841-0.814-1.867-1.222-3.077-1.222
	c-1.206,0-2.229,0.407-3.065,1.222C5.103,4.931,5.041,5.024,4.962,5.112C4.886,4.823,4.833,4.524,4.833,4.201
	c0-0.956,0.333-1.762,1-2.419s1.48-0.984,2.444-0.984c0.957,0,1.768,0.327,2.427,0.984s0.988,1.463,0.988,2.419
	C11.693,4.526,11.64,4.827,11.564,5.118z"/>
</svg>
