<?xml version="1.0" encoding="utf-8"?>
<!-- Generator: Adobe Illustrator 15.1.0, SVG Export Plug-In . SVG Version: 6.00 Build 0)  -->
<!DOCTYPE svg PUBLIC "-//W3C//DTD SVG 1.1//EN" "http://www.w3.org/Graphics/SVG/1.1/DTD/svg11.dtd">
<svg version="1.1" id="Layer_1" xmlns="http://www.w3.org/2000/svg" xmlns:xlink="http://www.w3.org/1999/xlink" x="0px" y="0px"
	 width="14px" height="13px" viewBox="0 0 14 13" enable-background="new 0 0 14 13" xml:space="preserve">
<g>
	<path fill="#1A1A1A" d="M8.176,4.755c-0.336,0-0.621,0.112-0.855,0.343C7.088,5.324,6.971,5.6,6.971,5.926
		c0,0.327,0.117,0.603,0.35,0.83c0.234,0.227,0.52,0.342,0.855,0.342c0.338,0,0.625-0.115,0.858-0.342
		c0.235-0.228,0.353-0.503,0.353-0.83c0-0.326-0.117-0.603-0.353-0.828C8.801,4.868,8.514,4.755,8.176,4.755z"/>
	<path fill="#1A1A1A" d="M13.534,11.501c0.201-0.222,0.365-0.466,0.443-0.753c0.033-0.128-0.043-0.258-0.17-0.293
		c-0.131-0.03-0.258,0.042-0.293,0.169c-0.053,0.195-0.158,0.362-0.287,0.518l-0.449-0.525c0.299-0.298,0.506-0.647,0.613-1.045
		c0.043-0.16-0.051-0.324-0.211-0.368c-0.164-0.039-0.324,0.053-0.369,0.212c-0.074,0.28-0.234,0.514-0.438,0.729l-0.43-0.503
		c0.43-0.42,0.684-0.929,0.73-1.526c0.016-0.192-0.129-0.361-0.322-0.376c-0.193-0.023-0.361,0.129-0.375,0.321
		c-0.033,0.412-0.197,0.757-0.486,1.052l-0.584-0.684c0.679-0.693,1.025-1.523,1.025-2.499c0-1.019-0.363-1.878-1.093-2.582
		C10.11,2.641,9.221,2.287,8.172,2.287c-1.045,0-1.933,0.354-2.658,1.061c-0.596,0.577-0.933,1.264-1.04,2.051
		C4.025,5.251,3.393,4.946,3.051,4.324c-0.229-0.42-0.311-0.942-0.325-1.463c0.417,0.041,0.833,0.125,1.241,0.297
		c0.227,0.093,0.494-0.011,0.59-0.241c0.096-0.229-0.012-0.492-0.242-0.589C3.803,2.112,3.278,2.008,2.754,1.963
		c0.08-0.77,0.252-1.374,0.256-1.386c0.07-0.238-0.066-0.488-0.304-0.559C2.465-0.053,2.218,0.085,2.148,0.324
		C2.131,0.38,1.931,1.077,1.85,1.968C1.317,2.021,0.785,2.135,0.268,2.365c-0.228,0.101-0.33,0.366-0.229,0.593
		C0.113,3.126,0.277,3.226,0.45,3.226c0.062,0,0.123-0.013,0.182-0.039c0.39-0.173,0.79-0.263,1.191-0.313
		c0.019,0.649,0.134,1.321,0.44,1.882c0.558,1.021,1.614,1.424,2.199,1.575c0.086,0.837,0.425,1.566,1.052,2.177
		c0.726,0.707,1.613,1.06,2.658,1.06c0.802,0,1.509-0.21,2.124-0.623l0.536,0.627C10.497,9.722,10.129,9.79,9.713,9.76
		C9.518,9.767,9.354,9.894,9.34,10.086c-0.012,0.193,0.135,0.359,0.326,0.373c0.08,0.005,0.158,0.008,0.236,0.008
		c0.512,0,0.98-0.115,1.402-0.344l0.422,0.494c-0.217,0.1-0.443,0.176-0.689,0.203c-0.164,0.018-0.283,0.166-0.266,0.331
		c0.018,0.153,0.146,0.267,0.299,0.267c0.01,0,0.021,0,0.033-0.002c0.367-0.04,0.701-0.17,1.016-0.339l0.465,0.543
		c-0.152,0.062-0.312,0.104-0.482,0.122c-0.131,0.015-0.227,0.134-0.211,0.265c0.012,0.121,0.117,0.212,0.236,0.212
		c0.01,0,0.018,0,0.027-0.002c0.266-0.029,0.51-0.117,0.742-0.231l0.084,0.099c0.078,0.093,0.191,0.141,0.303,0.141
		c0.092,0,0.186-0.032,0.26-0.097c0.168-0.144,0.188-0.396,0.045-0.563L13.534,11.501z M6.159,7.934
		c-0.553-0.546-0.83-1.215-0.83-2.005c0-0.797,0.277-1.465,0.83-2.012C6.715,3.371,7.391,3.099,8.19,3.099s1.471,0.271,2.021,0.818
		c0.546,0.547,0.817,1.215,0.817,2.012c0,0.79-0.271,1.459-0.817,2.005C9.661,8.48,8.989,8.751,8.19,8.751S6.715,8.48,6.159,7.934z"
		/>
</g>
</svg>
