<?xml version="1.0" encoding="utf-8"?>
<!-- Generator: Adobe Illustrator 15.1.0, SVG Export Plug-In . SVG Version: 6.00 Build 0)  -->
<!DOCTYPE svg PUBLIC "-//W3C//DTD SVG 1.1//EN" "http://www.w3.org/Graphics/SVG/1.1/DTD/svg11.dtd">
<svg version="1.1" id="Layer_1" xmlns="http://www.w3.org/2000/svg" xmlns:xlink="http://www.w3.org/1999/xlink" x="0px" y="0px"
	 width="9px" height="9px" viewBox="0 0 9 9" enable-background="new 0 0 9 9" xml:space="preserve">
<path fill="#1A1A1A" d="M8.295,8.263L6.48,6.142c0.68-0.693,1.027-1.522,1.027-2.499c0-1.019-0.365-1.878-1.094-2.582
	C5.684,0.354,4.797,0,3.746,0C2.701,0,1.814,0.354,1.088,1.061C0.361,1.765,0,2.624,0,3.643c0,1.012,0.361,1.87,1.088,2.578
	c0.727,0.707,1.613,1.06,2.658,1.06c0.803,0,1.51-0.21,2.123-0.622l1.818,2.124C7.766,8.875,7.879,8.923,7.99,8.923
	c0.092,0,0.186-0.032,0.26-0.097C8.418,8.683,8.438,8.431,8.295,8.263z M1.732,5.647C1.18,5.102,0.904,4.433,0.904,3.643
	c0-0.797,0.275-1.465,0.828-2.012c0.557-0.547,1.232-0.818,2.033-0.818c0.797,0,1.469,0.271,2.02,0.818
	c0.547,0.547,0.818,1.215,0.818,2.012c0,0.79-0.271,1.459-0.818,2.005c-0.551,0.546-1.223,0.817-2.02,0.817
	C2.965,6.465,2.289,6.193,1.732,5.647z"/>
</svg>
