<?xml version="1.0" encoding="utf-8"?>
<!-- Generator: Adobe Illustrator 15.1.0, SVG Export Plug-In . SVG Version: 6.00 Build 0)  -->
<!DOCTYPE svg PUBLIC "-//W3C//DTD SVG 1.1//EN" "http://www.w3.org/Graphics/SVG/1.1/DTD/svg11.dtd">
<svg version="1.1" id="Layer_1" xmlns="http://www.w3.org/2000/svg" xmlns:xlink="http://www.w3.org/1999/xlink" x="0px" y="0px"
	 width="8px" height="8px" viewBox="0 0 8 8" enable-background="new 0 0 8 8" xml:space="preserve">
<path fill="#1A1A1A" d="M3.746,0c1.051,0,1.938,0.354,2.668,1.061c0.729,0.705,1.094,1.564,1.094,2.582
	c0,1.012-0.364,1.87-1.094,2.578C5.685,6.928,4.797,7.28,3.746,7.28c-1.045,0-1.932-0.353-2.658-1.06C0.361,5.513,0,4.655,0,3.643
	c0-1.018,0.361-1.877,1.088-2.582C1.814,0.354,2.701,0,3.746,0z M3.766,6.465c0.797,0,1.47-0.271,2.02-0.818
	c0.547-0.546,0.818-1.214,0.818-2.005c0-0.796-0.271-1.465-0.818-2.012c-0.55-0.547-1.223-0.818-2.02-0.818
	c-0.801,0-1.477,0.271-2.032,0.818C1.18,2.178,0.904,2.846,0.904,3.643c0,0.791,0.275,1.459,0.829,2.005
	C2.289,6.194,2.965,6.465,3.766,6.465z"/>
</svg>
