<?xml version="1.0" encoding="utf-8"?>
<!-- Generator: Adobe Illustrator 15.1.0, SVG Export Plug-In . SVG Version: 6.00 Build 0)  -->
<!DOCTYPE svg PUBLIC "-//W3C//DTD SVG 1.1//EN" "http://www.w3.org/Graphics/SVG/1.1/DTD/svg11.dtd">
<svg version="1.1" id="Layer_1" xmlns="http://www.w3.org/2000/svg" xmlns:xlink="http://www.w3.org/1999/xlink" x="0px" y="0px"
	 width="41px" height="11px" viewBox="0 0 41 11" enable-background="new 0 0 41 11" xml:space="preserve">
<path fill="#1A1A1A" d="M39.767,4.654H16.789c-0.188-0.797-0.585-1.537-1.233-2.198c-0.233-0.237-0.613-0.24-0.849-0.009
	c-0.236,0.232-0.24,0.612-0.009,0.849c0.417,0.425,0.692,0.877,0.856,1.358h-2.306c-0.16-0.54-0.42-1.037-0.8-1.483
	c-0.094-0.11-0.176-0.227-0.283-0.331c-0.841-0.814-1.867-1.222-3.077-1.222c-1.206,0-2.229,0.407-3.065,1.222
	C5.916,2.944,5.834,3.06,5.741,3.17C5.176,3.836,4.862,4.61,4.795,5.489C4.4,5.4,3.488,5.119,3.052,4.324
	c-0.229-0.42-0.312-0.942-0.326-1.463C3.143,2.902,3.56,2.986,3.968,3.158C4.195,3.25,4.461,3.147,4.557,2.917
	c0.096-0.229-0.012-0.492-0.241-0.589C3.803,2.112,3.279,2.008,2.754,1.963c0.08-0.77,0.253-1.374,0.257-1.386
	c0.07-0.238-0.066-0.488-0.305-0.559C2.465-0.053,2.218,0.085,2.148,0.324C2.131,0.38,1.931,1.077,1.85,1.968
	C1.317,2.021,0.785,2.135,0.268,2.365c-0.228,0.101-0.33,0.366-0.229,0.593C0.113,3.126,0.277,3.226,0.45,3.226
	c0.062,0,0.123-0.013,0.182-0.039c0.39-0.173,0.79-0.263,1.191-0.313c0.019,0.649,0.134,1.321,0.44,1.882
	C2.988,6.079,4.544,6.368,4.822,6.41c0.121,0.912,0.511,1.711,1.201,2.383c0.837,0.814,1.859,1.222,3.065,1.222
	c1.21,0,2.236-0.407,3.077-1.222c0.778-0.754,1.18-1.666,1.238-2.723h2.287c-0.086,0.708-0.368,1.335-0.879,1.905
	c-0.221,0.247-0.2,0.627,0.047,0.848c0.115,0.103,0.258,0.152,0.4,0.152c0.165,0,0.329-0.067,0.447-0.199
	c0.705-0.789,1.103-1.7,1.194-2.706h22.866c0.384,0,0.694-0.316,0.694-0.709C40.461,4.97,40.151,4.654,39.767,4.654z M11.539,8.232
	c-0.659,0.657-1.47,0.984-2.427,0.984c-0.964,0-1.777-0.327-2.444-0.984s-1-1.461-1-2.413c0-0.786,0.238-1.465,0.689-2.049
	c0.772,0.622,1.678,0.952,2.731,0.952c1.062,0,1.974-0.333,2.751-0.96c0.45,0.586,0.688,1.267,0.688,2.057
	C12.527,6.771,12.198,7.575,11.539,8.232z"/>
</svg>
