<?xml version="1.0" encoding="utf-8"?>
<!-- Generator: Adobe Illustrator 15.1.0, SVG Export Plug-In . SVG Version: 6.00 Build 0)  -->
<!DOCTYPE svg PUBLIC "-//W3C//DTD SVG 1.1//EN" "http://www.w3.org/Graphics/SVG/1.1/DTD/svg11.dtd">
<svg version="1.1" id="Layer_1" xmlns="http://www.w3.org/2000/svg" xmlns:xlink="http://www.w3.org/1999/xlink" x="0px" y="0px"
	 width="12px" height="9px" viewBox="0 0 12 9" enable-background="new 0 0 12 9" xml:space="preserve">
<path fill="#1A1A1A" d="M10.006,1.061C9.278,0.354,8.389,0,7.339,0C6.293,0,5.407,0.354,4.68,1.061
	C4.164,1.562,3.84,2.146,3.692,2.805C3.27,2.901,2.869,3.019,2.512,3.182C2.014,3.411,1.575,3.705,1.194,4.059
	c-0.379,0.356-0.68,0.755-0.898,1.195C0.004,5.842-0.072,6.396,0.067,6.919C0.206,7.44,0.534,7.83,1.051,8.086
	c0.463,0.228,0.934,0.263,1.416,0.103c0.48-0.161,0.836-0.47,1.064-0.931c0.22-0.445,0.258-0.896,0.113-1.351
	C3.5,5.454,3.211,5.119,2.78,4.905C2.491,4.761,2.163,4.693,1.797,4.698c0.365-0.359,0.766-0.631,1.201-0.815
	c0.187-0.078,0.39-0.14,0.598-0.197C3.607,4.678,3.965,5.523,4.68,6.221c0.727,0.707,1.613,1.06,2.659,1.06
	c1.05,0,1.938-0.353,2.667-1.06C10.736,5.513,11.1,4.655,11.1,3.643C11.1,2.625,10.736,1.765,10.006,1.061z M2.227,5.533
	c0.285,0.142,0.475,0.339,0.568,0.59c0.094,0.25,0.074,0.51-0.057,0.774C2.61,7.155,2.422,7.332,2.172,7.42
	c-0.248,0.089-0.498,0.071-0.75-0.054c-0.281-0.14-0.463-0.353-0.543-0.642C0.797,6.436,0.834,6.138,0.989,5.828
	C1.063,5.674,1.141,5.543,1.225,5.43c0.236-0.032,0.428-0.042,0.568-0.027C1.936,5.417,2.079,5.46,2.227,5.533z M10.091,4.146
	C9.34,3.417,8.418,3.051,7.338,3.051c-1.078,0-1.994,0.366-2.745,1.095C4.576,4.163,4.563,4.182,4.547,4.2
	C4.514,4.02,4.497,3.832,4.497,3.636c0-0.796,0.275-1.465,0.828-2.012c0.557-0.547,1.232-0.817,2.033-0.817
	c0.798,0,1.47,0.271,2.02,0.817c0.547,0.547,0.818,1.216,0.818,2.012c0,0.199-0.018,0.39-0.051,0.573
	C10.126,4.188,10.112,4.165,10.091,4.146z"/>
</svg>
