<?xml version="1.0" encoding="utf-8"?>
<!-- Generator: Adobe Illustrator 15.1.0, SVG Export Plug-In . SVG Version: 6.00 Build 0)  -->
<!DOCTYPE svg PUBLIC "-//W3C//DTD SVG 1.1//EN" "http://www.w3.org/Graphics/SVG/1.1/DTD/svg11.dtd">
<svg version="1.1" id="Layer_1" xmlns="http://www.w3.org/2000/svg" xmlns:xlink="http://www.w3.org/1999/xlink" x="0px" y="0px"
	 width="12px" height="9px" viewBox="0 0 12 9" enable-background="new 0 0 12 9" xml:space="preserve">
<path fill="#1A1A1A" d="M11.887,8.263l-1.814-2.122c0.68-0.692,1.027-1.522,1.027-2.499c0-1.018-0.365-1.877-1.096-2.582
	C9.278,0.354,8.389,0,7.338,0C6.293,0,5.407,0.354,4.68,1.06C4.163,1.562,3.838,2.147,3.69,2.809
	C3.268,2.903,2.868,3.02,2.512,3.183C2.014,3.411,1.575,3.705,1.194,4.06c-0.379,0.356-0.68,0.755-0.898,1.195
	C0.004,5.843-0.072,6.396,0.067,6.92C0.206,7.44,0.534,7.83,1.051,8.087C1.514,8.314,1.985,8.35,2.467,8.189
	c0.48-0.161,0.836-0.47,1.064-0.931C3.752,6.813,3.79,6.363,3.645,5.908C3.5,5.454,3.211,5.119,2.78,4.905
	C2.491,4.762,2.163,4.693,1.797,4.698c0.365-0.359,0.766-0.631,1.201-0.815c0.186-0.077,0.389-0.139,0.598-0.191
	C3.608,4.682,3.965,5.524,4.68,6.22c0.727,0.707,1.613,1.059,2.658,1.059c0.803,0,1.51-0.209,2.123-0.621l1.818,2.125
	c0.078,0.093,0.191,0.141,0.303,0.141c0.092,0,0.186-0.032,0.26-0.097C12.01,8.683,12.03,8.431,11.887,8.263z M2.227,5.533
	c0.285,0.142,0.475,0.339,0.568,0.59c0.094,0.25,0.074,0.51-0.057,0.774C2.61,7.155,2.422,7.332,2.172,7.421
	C1.924,7.51,1.674,7.492,1.422,7.367c-0.281-0.14-0.463-0.353-0.543-0.642C0.797,6.437,0.834,6.139,0.989,5.828
	c0.074-0.153,0.152-0.284,0.236-0.397c0.236-0.032,0.428-0.042,0.568-0.027C1.936,5.418,2.079,5.461,2.227,5.533z M8.194,6.107
	c-0.555,0-1.027-0.24-1.408-0.721c-0.387-0.476-0.576-1.06-0.576-1.745c0-0.688,0.189-1.273,0.576-1.748
	c0.381-0.479,0.854-0.721,1.408-0.721c0.553,0,1.023,0.241,1.412,0.721c0.385,0.475,0.578,1.06,0.578,1.748
	c0,0.686-0.193,1.27-0.578,1.745C9.217,5.867,8.747,6.107,8.194,6.107z"/>
</svg>
