<?xml version="1.0" encoding="utf-8"?>
<!-- Generator: Adobe Illustrator 15.1.0, SVG Export Plug-In . SVG Version: 6.00 Build 0)  -->
<!DOCTYPE svg PUBLIC "-//W3C//DTD SVG 1.1//EN" "http://www.w3.org/Graphics/SVG/1.1/DTD/svg11.dtd">
<svg version="1.1" id="Layer_1" xmlns="http://www.w3.org/2000/svg" xmlns:xlink="http://www.w3.org/1999/xlink" x="0px" y="0px"
	 width="13px" height="12px" viewBox="0 0 13 12" enable-background="new 0 0 13 12" xml:space="preserve">
<path fill="#1A1A1A" d="M12.72,10.549l-1.814-2.122c0.68-0.692,1.027-1.522,1.027-2.499c0-1.018-0.364-1.877-1.095-2.582
	c-0.727-0.706-1.616-1.06-2.666-1.06c-1.045,0-1.933,0.354-2.658,1.06c-0.596,0.577-0.933,1.265-1.04,2.052
	C4.025,5.25,3.393,4.946,3.052,4.324c-0.229-0.42-0.312-0.942-0.326-1.463C3.143,2.902,3.56,2.986,3.968,3.158
	C4.195,3.25,4.461,3.147,4.557,2.917c0.096-0.229-0.012-0.492-0.241-0.589C3.803,2.112,3.279,2.008,2.754,1.963
	c0.08-0.77,0.253-1.374,0.257-1.386c0.07-0.238-0.066-0.488-0.305-0.559C2.465-0.053,2.218,0.085,2.148,0.324
	C2.131,0.38,1.931,1.077,1.85,1.968C1.317,2.021,0.785,2.135,0.268,2.365c-0.228,0.101-0.33,0.366-0.229,0.593
	C0.113,3.126,0.277,3.226,0.45,3.226c0.062,0,0.123-0.013,0.182-0.039c0.39-0.173,0.79-0.263,1.191-0.313
	c0.019,0.649,0.134,1.321,0.44,1.882c0.559,1.021,1.614,1.424,2.199,1.575c0.087,0.837,0.425,1.566,1.052,2.176
	C6.24,9.213,7.127,9.565,8.172,9.565c0.803,0,1.51-0.209,2.123-0.621l1.817,2.125c0.079,0.093,0.191,0.141,0.304,0.141
	c0.092,0,0.185-0.032,0.26-0.097C12.844,10.969,12.864,10.717,12.72,10.549z M9.027,8.394c-0.555,0-1.026-0.24-1.408-0.721
	c-0.386-0.476-0.576-1.06-0.576-1.745c0-0.688,0.19-1.273,0.576-1.748C8,3.701,8.472,3.459,9.027,3.459
	c0.554,0,1.023,0.241,1.412,0.721c0.385,0.475,0.578,1.06,0.578,1.748c0,0.686-0.193,1.27-0.578,1.745
	C10.05,8.154,9.581,8.394,9.027,8.394z"/>
</svg>
