<?xml version="1.0" encoding="utf-8"?>
<!-- Generator: Adobe Illustrator 15.1.0, SVG Export Plug-In . SVG Version: 6.00 Build 0)  -->
<!DOCTYPE svg PUBLIC "-//W3C//DTD SVG 1.1//EN" "http://www.w3.org/Graphics/SVG/1.1/DTD/svg11.dtd">
<svg version="1.1" id="Layer_1" xmlns="http://www.w3.org/2000/svg" xmlns:xlink="http://www.w3.org/1999/xlink" x="0px" y="0px"
	 width="14px" height="10px" viewBox="0 0 14 10" enable-background="new 0 0 14 10" xml:space="preserve">
<path fill="#1A1A1A" d="M12.7,9.215c0.201-0.222,0.365-0.466,0.443-0.753c0.033-0.128-0.043-0.258-0.17-0.293
	c-0.131-0.03-0.258,0.042-0.293,0.169c-0.053,0.195-0.158,0.362-0.287,0.518L11.944,8.33c0.299-0.298,0.506-0.647,0.613-1.045
	c0.043-0.16-0.051-0.324-0.211-0.368c-0.164-0.039-0.324,0.053-0.369,0.212c-0.074,0.28-0.234,0.514-0.438,0.729l-0.43-0.503
	c0.43-0.42,0.684-0.929,0.73-1.526c0.016-0.192-0.129-0.361-0.322-0.376c-0.193-0.023-0.361,0.129-0.375,0.321
	c-0.033,0.412-0.197,0.757-0.486,1.052l-0.584-0.684c0.68-0.693,1.026-1.523,1.026-2.499c0-1.019-0.364-1.878-1.094-2.582
	C9.276,0.354,8.387,0,7.338,0C6.293,0,5.406,0.354,4.68,1.061C4.163,1.562,3.838,2.146,3.69,2.809
	C3.268,2.902,2.867,3.02,2.512,3.183C2.014,3.411,1.575,3.705,1.194,4.06c-0.38,0.356-0.681,0.755-0.899,1.195
	C0.004,5.843-0.072,6.396,0.067,6.92C0.206,7.44,0.534,7.83,1.05,8.087C1.513,8.314,1.984,8.35,2.466,8.189
	c0.48-0.161,0.836-0.47,1.065-0.931C3.75,6.813,3.79,6.363,3.645,5.908C3.5,5.454,3.211,5.119,2.779,4.905
	C2.49,4.762,2.163,4.693,1.796,4.698c0.365-0.359,0.766-0.631,1.202-0.815C3.184,3.806,3.386,3.744,3.596,3.69
	c0.012,0.99,0.369,1.834,1.084,2.53c0.726,0.707,1.613,1.06,2.658,1.06c0.802,0,1.509-0.21,2.124-0.623l0.536,0.627
	C9.663,7.436,9.295,7.503,8.879,7.474C8.684,7.48,8.52,7.607,8.506,7.8C8.495,7.993,8.641,8.159,8.833,8.173
	c0.08,0.005,0.158,0.008,0.236,0.008c0.512,0,0.98-0.115,1.402-0.344l0.422,0.494c-0.217,0.1-0.443,0.176-0.689,0.203
	C10.04,8.552,9.92,8.7,9.938,8.865c0.018,0.153,0.146,0.267,0.299,0.267c0.01,0,0.021,0,0.033-0.002
	c0.367-0.04,0.701-0.17,1.016-0.339l0.465,0.543c-0.152,0.062-0.312,0.104-0.482,0.122c-0.131,0.015-0.227,0.134-0.211,0.265
	c0.012,0.121,0.117,0.212,0.236,0.212c0.01,0,0.018,0,0.027-0.002c0.266-0.029,0.51-0.117,0.742-0.231l0.084,0.099
	c0.078,0.093,0.191,0.141,0.303,0.141c0.092,0,0.186-0.032,0.26-0.097c0.168-0.144,0.188-0.396,0.045-0.563L12.7,9.215z
	 M2.226,5.533c0.286,0.142,0.476,0.339,0.569,0.59c0.094,0.25,0.074,0.51-0.057,0.774c-0.13,0.258-0.317,0.435-0.566,0.523
	C1.924,7.51,1.674,7.492,1.422,7.367C1.14,7.228,0.958,7.015,0.879,6.726C0.797,6.437,0.833,6.139,0.988,5.828
	C1.063,5.675,1.14,5.544,1.225,5.431c0.236-0.032,0.427-0.042,0.567-0.027C1.936,5.418,2.079,5.461,2.226,5.533z M6.826,6.222
	C6.823,6.295,6.819,6.353,6.815,6.417c-0.568-0.098-1.064-0.353-1.49-0.77C4.772,5.102,4.496,4.433,4.496,3.643
	c0-0.797,0.276-1.465,0.829-2.013c0.426-0.418,0.922-0.672,1.49-0.769c0.004,0.064,0.008,0.123,0.011,0.195
	C6.863,1.764,6.88,2.624,6.88,3.642C6.88,4.656,6.863,5.515,6.826,6.222z M7.864,6.222C7.828,5.515,7.81,4.656,7.81,3.642
	c0-1.018,0.018-1.878,0.054-2.585c0.004-0.073,0.008-0.132,0.012-0.198C8.45,0.954,8.952,1.207,9.377,1.63
	c0.546,0.548,0.818,1.216,0.818,2.013c0,0.79-0.272,1.459-0.818,2.005C8.952,6.07,8.45,6.324,7.875,6.419
	C7.872,6.354,7.868,6.296,7.864,6.222z"/>
</svg>
