<?xml version="1.0" encoding="utf-8"?>
<!-- Generator: Adobe Illustrator 15.1.0, SVG Export Plug-In . SVG Version: 6.00 Build 0)  -->
<!DOCTYPE svg PUBLIC "-//W3C//DTD SVG 1.1//EN" "http://www.w3.org/Graphics/SVG/1.1/DTD/svg11.dtd">
<svg version="1.1" id="Layer_1" xmlns="http://www.w3.org/2000/svg" xmlns:xlink="http://www.w3.org/1999/xlink" x="0px" y="0px"
	 width="22px" height="9px" viewBox="0 0 22 9" enable-background="new 0 0 22 9" xml:space="preserve">
<path fill="#1A1A1A" d="M20.935,3.036h-8.516c-0.192-0.677-0.542-1.287-1.086-1.814C10.492,0.407,9.466,0,8.256,0
	C7.05,0,6.027,0.407,5.19,1.222c-0.64,0.623-1.031,1.353-1.182,2.184C3.461,3.504,2.957,3.647,2.513,3.852
	C2.015,4.08,1.575,4.374,1.194,4.729c-0.38,0.356-0.681,0.755-0.899,1.195c-0.29,0.588-0.366,1.142-0.228,1.665
	c0.139,0.521,0.467,0.91,0.983,1.167c0.463,0.228,0.934,0.263,1.416,0.103c0.48-0.161,0.836-0.47,1.065-0.931
	c0.22-0.445,0.258-0.896,0.113-1.351C3.501,6.123,3.212,5.788,2.779,5.574C2.49,5.431,2.163,5.362,1.797,5.367
	c0.365-0.359,0.766-0.631,1.202-0.815c0.286-0.119,0.607-0.204,0.944-0.273c0.012,0.63,0.152,1.207,0.411,1.733
	C4.56,6.431,4.828,6.822,5.19,7.175C6.027,7.989,7.05,8.396,8.256,8.396c1.21,0,2.236-0.407,3.077-1.222
	c0.364-0.353,0.634-0.744,0.84-1.163c0.235-0.477,0.359-0.999,0.393-1.56h8.369c0.384,0,0.694-0.316,0.694-0.709
	C21.629,3.353,21.318,3.036,20.935,3.036z M2.227,6.202c0.286,0.142,0.476,0.339,0.569,0.59c0.094,0.25,0.074,0.51-0.057,0.774
	C2.609,7.824,2.422,8.001,2.173,8.09c-0.248,0.089-0.498,0.071-0.75-0.054C1.141,7.896,0.959,7.684,0.88,7.395
	C0.798,7.105,0.834,6.808,0.988,6.497C1.063,6.344,1.141,6.213,1.226,6.1c0.236-0.032,0.427-0.042,0.567-0.027
	C1.937,6.087,2.079,6.13,2.227,6.202z M11.565,5.118c-0.079-0.09-0.145-0.186-0.232-0.271c-0.841-0.814-1.867-1.222-3.077-1.222
	c-1.206,0-2.229,0.407-3.065,1.222C5.104,4.931,5.042,5.024,4.964,5.112C4.888,4.823,4.835,4.524,4.835,4.201
	c0-0.956,0.333-1.762,1-2.419s1.48-0.984,2.444-0.984c0.957,0,1.768,0.327,2.427,0.984s0.988,1.463,0.988,2.419
	C11.694,4.526,11.642,4.827,11.565,5.118z"/>
</svg>
