<?xml version="1.0" encoding="utf-8"?>
<!-- Generator: Adobe Illustrator 15.1.0, SVG Export Plug-In . SVG Version: 6.00 Build 0)  -->
<!DOCTYPE svg PUBLIC "-//W3C//DTD SVG 1.1//EN" "http://www.w3.org/Graphics/SVG/1.1/DTD/svg11.dtd">
<svg version="1.1" id="Layer_1" xmlns="http://www.w3.org/2000/svg" xmlns:xlink="http://www.w3.org/1999/xlink" x="0px" y="0px"
	 width="23px" height="11px" viewBox="0 0 23 11" enable-background="new 0 0 23 11" xml:space="preserve">
<g>
	<path fill="#1A1A1A" d="M21.768,4.654h-8.516c-0.192-0.677-0.542-1.287-1.086-1.814c-0.841-0.814-1.867-1.222-3.077-1.222
		c-1.206,0-2.229,0.407-3.065,1.222C5.268,3.575,4.873,4.463,4.798,5.489C4.407,5.402,3.49,5.122,3.052,4.324
		c-0.229-0.42-0.312-0.942-0.326-1.463C3.143,2.902,3.56,2.986,3.968,3.158C4.195,3.25,4.461,3.147,4.557,2.917
		c0.096-0.229-0.012-0.492-0.241-0.589C3.803,2.112,3.279,2.008,2.754,1.963c0.08-0.77,0.253-1.374,0.257-1.386
		c0.07-0.238-0.066-0.488-0.305-0.559C2.465-0.053,2.218,0.085,2.148,0.324C2.131,0.38,1.931,1.077,1.85,1.968
		C1.317,2.021,0.785,2.135,0.268,2.365c-0.228,0.101-0.33,0.366-0.229,0.593C0.113,3.126,0.277,3.226,0.45,3.226
		c0.062,0,0.123-0.013,0.182-0.039c0.39-0.173,0.79-0.263,1.191-0.313c0.019,0.649,0.134,1.321,0.44,1.882
		c0.726,1.325,2.285,1.613,2.56,1.654c0.121,0.912,0.511,1.711,1.201,2.383c0.837,0.814,1.859,1.222,3.065,1.222
		c1.21,0,2.236-0.407,3.077-1.222c0.778-0.754,1.18-1.666,1.238-2.723h8.363c0.384,0,0.694-0.316,0.694-0.709
		C22.462,4.97,22.152,4.654,21.768,4.654z M11.54,8.232c-0.659,0.657-1.47,0.984-2.427,0.984c-0.964,0-1.777-0.327-2.444-0.984
		s-1-1.461-1-2.413c0-0.956,0.333-1.762,1-2.419s1.48-0.984,2.444-0.984c0.957,0,1.768,0.327,2.427,0.984s0.988,1.463,0.988,2.419
		C12.528,6.771,12.199,7.575,11.54,8.232z"/>
	<path fill="#1A1A1A" d="M9.095,4.266c-0.446,0-0.822,0.15-1.132,0.452C7.655,5.018,7.5,5.385,7.5,5.817
		c0,0.431,0.154,0.797,0.463,1.097c0.31,0.302,0.686,0.452,1.132,0.452s0.825-0.15,1.136-0.452c0.31-0.3,0.465-0.666,0.465-1.097
		c0-0.432-0.155-0.799-0.465-1.099C9.92,4.417,9.542,4.266,9.095,4.266z"/>
</g>
</svg>
