<?xml version="1.0" encoding="utf-8"?>
<!-- Generator: Adobe Illustrator 15.1.0, SVG Export Plug-In . SVG Version: 6.00 Build 0)  -->
<!DOCTYPE svg PUBLIC "-//W3C//DTD SVG 1.1//EN" "http://www.w3.org/Graphics/SVG/1.1/DTD/svg11.dtd">
<svg version="1.1" id="Layer_1" xmlns="http://www.w3.org/2000/svg" xmlns:xlink="http://www.w3.org/1999/xlink" x="0px" y="0px"
	 width="72px" height="9px" viewBox="0 0 72 9" enable-background="new 0 0 72 9" xml:space="preserve">
<path fill="#1A1A1A" d="M71.306,3.036H14.721c-0.188-0.797-0.585-1.537-1.233-2.198c-0.233-0.237-0.613-0.24-0.849-0.009
	c-0.236,0.232-0.24,0.612-0.009,0.849c0.417,0.425,0.692,0.877,0.856,1.358h-1.465c-0.188-0.797-0.585-1.537-1.233-2.198
	c-0.233-0.237-0.613-0.24-0.849-0.009c-0.236,0.232-0.24,0.612-0.009,0.849c0.417,0.425,0.692,0.877,0.856,1.358H8.484
	C8.292,2.359,7.942,1.749,7.398,1.222C6.691,0.537,5.846,0.158,4.878,0.049C4.694,0.028,4.514,0,4.321,0
	C4.134,0,3.959,0.028,3.78,0.048c-0.97,0.106-1.817,0.486-2.524,1.174C0.419,2.036,0,3.029,0,4.201C0,5.369,0.419,6.36,1.256,7.175
	C1.964,7.863,2.812,8.243,3.784,8.35c0.178,0.02,0.351,0.047,0.537,0.047c0.191,0,0.37-0.028,0.553-0.048
	C5.844,8.239,6.69,7.86,7.398,7.175c0.778-0.754,1.18-1.666,1.238-2.723h2.287c-0.086,0.708-0.368,1.335-0.879,1.905
	c-0.221,0.247-0.2,0.627,0.047,0.848c0.115,0.103,0.258,0.152,0.4,0.152c0.165,0,0.329-0.067,0.447-0.199
	c0.705-0.789,1.103-1.7,1.194-2.706h1.489c-0.086,0.708-0.368,1.335-0.879,1.905c-0.221,0.247-0.2,0.627,0.047,0.848
	c0.115,0.103,0.258,0.152,0.4,0.152c0.165,0,0.329-0.067,0.447-0.199c0.705-0.789,1.103-1.7,1.194-2.706h56.473
	C71.689,4.452,72,4.136,72,3.743C72,3.353,71.689,3.036,71.306,3.036z M3.815,7.552C3.081,7.451,2.44,7.146,1.9,6.614
	c-0.667-0.657-1-1.461-1-2.413c0-0.956,0.333-1.762,1-2.419c0.539-0.531,1.18-0.836,1.913-0.938
	c0.032,0.941,0.048,2.064,0.048,3.387C3.861,5.522,3.847,6.622,3.815,7.552z M6.771,6.614c-0.54,0.539-1.188,0.843-1.928,0.939
	c-0.03-0.93-0.047-2.03-0.047-3.322c0-1.324,0.018-2.447,0.048-3.389c0.74,0.097,1.387,0.401,1.927,0.939
	C7.431,2.439,7.76,3.245,7.76,4.201C7.76,5.153,7.431,5.957,6.771,6.614z"/>
</svg>
