<?xml version="1.0" encoding="utf-8"?>
<!-- Generator: Adobe Illustrator 15.1.0, SVG Export Plug-In . SVG Version: 6.00 Build 0)  -->
<!DOCTYPE svg PUBLIC "-//W3C//DTD SVG 1.1//EN" "http://www.w3.org/Graphics/SVG/1.1/DTD/svg11.dtd">
<svg version="1.1" id="Layer_1" xmlns="http://www.w3.org/2000/svg" xmlns:xlink="http://www.w3.org/1999/xlink" x="0px" y="0px"
	 width="9px" height="9px" viewBox="0 0 9 9" enable-background="new 0 0 9 9" xml:space="preserve">
<path fill="#1A1A1A" d="M7.714,7.584c0.532-0.49,0.844-1.09,0.899-1.801c0.018-0.221-0.146-0.414-0.367-0.43
	C8.003,5.316,7.834,5.5,7.816,5.721c-0.04,0.498-0.25,0.91-0.62,1.258L6.48,6.143c0.679-0.693,1.026-1.524,1.026-2.5
	c0-1.019-0.364-1.878-1.094-2.582C5.685,0.354,4.796,0,3.746,0C2.701,0,1.813,0.354,1.088,1.061C0.361,1.765,0,2.624,0,3.643
	c0,1.011,0.361,1.871,1.088,2.578c0.726,0.707,1.613,1.061,2.658,1.061c0.803,0,1.509-0.211,2.124-0.623l0.662,0.775
	c-0.387,0.18-0.813,0.26-1.29,0.221c-0.236,0-0.411,0.154-0.427,0.373c-0.015,0.221,0.152,0.41,0.372,0.426
	c0.092,0.006,0.183,0.01,0.271,0.01c0.588,0,1.126-0.137,1.61-0.402l0.617,0.723C7.766,8.875,7.878,8.924,7.99,8.924
	c0.092,0,0.185-0.033,0.26-0.098c0.168-0.143,0.188-0.395,0.044-0.562L7.714,7.584z M3.233,6.223
	C3.23,6.295,3.227,6.354,3.223,6.418c-0.567-0.098-1.064-0.354-1.49-0.77C1.18,5.102,0.903,4.433,0.903,3.643
	c0-0.797,0.276-1.465,0.829-2.013c0.426-0.418,0.923-0.672,1.49-0.769C3.227,0.926,3.23,0.984,3.233,1.057
	c0.037,0.707,0.055,1.567,0.055,2.585C3.288,4.656,3.271,5.516,3.233,6.223z M4.271,6.223C4.235,5.516,4.218,4.656,4.218,3.642
	c0-1.018,0.018-1.878,0.054-2.585c0.004-0.073,0.008-0.132,0.013-0.198C4.857,0.954,5.359,1.207,5.785,1.63
	c0.546,0.548,0.818,1.216,0.818,2.013c0,0.791-0.272,1.459-0.818,2.006C5.359,6.07,4.857,6.324,4.283,6.42
	C4.279,6.354,4.275,6.297,4.271,6.223z"/>
</svg>
