<?xml version="1.0" encoding="utf-8"?>
<!-- Generator: Adobe Illustrator 15.1.0, SVG Export Plug-In . SVG Version: 6.00 Build 0)  -->
<!DOCTYPE svg PUBLIC "-//W3C//DTD SVG 1.1//EN" "http://www.w3.org/Graphics/SVG/1.1/DTD/svg11.dtd">
<svg version="1.1" id="Layer_1" xmlns="http://www.w3.org/2000/svg" xmlns:xlink="http://www.w3.org/1999/xlink" x="0px" y="0px"
	 width="9px" height="9px" viewBox="0 0 9 9" enable-background="new 0 0 9 9" xml:space="preserve">
<path fill="#1A1A1A" d="M8.295,8.263L6.48,6.141c0.68-0.692,1.027-1.522,1.027-2.499c0-1.018-0.364-1.877-1.095-2.582
	C5.687,0.354,4.797,0,3.747,0C2.702,0,1.814,0.354,1.089,1.06C0.362,1.765,0,2.624,0,3.642C0,4.654,0.362,5.513,1.089,6.22
	c0.726,0.707,1.613,1.059,2.658,1.059c0.803,0,1.51-0.209,2.123-0.621l1.817,2.125c0.079,0.093,0.191,0.141,0.304,0.141
	c0.092,0,0.185-0.032,0.26-0.097C8.419,8.683,8.438,8.431,8.295,8.263z"/>
</svg>
