<?xml version="1.0" encoding="utf-8"?>
<!-- Generator: Adobe Illustrator 15.1.0, SVG Export Plug-In . SVG Version: 6.00 Build 0)  -->
<!DOCTYPE svg PUBLIC "-//W3C//DTD SVG 1.1//EN" "http://www.w3.org/Graphics/SVG/1.1/DTD/svg11.dtd">
<svg version="1.1" id="Layer_1" xmlns="http://www.w3.org/2000/svg" xmlns:xlink="http://www.w3.org/1999/xlink" x="0px" y="0px"
	 width="18px" height="9px" viewBox="0 0 18 9" enable-background="new 0 0 18 9" xml:space="preserve">
<path fill="#1A1A1A" d="M17,3.036H8.484C8.292,2.359,7.942,1.749,7.398,1.222C6.558,0.407,5.531,0,4.321,0
	C3.115,0,2.093,0.407,1.256,1.222S0,3.029,0,4.201c0,0.662,0.15,1.262,0.42,1.811c0.205,0.419,0.474,0.811,0.836,1.163
	c0.837,0.814,1.859,1.222,3.065,1.222c1.21,0,2.236-0.407,3.077-1.222c0.364-0.353,0.634-0.744,0.84-1.163
	c0.235-0.477,0.359-0.999,0.393-1.56H17c0.384,0,0.694-0.316,0.694-0.709C17.694,3.353,17.384,3.036,17,3.036z M7.631,5.118
	c-0.079-0.09-0.145-0.186-0.232-0.271C6.558,4.032,5.531,3.625,4.321,3.625c-1.206,0-2.229,0.407-3.065,1.222
	C1.17,4.931,1.107,5.024,1.029,5.112C0.953,4.823,0.9,4.524,0.9,4.201c0-0.956,0.333-1.762,1-2.419s1.48-0.984,2.444-0.984
	c0.957,0,1.768,0.327,2.427,0.984S7.76,3.245,7.76,4.201C7.76,4.526,7.707,4.827,7.631,5.118z"/>
</svg>
