<?xml version="1.0" encoding="utf-8"?>
<!-- Generator: Adobe Illustrator 15.1.0, SVG Export Plug-In . SVG Version: 6.00 Build 0)  -->
<!DOCTYPE svg PUBLIC "-//W3C//DTD SVG 1.1//EN" "http://www.w3.org/Graphics/SVG/1.1/DTD/svg11.dtd">
<svg version="1.1" id="Layer_1" xmlns="http://www.w3.org/2000/svg" xmlns:xlink="http://www.w3.org/1999/xlink" x="0px" y="0px"
	 width="14px" height="12px" viewBox="0 0 14 12" enable-background="new 0 0 14 12" xml:space="preserve">
<path fill="#1A1A1A" d="M12.846,10.695c0.318-0.322,0.541-0.699,0.654-1.125c0.047-0.178-0.057-0.361-0.234-0.408
	c-0.176-0.049-0.361,0.057-0.408,0.234c-0.08,0.297-0.248,0.545-0.461,0.773l-0.439-0.514c0.49-0.479,0.779-1.057,0.832-1.738
	c0.018-0.219-0.146-0.412-0.367-0.43c-0.238-0.016-0.412,0.146-0.43,0.367c-0.037,0.469-0.223,0.861-0.551,1.197l-0.535-0.625
	c0.68-0.693,1.027-1.523,1.027-2.5c0-1.017-0.365-1.876-1.096-2.582c-0.727-0.706-1.615-1.06-2.665-1.06
	c-1.045,0-1.933,0.354-2.659,1.06c-0.596,0.577-0.933,1.265-1.04,2.052C4.025,5.25,3.393,4.946,3.051,4.324
	c-0.229-0.42-0.311-0.942-0.325-1.463c0.417,0.041,0.833,0.125,1.241,0.297c0.227,0.093,0.494-0.011,0.59-0.241
	c0.096-0.229-0.012-0.492-0.242-0.589C3.803,2.112,3.278,2.008,2.754,1.963c0.08-0.77,0.252-1.374,0.256-1.386
	c0.07-0.238-0.066-0.488-0.304-0.559C2.465-0.053,2.218,0.085,2.148,0.324C2.131,0.38,1.931,1.077,1.85,1.968
	C1.317,2.021,0.785,2.135,0.268,2.365c-0.228,0.101-0.33,0.366-0.229,0.593C0.113,3.126,0.277,3.226,0.45,3.226
	c0.062,0,0.123-0.013,0.182-0.039c0.39-0.173,0.79-0.263,1.191-0.313c0.019,0.649,0.134,1.321,0.44,1.882
	C2.821,5.775,3.877,6.18,4.462,6.33c0.087,0.838,0.425,1.566,1.052,2.176C6.24,9.213,7.127,9.564,8.173,9.564
	c0.802,0,1.509-0.209,2.124-0.621l0.502,0.588c-0.408,0.213-0.865,0.299-1.381,0.26C9.17,9.795,9.006,9.943,8.992,10.162
	c-0.016,0.221,0.152,0.412,0.371,0.428c0.092,0.006,0.184,0.008,0.271,0.008c0.621,0,1.186-0.156,1.689-0.451l0.434,0.506
	c-0.252,0.129-0.516,0.227-0.814,0.26c-0.184,0.021-0.314,0.186-0.295,0.369c0.02,0.17,0.164,0.295,0.332,0.295
	c0.012,0,0.023,0,0.037-0.002c0.43-0.049,0.814-0.203,1.176-0.41l0.316,0.369c0.08,0.094,0.191,0.141,0.305,0.141
	c0.092,0,0.184-0.031,0.26-0.096c0.168-0.145,0.188-0.396,0.043-0.564L12.846,10.695z M9.027,8.395c-0.555,0-1.026-0.24-1.408-0.721
	C7.233,7.197,7.042,6.613,7.042,5.928c0-0.688,0.19-1.273,0.577-1.748c0.382-0.479,0.854-0.721,1.408-0.721
	c0.553,0,1.023,0.241,1.412,0.721c0.385,0.475,0.578,1.06,0.578,1.748c0,0.686-0.193,1.27-0.578,1.746
	C10.051,8.154,9.58,8.395,9.027,8.395z"/>
</svg>
