<?xml version="1.0" encoding="utf-8"?>
<!-- Generator: Adobe Illustrator 15.1.0, SVG Export Plug-In . SVG Version: 6.00 Build 0)  -->
<!DOCTYPE svg PUBLIC "-//W3C//DTD SVG 1.1//EN" "http://www.w3.org/Graphics/SVG/1.1/DTD/svg11.dtd">
<svg version="1.1" id="Layer_1" xmlns="http://www.w3.org/2000/svg" xmlns:xlink="http://www.w3.org/1999/xlink" x="0px" y="0px"
	 width="10px" height="10px" viewBox="0 0 10 10" enable-background="new 0 0 10 10" xml:space="preserve">
<path fill="#1A1A1A" d="M8.419,8.408C8.737,8.086,8.96,7.711,9.074,7.283c0.047-0.178-0.058-0.359-0.235-0.408
	c-0.175-0.049-0.36,0.059-0.408,0.236C8.351,7.406,8.183,7.654,7.97,7.883L7.531,7.371c0.49-0.479,0.778-1.059,0.832-1.738
	c0.018-0.221-0.146-0.415-0.367-0.43C7.758,5.185,7.584,5.349,7.566,5.57C7.529,6.039,7.343,6.432,7.015,6.766L6.481,6.143
	c0.679-0.694,1.025-1.524,1.025-2.5c0-1.019-0.364-1.878-1.094-2.582C5.685,0.354,4.796,0,3.746,0C2.701,0,1.813,0.354,1.088,1.061
	C0.361,1.765,0,2.624,0,3.643c0,1.011,0.361,1.871,1.088,2.578c0.726,0.707,1.613,1.061,2.658,1.061c0.803,0,1.51-0.211,2.124-0.623
	l0.503,0.588C5.964,7.457,5.508,7.545,4.992,7.504C4.744,7.508,4.58,7.656,4.565,7.877s0.152,0.41,0.372,0.426
	c0.092,0.006,0.183,0.01,0.271,0.01c0.62,0,1.185-0.156,1.689-0.453l0.433,0.508C7.08,8.496,6.815,8.594,6.517,8.627
	c-0.184,0.02-0.314,0.184-0.294,0.367c0.019,0.17,0.163,0.295,0.331,0.295c0.012,0,0.023,0,0.037-0.002
	c0.43-0.047,0.815-0.203,1.177-0.41l0.316,0.371C8.163,9.34,8.275,9.389,8.388,9.389c0.092,0,0.185-0.033,0.26-0.098
	c0.168-0.143,0.188-0.395,0.044-0.562L8.419,8.408z M3.233,6.223C3.23,6.295,3.227,6.354,3.223,6.418
	c-0.567-0.098-1.064-0.354-1.49-0.77C1.18,5.101,0.903,4.433,0.903,3.643c0-0.797,0.276-1.465,0.829-2.013
	c0.426-0.418,0.923-0.672,1.49-0.769C3.227,0.926,3.23,0.984,3.233,1.057c0.037,0.707,0.055,1.567,0.055,2.585
	C3.288,4.656,3.271,5.516,3.233,6.223z M4.271,6.223C4.235,5.516,4.218,4.656,4.218,3.642c0-1.018,0.018-1.878,0.054-2.585
	c0.004-0.073,0.008-0.132,0.013-0.198C4.857,0.954,5.359,1.207,5.785,1.63c0.546,0.548,0.818,1.216,0.818,2.013
	c0,0.791-0.272,1.458-0.818,2.006C5.359,6.07,4.857,6.324,4.283,6.42C4.279,6.354,4.275,6.297,4.271,6.223z"/>
</svg>
