<?xml version="1.0" encoding="utf-8"?>
<!-- Generator: Adobe Illustrator 15.1.0, SVG Export Plug-In . SVG Version: 6.00 Build 0)  -->
<!DOCTYPE svg PUBLIC "-//W3C//DTD SVG 1.1//EN" "http://www.w3.org/Graphics/SVG/1.1/DTD/svg11.dtd">
<svg version="1.1" id="Layer_1" xmlns="http://www.w3.org/2000/svg" xmlns:xlink="http://www.w3.org/1999/xlink" x="0px" y="0px"
	 width="40px" height="9px" viewBox="0 0 40 9" enable-background="new 0 0 40 9" xml:space="preserve">
<path fill="#1A1A1A" d="M38.933,3.035H15.955c-0.188-0.797-0.585-1.537-1.233-2.197c-0.233-0.238-0.613-0.24-0.849-0.01
	c-0.236,0.232-0.24,0.613-0.009,0.85c0.417,0.424,0.692,0.877,0.856,1.357h-2.303c-0.192-0.676-0.542-1.287-1.086-1.814
	c-0.707-0.684-1.553-1.062-2.521-1.172C8.627,0.027,8.447,0,8.254,0C8.067,0,7.892,0.027,7.713,0.047
	c-0.97,0.107-1.817,0.486-2.524,1.174C4.548,1.844,4.158,2.574,4.007,3.406C3.46,3.504,2.957,3.646,2.512,3.852
	C2.014,4.08,1.575,4.373,1.194,4.729c-0.38,0.355-0.681,0.754-0.899,1.195c-0.29,0.588-0.366,1.141-0.228,1.664
	c0.139,0.521,0.467,0.91,0.983,1.168c0.463,0.227,0.934,0.262,1.416,0.102c0.48-0.16,0.836-0.469,1.065-0.93
	c0.22-0.445,0.258-0.896,0.113-1.352C3.5,6.123,3.211,5.787,2.779,5.574C2.49,5.43,2.163,5.361,1.796,5.367
	c0.365-0.359,0.766-0.631,1.202-0.816C3.284,4.432,3.604,4.348,3.94,4.277c0.02,1.135,0.432,2.102,1.249,2.896
	C5.897,7.863,6.746,8.242,7.717,8.35c0.178,0.02,0.351,0.047,0.537,0.047c0.191,0,0.37-0.029,0.553-0.049
	c0.97-0.109,1.816-0.488,2.524-1.174c0.778-0.754,1.18-1.666,1.238-2.723h2.287c-0.086,0.709-0.368,1.336-0.879,1.906
	c-0.221,0.246-0.2,0.627,0.047,0.848c0.115,0.102,0.258,0.152,0.4,0.152c0.165,0,0.329-0.068,0.447-0.199
	c0.705-0.789,1.103-1.701,1.194-2.707h22.866c0.384,0,0.694-0.316,0.694-0.709C39.627,3.352,39.317,3.035,38.933,3.035z
	 M2.226,6.201c0.286,0.143,0.476,0.34,0.569,0.59s0.074,0.51-0.057,0.775C2.609,7.824,2.421,8,2.172,8.09
	c-0.248,0.088-0.498,0.07-0.75-0.055C1.14,7.896,0.958,7.684,0.879,7.395C0.797,7.105,0.833,6.807,0.988,6.496
	C1.063,6.344,1.14,6.213,1.225,6.1c0.236-0.033,0.427-0.043,0.567-0.027C1.936,6.086,2.079,6.129,2.226,6.201z M7.749,7.551
	c-0.734-0.1-1.375-0.404-1.915-0.938c-0.667-0.656-1-1.461-1-2.412c0-0.957,0.333-1.762,1-2.42c0.539-0.531,1.18-0.836,1.913-0.938
	C7.779,1.785,7.794,2.908,7.794,4.23C7.794,5.521,7.78,6.621,7.749,7.551z M10.705,6.613c-0.54,0.539-1.188,0.844-1.928,0.939
	C8.747,6.623,8.73,5.523,8.73,4.23c0-1.324,0.018-2.447,0.048-3.389c0.74,0.098,1.387,0.402,1.927,0.939
	c0.659,0.658,0.988,1.463,0.988,2.42C11.693,5.152,11.364,5.957,10.705,6.613z"/>
</svg>
