<?xml version="1.0" encoding="utf-8"?>
<!-- Generator: Adobe Illustrator 15.1.0, SVG Export Plug-In . SVG Version: 6.00 Build 0)  -->
<!DOCTYPE svg PUBLIC "-//W3C//DTD SVG 1.1//EN" "http://www.w3.org/Graphics/SVG/1.1/DTD/svg11.dtd">
<svg version="1.1" id="Layer_1" xmlns="http://www.w3.org/2000/svg" xmlns:xlink="http://www.w3.org/1999/xlink" x="0px" y="0px"
	 width="14px" height="13px" viewBox="0 0 14 13" enable-background="new 0 0 14 13" xml:space="preserve">
<path fill="#1A1A1A" d="M13.534,11.501c0.201-0.222,0.365-0.466,0.443-0.753c0.033-0.128-0.043-0.258-0.17-0.293
	c-0.131-0.03-0.258,0.042-0.293,0.169c-0.053,0.195-0.158,0.362-0.287,0.518l-0.449-0.525c0.299-0.298,0.506-0.647,0.613-1.045
	c0.043-0.16-0.051-0.324-0.211-0.368c-0.164-0.039-0.324,0.053-0.369,0.212c-0.074,0.28-0.234,0.514-0.438,0.729l-0.43-0.503
	c0.43-0.42,0.684-0.929,0.73-1.526c0.016-0.192-0.129-0.361-0.322-0.376c-0.193-0.023-0.361,0.129-0.375,0.321
	c-0.033,0.412-0.197,0.757-0.486,1.052l-0.584-0.685c0.68-0.692,1.026-1.522,1.026-2.499c0-1.018-0.364-1.877-1.095-2.582
	c-0.727-0.706-1.617-1.06-2.666-1.06c-1.045,0-1.933,0.354-2.658,1.06c-0.596,0.577-0.933,1.265-1.04,2.052
	C4.025,5.25,3.393,4.946,3.051,4.324c-0.229-0.42-0.311-0.942-0.325-1.463c0.417,0.041,0.833,0.125,1.241,0.297
	c0.227,0.093,0.494-0.011,0.59-0.241c0.096-0.229-0.012-0.492-0.242-0.589C3.803,2.112,3.278,2.008,2.754,1.963
	c0.08-0.77,0.252-1.374,0.256-1.386c0.07-0.238-0.066-0.488-0.304-0.559C2.465-0.053,2.218,0.085,2.148,0.324
	C2.131,0.38,1.931,1.077,1.85,1.968C1.317,2.021,0.785,2.135,0.268,2.365c-0.228,0.101-0.33,0.366-0.229,0.593
	C0.113,3.126,0.277,3.226,0.45,3.226c0.062,0,0.123-0.013,0.182-0.039c0.39-0.173,0.79-0.263,1.191-0.313
	c0.019,0.649,0.134,1.321,0.44,1.882c0.558,1.021,1.614,1.424,2.199,1.575c0.087,0.837,0.425,1.566,1.052,2.176
	C6.24,9.213,7.127,9.565,8.172,9.565c0.802,0,1.51-0.209,2.123-0.622l0.537,0.628C10.497,9.722,10.129,9.79,9.713,9.76
	C9.518,9.767,9.354,9.894,9.34,10.086c-0.012,0.193,0.135,0.359,0.326,0.373c0.08,0.005,0.158,0.008,0.236,0.008
	c0.512,0,0.98-0.115,1.402-0.344l0.422,0.494c-0.217,0.1-0.443,0.176-0.689,0.203c-0.164,0.018-0.283,0.166-0.266,0.331
	c0.018,0.153,0.146,0.267,0.299,0.267c0.01,0,0.021,0,0.033-0.002c0.367-0.04,0.701-0.17,1.016-0.339l0.465,0.543
	c-0.152,0.062-0.312,0.104-0.482,0.122c-0.131,0.015-0.227,0.134-0.211,0.265c0.012,0.121,0.117,0.212,0.236,0.212
	c0.01,0,0.018,0,0.027-0.002c0.266-0.029,0.51-0.117,0.742-0.231l0.084,0.099c0.078,0.093,0.191,0.141,0.303,0.141
	c0.092,0,0.186-0.032,0.26-0.097c0.168-0.144,0.188-0.396,0.045-0.563L13.534,11.501z M9.026,8.394c-0.555,0-1.025-0.24-1.408-0.721
	c-0.385-0.476-0.576-1.06-0.576-1.745c0-0.688,0.191-1.273,0.576-1.748C8,3.701,8.471,3.459,9.026,3.459s1.024,0.241,1.412,0.721
	c0.386,0.475,0.578,1.06,0.578,1.748c0,0.686-0.192,1.27-0.578,1.745C10.05,8.154,9.581,8.394,9.026,8.394z"/>
</svg>
