<?xml version="1.0" encoding="utf-8"?>
<!-- Generator: Adobe Illustrator 15.1.0, SVG Export Plug-In . SVG Version: 6.00 Build 0)  -->
<!DOCTYPE svg PUBLIC "-//W3C//DTD SVG 1.1//EN" "http://www.w3.org/Graphics/SVG/1.1/DTD/svg11.dtd">
<svg version="1.1" id="Layer_1" xmlns="http://www.w3.org/2000/svg" xmlns:xlink="http://www.w3.org/1999/xlink" x="0px" y="0px"
	 width="13px" height="10px" viewBox="0 0 13 10" enable-background="new 0 0 13 10" xml:space="preserve">
<path fill="#1A1A1A" d="M12.011,8.408c0.318-0.322,0.541-0.698,0.655-1.125c0.047-0.178-0.058-0.36-0.235-0.408
	c-0.175-0.049-0.36,0.058-0.408,0.235c-0.08,0.296-0.248,0.544-0.461,0.772L11.124,7.37c0.49-0.479,0.778-1.058,0.832-1.738
	c0.018-0.22-0.146-0.413-0.367-0.43c-0.238-0.017-0.412,0.146-0.43,0.367c-0.037,0.469-0.224,0.861-0.552,1.196l-0.533-0.624
	c0.679-0.693,1.025-1.523,1.025-2.499c0-1.019-0.364-1.878-1.094-2.582C9.276,0.354,8.388,0,7.338,0C6.293,0,5.406,0.354,4.68,1.061
	C4.163,1.562,3.838,2.147,3.69,2.809C3.268,2.903,2.867,3.02,2.512,3.183C2.014,3.411,1.575,3.705,1.194,4.06
	c-0.38,0.356-0.681,0.755-0.899,1.195C0.004,5.843-0.072,6.396,0.067,6.92C0.206,7.44,0.534,7.83,1.05,8.087
	C1.513,8.314,1.984,8.35,2.466,8.189c0.48-0.161,0.836-0.47,1.065-0.931C3.75,6.813,3.79,6.363,3.645,5.908
	C3.5,5.454,3.211,5.119,2.779,4.905C2.49,4.762,2.163,4.693,1.796,4.698c0.365-0.359,0.766-0.631,1.202-0.815
	c0.186-0.077,0.387-0.139,0.598-0.191C3.608,4.681,3.965,5.524,4.68,6.221c0.726,0.707,1.613,1.06,2.658,1.06
	c0.803,0,1.509-0.21,2.124-0.623l0.503,0.588C9.556,7.457,9.1,7.544,8.584,7.504C8.336,7.508,8.172,7.656,8.158,7.876
	C8.143,8.097,8.31,8.287,8.53,8.303c0.092,0.006,0.183,0.009,0.271,0.009c0.62,0,1.185-0.156,1.689-0.452l0.433,0.507
	c-0.251,0.129-0.516,0.227-0.814,0.26C9.925,8.646,9.794,8.811,9.815,8.994c0.019,0.17,0.163,0.295,0.331,0.295
	c0.012,0,0.023,0,0.037-0.002c0.43-0.048,0.815-0.203,1.177-0.41l0.316,0.37c0.079,0.093,0.191,0.141,0.304,0.141
	c0.092,0,0.185-0.032,0.26-0.097c0.168-0.144,0.188-0.396,0.044-0.563L12.011,8.408z M2.226,5.533
	c0.286,0.142,0.476,0.339,0.569,0.59c0.094,0.25,0.074,0.51-0.057,0.774c-0.13,0.258-0.317,0.435-0.566,0.523
	C1.924,7.51,1.674,7.492,1.422,7.367C1.14,7.228,0.958,7.015,0.879,6.726C0.797,6.437,0.833,6.139,0.988,5.828
	C1.063,5.675,1.14,5.544,1.225,5.431c0.236-0.032,0.427-0.042,0.567-0.027C1.936,5.418,2.079,5.461,2.226,5.533z M5.325,5.643
	C4.772,5.098,4.496,4.429,4.496,3.638c0-0.624,0.176-1.167,0.516-1.637C5.674,2.51,6.447,2.785,7.337,2.785
	c0.9,0,1.676-0.278,2.344-0.793c0.339,0.473,0.515,1.018,0.515,1.646c0,0.791-0.272,1.46-0.818,2.005
	c-0.55,0.547-1.223,0.818-2.021,0.818C6.557,6.461,5.881,6.189,5.325,5.643z"/>
</svg>
