<?xml version="1.0" encoding="utf-8"?>
<!-- Generator: Adobe Illustrator 15.1.0, SVG Export Plug-In . SVG Version: 6.00 Build 0)  -->
<!DOCTYPE svg PUBLIC "-//W3C//DTD SVG 1.1//EN" "http://www.w3.org/Graphics/SVG/1.1/DTD/svg11.dtd">
<svg version="1.1" id="Layer_1" xmlns="http://www.w3.org/2000/svg" xmlns:xlink="http://www.w3.org/1999/xlink" x="0px" y="0px"
	 width="9px" height="9px" viewBox="0 0 9 9" enable-background="new 0 0 9 9" xml:space="preserve">
<path fill="#1A1A1A" d="M4.321,0c1.21,0,2.236,0.407,3.077,1.222S8.66,3.029,8.66,4.201c0,1.167-0.421,2.159-1.262,2.973
	S5.531,8.396,4.321,8.396c-1.206,0-2.229-0.407-3.065-1.222S0,5.369,0,4.201c0-1.172,0.419-2.165,1.256-2.979S3.115,0,4.321,0z
	 M4.345,7.598c0.957,0,1.768-0.327,2.426-0.984C7.43,5.957,7.759,5.153,7.759,4.201c0-0.956-0.329-1.762-0.988-2.419
	C6.112,1.125,5.302,0.798,4.345,0.798c-0.964,0-1.777,0.327-2.444,0.984s-1,1.463-1,2.419c0,0.952,0.333,1.755,1,2.413
	S3.381,7.598,4.345,7.598z"/>
</svg>
