<?xml version="1.0" encoding="utf-8"?>
<!-- Generator: Adobe Illustrator 15.1.0, SVG Export Plug-In . SVG Version: 6.00 Build 0)  -->
<!DOCTYPE svg PUBLIC "-//W3C//DTD SVG 1.1//EN" "http://www.w3.org/Graphics/SVG/1.1/DTD/svg11.dtd">
<svg version="1.1" id="Layer_1" xmlns="http://www.w3.org/2000/svg" xmlns:xlink="http://www.w3.org/1999/xlink" x="0px" y="0px"
	 width="8px" height="8px" viewBox="0 0 8 8" enable-background="new 0 0 8 8" xml:space="preserve">
<path fill="#1A1A1A" d="M6.413,1.059C5.686,0.353,4.797,0,3.747,0C2.701,0,1.814,0.353,1.088,1.059C0.362,1.765,0,2.624,0,3.641
	c0,1.013,0.362,1.872,1.088,2.578c0.727,0.707,1.613,1.059,2.659,1.059c1.05,0,1.938-0.352,2.666-1.059
	c0.73-0.707,1.095-1.565,1.095-2.578C7.508,2.624,7.144,1.765,6.413,1.059z M6.014,5.386c-0.389,0.48-0.859,0.721-1.412,0.721
	c-0.555,0-1.027-0.24-1.408-0.721C2.808,4.911,2.617,4.327,2.617,3.641c0-0.688,0.19-1.273,0.576-1.748
	c0.381-0.479,0.854-0.721,1.408-0.721c0.553,0,1.023,0.242,1.412,0.721c0.385,0.475,0.578,1.06,0.578,1.748
	C6.592,4.327,6.398,4.911,6.014,5.386z"/>
</svg>
