<?xml version="1.0" encoding="utf-8"?>
<!-- Generator: Adobe Illustrator 15.1.0, SVG Export Plug-In . SVG Version: 6.00 Build 0)  -->
<!DOCTYPE svg PUBLIC "-//W3C//DTD SVG 1.1//EN" "http://www.w3.org/Graphics/SVG/1.1/DTD/svg11.dtd">
<svg version="1.1" id="Layer_1" xmlns="http://www.w3.org/2000/svg" xmlns:xlink="http://www.w3.org/1999/xlink" x="0px" y="0px"
	 width="22px" height="9px" viewBox="0 0 22 9" enable-background="new 0 0 22 9" xml:space="preserve">
<path fill="#1A1A1A" d="M20.935,3.036h-8.519c-0.16-0.54-0.42-1.037-0.8-1.483c-0.094-0.11-0.176-0.227-0.283-0.331
	C10.492,0.407,9.466,0,8.256,0C7.05,0,6.027,0.407,5.19,1.222C5.083,1.326,5.002,1.442,4.908,1.553
	C4.444,2.1,4.144,2.716,4.013,3.404c-0.549,0.099-1.055,0.242-1.5,0.447C2.015,4.08,1.575,4.374,1.194,4.729
	c-0.38,0.356-0.681,0.755-0.899,1.195c-0.29,0.588-0.366,1.142-0.228,1.665c0.139,0.521,0.467,0.91,0.983,1.167
	c0.463,0.228,0.934,0.263,1.416,0.103c0.48-0.161,0.836-0.47,1.065-0.931c0.22-0.445,0.258-0.896,0.113-1.351
	C3.501,6.123,3.212,5.788,2.779,5.574C2.49,5.431,2.163,5.362,1.797,5.367c0.365-0.359,0.766-0.631,1.202-0.815
	c0.285-0.119,0.605-0.204,0.942-0.273C3.96,5.412,4.373,6.379,5.19,7.175C6.027,7.989,7.05,8.396,8.256,8.396
	c1.21,0,2.236-0.407,3.077-1.222c0.778-0.754,1.18-1.666,1.238-2.723h8.363c0.384,0,0.694-0.316,0.694-0.709
	C21.629,3.353,21.318,3.036,20.935,3.036z M2.227,6.202c0.286,0.142,0.476,0.339,0.569,0.59c0.094,0.25,0.074,0.51-0.057,0.774
	C2.609,7.824,2.422,8.001,2.173,8.09c-0.248,0.089-0.498,0.071-0.75-0.054C1.141,7.896,0.959,7.684,0.88,7.395
	C0.798,7.105,0.834,6.808,0.988,6.497C1.063,6.344,1.141,6.213,1.226,6.1c0.236-0.032,0.427-0.042,0.567-0.027
	C1.937,6.087,2.079,6.13,2.227,6.202z M10.706,6.614c-0.659,0.657-1.47,0.984-2.427,0.984c-0.964,0-1.777-0.327-2.444-0.984
	s-1-1.461-1-2.413c0-0.786,0.238-1.465,0.689-2.049c0.772,0.622,1.678,0.952,2.731,0.952c1.062,0,1.974-0.333,2.751-0.96
	c0.45,0.586,0.688,1.267,0.688,2.057C11.694,5.153,11.365,5.957,10.706,6.614z"/>
</svg>
