<?xml version="1.0" encoding="utf-8"?>
<!-- Generator: Adobe Illustrator 15.1.0, SVG Export Plug-In . SVG Version: 6.00 Build 0)  -->
<!DOCTYPE svg PUBLIC "-//W3C//DTD SVG 1.1//EN" "http://www.w3.org/Graphics/SVG/1.1/DTD/svg11.dtd">
<svg version="1.1" id="Layer_1" xmlns="http://www.w3.org/2000/svg" xmlns:xlink="http://www.w3.org/1999/xlink" x="0px" y="0px"
	 width="9px" height="9px" viewBox="0 0 9 9" enable-background="new 0 0 9 9" xml:space="preserve">
<path fill="#1A1A1A" d="M7.715,7.584c0.532-0.49,0.844-1.091,0.899-1.802c0.018-0.22-0.146-0.413-0.367-0.43
	C8.004,5.315,7.835,5.499,7.817,5.72c-0.04,0.499-0.25,0.91-0.62,1.259L6.48,6.141c0.68-0.692,1.027-1.522,1.027-2.499
	c0-1.018-0.364-1.877-1.095-2.582C5.687,0.354,4.797,0,3.747,0C2.702,0,1.814,0.354,1.089,1.06C0.362,1.765,0,2.624,0,3.642
	C0,4.654,0.362,5.513,1.089,6.22c0.726,0.707,1.613,1.059,2.658,1.059c0.803,0,1.51-0.209,2.123-0.621l0.663,0.775
	C6.146,7.613,5.72,7.693,5.243,7.654C5.007,7.653,4.832,7.808,4.816,8.026C4.802,8.247,4.969,8.438,5.188,8.453
	C5.28,8.459,5.371,8.462,5.46,8.462c0.588,0,1.126-0.136,1.61-0.401l0.617,0.722c0.079,0.093,0.191,0.141,0.304,0.141
	c0.092,0,0.185-0.032,0.26-0.097c0.168-0.144,0.188-0.396,0.044-0.563L7.715,7.584z"/>
</svg>
