<?xml version="1.0" encoding="utf-8"?>
<!-- Generator: Adobe Illustrator 15.1.0, SVG Export Plug-In . SVG Version: 6.00 Build 0)  -->
<!DOCTYPE svg PUBLIC "-//W3C//DTD SVG 1.1//EN" "http://www.w3.org/Graphics/SVG/1.1/DTD/svg11.dtd">
<svg version="1.1" id="Layer_1" xmlns="http://www.w3.org/2000/svg" xmlns:xlink="http://www.w3.org/1999/xlink" x="0px" y="0px"
	 width="72px" height="9px" viewBox="0 0 72 9" enable-background="new 0 0 72 9" xml:space="preserve">
<path fill="#1A1A1A" d="M71.306,3.036H14.721c-0.188-0.797-0.585-1.537-1.233-2.198c-0.233-0.237-0.613-0.24-0.849-0.009
	c-0.236,0.232-0.24,0.612-0.009,0.849c0.417,0.425,0.692,0.877,0.856,1.358h-1.465c-0.188-0.797-0.585-1.537-1.233-2.198
	c-0.233-0.237-0.613-0.24-0.849-0.009c-0.236,0.232-0.24,0.612-0.009,0.849c0.417,0.425,0.692,0.877,0.856,1.358H8.484
	C8.292,2.359,7.942,1.749,7.398,1.222C6.558,0.407,5.531,0,4.321,0C3.115,0,2.093,0.407,1.256,1.222S0,3.029,0,4.201
	c0,0.662,0.15,1.262,0.42,1.811c0.205,0.419,0.474,0.811,0.836,1.163c0.837,0.814,1.859,1.222,3.065,1.222
	c1.21,0,2.236-0.407,3.077-1.222c0.364-0.353,0.634-0.744,0.84-1.163c0.235-0.477,0.359-0.999,0.393-1.56h2.293
	c-0.086,0.708-0.368,1.335-0.879,1.905c-0.221,0.247-0.2,0.627,0.047,0.848c0.115,0.103,0.258,0.152,0.4,0.152
	c0.165,0,0.329-0.067,0.447-0.199c0.705-0.789,1.103-1.7,1.194-2.706h1.489c-0.086,0.708-0.368,1.335-0.879,1.905
	c-0.221,0.247-0.2,0.627,0.047,0.848c0.115,0.103,0.258,0.152,0.4,0.152c0.165,0,0.329-0.067,0.447-0.199
	c0.705-0.789,1.103-1.7,1.194-2.706h56.473C71.689,4.452,72,4.136,72,3.743C72,3.353,71.689,3.036,71.306,3.036z M7.631,5.118
	c-0.079-0.09-0.145-0.186-0.232-0.271C6.558,4.032,5.531,3.625,4.321,3.625c-1.206,0-2.229,0.407-3.065,1.222
	C1.17,4.931,1.107,5.024,1.029,5.112C0.953,4.823,0.9,4.524,0.9,4.201c0-0.956,0.333-1.762,1-2.419s1.48-0.984,2.444-0.984
	c0.957,0,1.768,0.327,2.427,0.984S7.76,3.245,7.76,4.201C7.76,4.526,7.707,4.827,7.631,5.118z"/>
</svg>
