<?xml version="1.0" encoding="utf-8"?>
<!-- Generator: Adobe Illustrator 15.1.0, SVG Export Plug-In . SVG Version: 6.00 Build 0)  -->
<!DOCTYPE svg PUBLIC "-//W3C//DTD SVG 1.1//EN" "http://www.w3.org/Graphics/SVG/1.1/DTD/svg11.dtd">
<svg version="1.1" id="Layer_1" xmlns="http://www.w3.org/2000/svg" xmlns:xlink="http://www.w3.org/1999/xlink" x="0px" y="0px"
	 width="40px" height="9px" viewBox="0 0 40 9" enable-background="new 0 0 40 9" xml:space="preserve">
<path fill="#1A1A1A" d="M38.933,3.036H15.955c-0.188-0.797-0.585-1.537-1.233-2.198c-0.233-0.237-0.613-0.24-0.849-0.009
	c-0.236,0.232-0.24,0.612-0.009,0.849c0.417,0.425,0.692,0.877,0.856,1.358h-2.306c-0.16-0.54-0.42-1.037-0.8-1.483
	c-0.094-0.11-0.176-0.227-0.283-0.331C10.491,0.407,9.464,0,8.254,0C7.048,0,6.026,0.407,5.189,1.222
	C5.082,1.326,5,1.442,4.907,1.553C4.443,2.1,4.142,2.716,4.011,3.404C3.462,3.503,2.958,3.646,2.512,3.852
	C2.014,4.08,1.575,4.374,1.194,4.729c-0.38,0.356-0.681,0.755-0.899,1.195c-0.29,0.588-0.366,1.142-0.228,1.665
	c0.139,0.521,0.467,0.91,0.983,1.167c0.463,0.228,0.934,0.263,1.416,0.103c0.48-0.161,0.836-0.47,1.065-0.931
	c0.22-0.445,0.258-0.896,0.113-1.351C3.5,6.123,3.211,5.788,2.779,5.574C2.49,5.431,2.163,5.362,1.796,5.367
	c0.365-0.359,0.766-0.631,1.202-0.815C3.284,4.433,3.604,4.348,3.94,4.278c0.02,1.134,0.432,2.101,1.249,2.896
	c0.837,0.814,1.859,1.222,3.065,1.222c1.21,0,2.236-0.407,3.077-1.222c0.778-0.754,1.18-1.666,1.238-2.723h2.287
	c-0.086,0.708-0.368,1.335-0.879,1.905c-0.221,0.247-0.2,0.627,0.047,0.848c0.115,0.103,0.258,0.152,0.4,0.152
	c0.165,0,0.329-0.067,0.447-0.199c0.705-0.789,1.103-1.7,1.194-2.706h22.866c0.384,0,0.694-0.316,0.694-0.709
	C39.627,3.353,39.317,3.036,38.933,3.036z M2.226,6.202c0.286,0.142,0.476,0.339,0.569,0.59c0.094,0.25,0.074,0.51-0.057,0.774
	C2.609,7.824,2.421,8.001,2.172,8.09c-0.248,0.089-0.498,0.071-0.75-0.054C1.14,7.896,0.958,7.684,0.879,7.395
	C0.797,7.105,0.833,6.808,0.988,6.497C1.063,6.344,1.14,6.213,1.225,6.1c0.236-0.032,0.427-0.042,0.567-0.027
	C1.936,6.087,2.079,6.13,2.226,6.202z M10.705,6.614c-0.659,0.657-1.47,0.984-2.427,0.984c-0.964,0-1.777-0.327-2.444-0.984
	s-1-1.461-1-2.413c0-0.786,0.238-1.465,0.689-2.049c0.772,0.622,1.678,0.952,2.731,0.952c1.062,0,1.974-0.333,2.751-0.96
	c0.45,0.586,0.688,1.267,0.688,2.057C11.693,5.153,11.364,5.957,10.705,6.614z"/>
</svg>
