<?xml version="1.0" encoding="utf-8"?>
<!-- Generator: Adobe Illustrator 15.1.0, SVG Export Plug-In . SVG Version: 6.00 Build 0)  -->
<!DOCTYPE svg PUBLIC "-//W3C//DTD SVG 1.1//EN" "http://www.w3.org/Graphics/SVG/1.1/DTD/svg11.dtd">
<svg version="1.1" id="Layer_1" xmlns="http://www.w3.org/2000/svg" xmlns:xlink="http://www.w3.org/1999/xlink" x="0px" y="0px"
	 width="22px" height="9px" viewBox="0 0 22 9" enable-background="new 0 0 22 9" xml:space="preserve">
<path fill="#1A1A1A" d="M20.935,3.035h-8.516c-0.192-0.676-0.542-1.287-1.086-1.814C10.626,0.537,9.78,0.158,8.812,0.049
	C8.629,0.027,8.448,0,8.256,0C8.068,0,7.894,0.027,7.715,0.047C6.745,0.154,5.897,0.533,5.19,1.221
	c-0.64,0.623-1.031,1.354-1.182,2.184c-0.548,0.1-1.052,0.242-1.496,0.447C2.015,4.08,1.575,4.373,1.194,4.729
	c-0.38,0.355-0.681,0.754-0.899,1.195c-0.29,0.588-0.366,1.141-0.228,1.664c0.139,0.521,0.467,0.91,0.983,1.168
	c0.463,0.227,0.934,0.262,1.416,0.102c0.48-0.16,0.836-0.469,1.065-0.93c0.22-0.445,0.258-0.896,0.113-1.352
	C3.501,6.123,3.212,5.787,2.779,5.574C2.49,5.43,2.163,5.361,1.797,5.367c0.365-0.359,0.766-0.631,1.202-0.816
	c0.285-0.119,0.605-0.203,0.942-0.273C3.96,5.412,4.373,6.379,5.19,7.174C5.898,7.863,6.747,8.242,7.719,8.35
	c0.178,0.02,0.351,0.047,0.537,0.047c0.191,0,0.37-0.029,0.553-0.049c0.97-0.109,1.816-0.488,2.524-1.174
	c0.778-0.754,1.18-1.666,1.238-2.723h8.363c0.384,0,0.694-0.316,0.694-0.709C21.629,3.352,21.318,3.035,20.935,3.035z M2.227,6.201
	c0.286,0.143,0.476,0.34,0.569,0.59s0.074,0.51-0.057,0.775C2.609,7.824,2.422,8,2.173,8.09c-0.248,0.088-0.498,0.07-0.75-0.055
	C1.141,7.896,0.959,7.684,0.88,7.395C0.798,7.105,0.834,6.807,0.988,6.496C1.063,6.344,1.141,6.213,1.226,6.1
	c0.236-0.033,0.427-0.043,0.567-0.027C1.937,6.086,2.079,6.129,2.227,6.201z M7.75,7.551c-0.734-0.1-1.375-0.404-1.915-0.938
	c-0.667-0.656-1-1.461-1-2.412c0-0.957,0.333-1.762,1-2.42c0.539-0.531,1.18-0.836,1.913-0.938C7.78,1.785,7.796,2.908,7.796,4.23
	C7.796,5.521,7.781,6.621,7.75,7.551z M10.706,6.613c-0.54,0.539-1.188,0.844-1.928,0.939c-0.03-0.93-0.047-2.029-0.047-3.322
	c0-1.324,0.018-2.447,0.048-3.389c0.74,0.098,1.387,0.402,1.927,0.939c0.659,0.658,0.988,1.463,0.988,2.42
	C11.694,5.152,11.365,5.957,10.706,6.613z"/>
</svg>
