<?xml version="1.0" encoding="utf-8"?>
<!-- Generator: Adobe Illustrator 15.1.0, SVG Export Plug-In . SVG Version: 6.00 Build 0)  -->
<!DOCTYPE svg PUBLIC "-//W3C//DTD SVG 1.1//EN" "http://www.w3.org/Graphics/SVG/1.1/DTD/svg11.dtd">
<svg version="1.1" id="Layer_1" xmlns="http://www.w3.org/2000/svg" xmlns:xlink="http://www.w3.org/1999/xlink" x="0px" y="0px"
	 width="8px" height="8px" viewBox="0 0 8 8" enable-background="new 0 0 8 8" xml:space="preserve">
<path fill="#1A1A1A" d="M6.414,1.061C5.686,0.354,4.797,0,3.747,0C2.701,0,1.814,0.354,1.088,1.061C0.362,1.765,0,2.625,0,3.643
	c0,1.012,0.362,1.87,1.088,2.578c0.727,0.707,1.613,1.06,2.659,1.06c1.05,0,1.938-0.353,2.667-1.06
	c0.729-0.708,1.094-1.566,1.094-2.578C7.508,2.625,7.144,1.765,6.414,1.061z M1.732,1.624c0.557-0.547,1.232-0.817,2.033-0.817
	c0.798,0,1.47,0.271,2.02,0.817c0.547,0.547,0.818,1.216,0.818,2.012c0,0.199-0.018,0.39-0.051,0.573
	C6.534,4.188,6.52,4.165,6.499,4.146C5.748,3.417,4.826,3.051,3.746,3.051c-1.078,0-1.994,0.366-2.745,1.095
	C0.983,4.163,0.971,4.182,0.955,4.2C0.922,4.02,0.904,3.832,0.904,3.636C0.904,2.839,1.18,2.171,1.732,1.624z"/>
</svg>
