<?xml version="1.0" encoding="utf-8"?>
<!-- Generator: Adobe Illustrator 15.1.0, SVG Export Plug-In . SVG Version: 6.00 Build 0)  -->
<!DOCTYPE svg PUBLIC "-//W3C//DTD SVG 1.1//EN" "http://www.w3.org/Graphics/SVG/1.1/DTD/svg11.dtd">
<svg version="1.1" id="Layer_1" xmlns="http://www.w3.org/2000/svg" xmlns:xlink="http://www.w3.org/1999/xlink" x="0px" y="0px"
	 width="10px" height="10px" viewBox="0 0 10 10" enable-background="new 0 0 10 10" xml:space="preserve">
<path fill="#1A1A1A" d="M8.42,8.408C8.738,8.086,8.961,7.71,9.075,7.283c0.047-0.178-0.058-0.36-0.235-0.408
	C8.665,6.826,8.479,6.933,8.432,7.11c-0.08,0.296-0.248,0.544-0.461,0.772L7.532,7.37c0.49-0.479,0.778-1.058,0.832-1.738
	c0.018-0.22-0.146-0.413-0.367-0.43c-0.238-0.017-0.412,0.146-0.43,0.367C7.53,6.038,7.344,6.431,7.016,6.766L6.481,6.141
	c0.68-0.692,1.026-1.522,1.026-2.499c0-1.018-0.364-1.877-1.095-2.582C5.687,0.354,4.797,0,3.747,0C2.702,0,1.814,0.354,1.089,1.06
	C0.362,1.765,0,2.624,0,3.642C0,4.654,0.362,5.513,1.089,6.22c0.726,0.707,1.613,1.059,2.658,1.059c0.803,0,1.51-0.209,2.124-0.622
	l0.503,0.589C5.965,7.457,5.509,7.544,4.993,7.504C4.745,7.508,4.581,7.656,4.566,7.876C4.552,8.097,4.719,8.287,4.938,8.303
	C5.03,8.309,5.121,8.312,5.21,8.312c0.62,0,1.185-0.156,1.689-0.452l0.433,0.507c-0.251,0.129-0.516,0.227-0.814,0.26
	C6.334,8.646,6.203,8.811,6.224,8.994c0.019,0.17,0.163,0.295,0.331,0.295c0.012,0,0.023,0,0.037-0.002
	c0.43-0.048,0.815-0.203,1.177-0.41l0.316,0.37C8.164,9.34,8.276,9.388,8.389,9.388c0.092,0,0.185-0.032,0.26-0.097
	c0.168-0.144,0.188-0.396,0.044-0.563L8.42,8.408z"/>
</svg>
