<?xml version="1.0" encoding="utf-8"?>
<!-- Generator: Adobe Illustrator 15.1.0, SVG Export Plug-In . SVG Version: 6.00 Build 0)  -->
<!DOCTYPE svg PUBLIC "-//W3C//DTD SVG 1.1//EN" "http://www.w3.org/Graphics/SVG/1.1/DTD/svg11.dtd">
<svg version="1.1" id="Layer_1" xmlns="http://www.w3.org/2000/svg" xmlns:xlink="http://www.w3.org/1999/xlink" x="0px" y="0px"
	 width="14px" height="12px" viewBox="0 0 14 12" enable-background="new 0 0 14 12" xml:space="preserve">
<path fill="#1A1A1A" d="M12.14,9.871c0.532-0.49,0.844-1.091,0.899-1.802c0.018-0.22-0.146-0.413-0.367-0.43
	c-0.243-0.037-0.412,0.146-0.43,0.367c-0.04,0.499-0.25,0.91-0.62,1.259l-0.716-0.837c0.679-0.693,1.026-1.522,1.026-2.499
	c0-1.019-0.364-1.878-1.094-2.582C10.11,2.641,9.222,2.287,8.172,2.287c-1.045,0-1.933,0.354-2.658,1.061
	c-0.596,0.576-0.933,1.264-1.04,2.051C4.025,5.25,3.393,4.946,3.052,4.324c-0.229-0.42-0.312-0.942-0.326-1.463
	C3.143,2.902,3.56,2.986,3.968,3.158C4.195,3.25,4.461,3.147,4.557,2.917c0.096-0.229-0.012-0.492-0.241-0.589
	C3.803,2.112,3.279,2.008,2.754,1.963c0.08-0.77,0.253-1.374,0.257-1.386c0.07-0.238-0.066-0.488-0.305-0.559
	C2.465-0.053,2.218,0.085,2.148,0.324C2.131,0.38,1.931,1.077,1.85,1.968C1.317,2.021,0.785,2.135,0.268,2.365
	c-0.228,0.101-0.33,0.366-0.229,0.593C0.113,3.126,0.277,3.226,0.45,3.226c0.062,0,0.123-0.013,0.182-0.039
	c0.39-0.173,0.79-0.263,1.191-0.313c0.019,0.649,0.134,1.321,0.44,1.882c0.559,1.021,1.614,1.424,2.199,1.575
	c0.086,0.837,0.425,1.566,1.052,2.177c0.726,0.707,1.613,1.06,2.658,1.06c0.803,0,1.509-0.21,2.123-0.622l0.663,0.774
	C10.572,9.9,10.145,9.98,9.668,9.941c-0.236-0.001-0.411,0.153-0.427,0.372c-0.015,0.221,0.152,0.411,0.372,0.427
	c0.092,0.006,0.183,0.009,0.271,0.009c0.588,0,1.126-0.136,1.61-0.401l0.617,0.722c0.079,0.093,0.191,0.141,0.304,0.141
	c0.092,0,0.185-0.032,0.26-0.097c0.168-0.144,0.188-0.396,0.044-0.563L12.14,9.871z M6.159,7.929C5.606,7.384,5.33,6.715,5.33,5.924
	c0-0.624,0.176-1.167,0.516-1.637c0.663,0.509,1.436,0.784,2.326,0.784c0.9,0,1.676-0.278,2.344-0.793
	c0.339,0.473,0.515,1.018,0.515,1.646c0,0.791-0.272,1.46-0.818,2.005c-0.55,0.547-1.223,0.818-2.021,0.818
	C7.391,8.748,6.715,8.476,6.159,7.929z"/>
</svg>
