<?xml version="1.0" encoding="utf-8"?>
<!-- Generator: Adobe Illustrator 15.1.0, SVG Export Plug-In . SVG Version: 6.00 Build 0)  -->
<!DOCTYPE svg PUBLIC "-//W3C//DTD SVG 1.1//EN" "http://www.w3.org/Graphics/SVG/1.1/DTD/svg11.dtd">
<svg version="1.1" id="Layer_1" xmlns="http://www.w3.org/2000/svg" xmlns:xlink="http://www.w3.org/1999/xlink" x="0px" y="0px"
	 width="9px" height="9px" viewBox="0 0 9 9" enable-background="new 0 0 9 9" xml:space="preserve">
<path fill="#1A1A1A" d="M7.681,1.553c-0.094-0.11-0.176-0.227-0.283-0.331C6.557,0.407,5.531,0,4.321,0
	C3.115,0,2.093,0.407,1.256,1.222C1.148,1.326,1.067,1.442,0.974,1.553C0.338,2.303,0,3.18,0,4.201C0,5.369,0.419,6.36,1.256,7.174
	s1.859,1.222,3.065,1.222c1.209,0,2.236-0.407,3.077-1.222S8.66,5.369,8.66,4.201C8.66,3.18,8.32,2.303,7.681,1.553z M6.771,6.614
	c-0.659,0.657-1.47,0.984-2.426,0.984c-0.964,0-1.777-0.327-2.444-0.984s-1-1.461-1-2.413c0-0.786,0.238-1.465,0.689-2.049
	c0.772,0.622,1.678,0.952,2.731,0.952c1.061,0,1.973-0.333,2.75-0.96c0.45,0.586,0.688,1.267,0.688,2.057
	C7.759,5.153,7.43,5.957,6.771,6.614z"/>
</svg>
