<?xml version="1.0" encoding="utf-8"?>
<!-- Generator: Adobe Illustrator 15.1.0, SVG Export Plug-In . SVG Version: 6.00 Build 0)  -->
<!DOCTYPE svg PUBLIC "-//W3C//DTD SVG 1.1//EN" "http://www.w3.org/Graphics/SVG/1.1/DTD/svg11.dtd">
<svg version="1.1" id="Layer_1" xmlns="http://www.w3.org/2000/svg" xmlns:xlink="http://www.w3.org/1999/xlink" x="0px" y="0px"
	 width="8px" height="8px" viewBox="0 0 8 8" enable-background="new 0 0 8 8" xml:space="preserve">
<path fill="#1A1A1A" d="M6.414,1.061C5.685,0.354,4.797,0,3.747,0C2.701,0,1.814,0.354,1.088,1.061C0.362,1.765,0,2.625,0,3.643
	c0,1.012,0.362,1.87,1.088,2.578c0.727,0.707,1.613,1.06,2.659,1.06c1.05,0,1.938-0.353,2.667-1.06
	c0.729-0.708,1.094-1.566,1.094-2.578C7.508,2.625,7.144,1.765,6.414,1.061z M5.785,5.643c-0.549,0.546-1.222,0.818-2.02,0.818
	c-0.801,0-1.477-0.271-2.032-0.818C1.18,5.098,0.904,4.429,0.904,3.638c0-0.624,0.176-1.167,0.516-1.637
	C2.083,2.51,2.855,2.786,3.746,2.786c0.9,0,1.676-0.278,2.344-0.793C6.428,2.465,6.604,3.01,6.604,3.638
	C6.604,4.429,6.332,5.098,5.785,5.643z"/>
</svg>
