<?xml version="1.0" encoding="utf-8"?>
<!-- Generator: Adobe Illustrator 15.1.0, SVG Export Plug-In . SVG Version: 6.00 Build 0)  -->
<!DOCTYPE svg PUBLIC "-//W3C//DTD SVG 1.1//EN" "http://www.w3.org/Graphics/SVG/1.1/DTD/svg11.dtd">
<svg version="1.1" id="Layer_1" xmlns="http://www.w3.org/2000/svg" xmlns:xlink="http://www.w3.org/1999/xlink" x="0px" y="0px"
	 width="36px" height="9px" viewBox="0 0 36 9" enable-background="new 0 0 36 9" xml:space="preserve">
<path fill="#1A1A1A" d="M35,3.036H12.021c-0.188-0.797-0.585-1.537-1.233-2.198c-0.233-0.237-0.613-0.24-0.849-0.009
	c-0.236,0.232-0.24,0.612-0.009,0.849c0.417,0.425,0.692,0.877,0.856,1.358H8.481c-0.16-0.54-0.42-1.037-0.8-1.483
	c-0.094-0.11-0.176-0.227-0.283-0.331C6.558,0.407,5.531,0,4.321,0C3.115,0,2.093,0.407,1.256,1.222
	C1.148,1.326,1.067,1.442,0.974,1.553C0.338,2.303,0,3.18,0,4.201C0,5.369,0.419,6.36,1.256,7.175s1.859,1.222,3.065,1.222
	c1.21,0,2.236-0.407,3.077-1.222c0.778-0.754,1.18-1.666,1.238-2.723h2.287c-0.086,0.708-0.368,1.335-0.879,1.905
	c-0.221,0.247-0.2,0.627,0.047,0.848c0.115,0.103,0.258,0.152,0.4,0.152c0.165,0,0.329-0.067,0.447-0.199
	c0.705-0.789,1.103-1.7,1.194-2.706H35c0.384,0,0.694-0.316,0.694-0.709C35.694,3.353,35.384,3.036,35,3.036z M6.771,6.614
	c-0.659,0.657-1.47,0.984-2.427,0.984c-0.964,0-1.777-0.327-2.444-0.984s-1-1.461-1-2.413c0-0.786,0.238-1.465,0.689-2.049
	c0.772,0.622,1.678,0.952,2.731,0.952c1.062,0,1.974-0.333,2.751-0.96C7.522,2.73,7.76,3.411,7.76,4.201
	C7.76,5.153,7.431,5.957,6.771,6.614z"/>
</svg>
