<?xml version="1.0" encoding="utf-8"?>
<!-- Generator: Adobe Illustrator 15.1.0, SVG Export Plug-In . SVG Version: 6.00 Build 0)  -->
<!DOCTYPE svg PUBLIC "-//W3C//DTD SVG 1.1//EN" "http://www.w3.org/Graphics/SVG/1.1/DTD/svg11.dtd">
<svg version="1.1" id="Layer_1" xmlns="http://www.w3.org/2000/svg" xmlns:xlink="http://www.w3.org/1999/xlink" x="0px" y="0px"
	 width="18px" height="9px" viewBox="0 0 18 9" enable-background="new 0 0 18 9" xml:space="preserve">
<path fill="#1A1A1A" d="M17,3.036H8.481c-0.16-0.54-0.42-1.037-0.8-1.483c-0.094-0.11-0.176-0.227-0.283-0.331
	C6.558,0.407,5.531,0,4.321,0C3.115,0,2.093,0.407,1.256,1.222C1.148,1.326,1.067,1.442,0.974,1.553C0.338,2.303,0,3.18,0,4.201
	C0,5.369,0.419,6.36,1.256,7.175s1.859,1.222,3.065,1.222c1.21,0,2.236-0.407,3.077-1.222c0.778-0.754,1.18-1.666,1.238-2.723H17
	c0.384,0,0.694-0.316,0.694-0.709C17.694,3.353,17.384,3.036,17,3.036z M6.771,6.614c-0.659,0.657-1.47,0.984-2.427,0.984
	c-0.964,0-1.777-0.327-2.444-0.984s-1-1.461-1-2.413c0-0.786,0.238-1.465,0.689-2.049c0.772,0.622,1.678,0.952,2.731,0.952
	c1.062,0,1.974-0.333,2.751-0.96C7.522,2.73,7.76,3.411,7.76,4.201C7.76,5.153,7.431,5.957,6.771,6.614z"/>
</svg>
