<?xml version="1.0" encoding="utf-8"?>
<!-- Generator: Adobe Illustrator 15.1.0, SVG Export Plug-In . SVG Version: 6.00 Build 0)  -->
<!DOCTYPE svg PUBLIC "-//W3C//DTD SVG 1.1//EN" "http://www.w3.org/Graphics/SVG/1.1/DTD/svg11.dtd">
<svg version="1.1" id="Layer_1" xmlns="http://www.w3.org/2000/svg" xmlns:xlink="http://www.w3.org/1999/xlink" x="0px" y="0px"
	 width="23px" height="11px" viewBox="0 0 23 11" enable-background="new 0 0 23 11" xml:space="preserve">
<path fill="#1A1A1A" d="M21.768,4.654h-8.516c-0.192-0.677-0.542-1.287-1.086-1.814c-0.841-0.814-1.867-1.222-3.077-1.222
	c-1.206,0-2.229,0.407-3.065,1.222C5.268,3.575,4.873,4.463,4.798,5.489C4.407,5.402,3.49,5.122,3.052,4.324
	c-0.229-0.42-0.312-0.942-0.326-1.463C3.143,2.902,3.56,2.986,3.968,3.158C4.195,3.25,4.461,3.147,4.557,2.917
	c0.096-0.229-0.012-0.492-0.241-0.589C3.803,2.112,3.279,2.008,2.754,1.963c0.08-0.77,0.253-1.374,0.257-1.386
	c0.07-0.238-0.066-0.488-0.305-0.559C2.465-0.053,2.218,0.085,2.148,0.324C2.131,0.38,1.931,1.077,1.85,1.968
	C1.317,2.021,0.785,2.135,0.268,2.365c-0.228,0.101-0.33,0.366-0.229,0.593C0.113,3.126,0.277,3.226,0.45,3.226
	c0.062,0,0.123-0.013,0.182-0.039c0.39-0.173,0.79-0.263,1.191-0.313c0.019,0.649,0.134,1.321,0.44,1.882
	c0.738,1.349,2.34,1.623,2.573,1.656C4.899,6.84,5.002,7.252,5.188,7.629C5.393,8.048,5.662,8.44,6.024,8.792
	c0.837,0.814,1.859,1.222,3.065,1.222c1.21,0,2.236-0.407,3.077-1.222c0.364-0.353,0.634-0.744,0.84-1.163
	c0.235-0.477,0.359-0.999,0.393-1.56h8.369c0.384,0,0.694-0.316,0.694-0.709C22.462,4.97,22.152,4.654,21.768,4.654z M12.399,6.736
	c-0.079-0.09-0.145-0.186-0.232-0.271c-0.841-0.814-1.867-1.222-3.077-1.222c-1.206,0-2.229,0.407-3.065,1.222
	C5.938,6.548,5.875,6.642,5.797,6.73C5.721,6.441,5.668,6.142,5.668,5.819c0-0.956,0.333-1.762,1-2.419s1.48-0.984,2.444-0.984
	c0.957,0,1.768,0.327,2.427,0.984s0.988,1.463,0.988,2.419C12.528,6.144,12.475,6.445,12.399,6.736z"/>
</svg>
