<?xml version="1.0" encoding="utf-8"?>
<!-- Generator: Adobe Illustrator 15.1.0, SVG Export Plug-In . SVG Version: 6.00 Build 0)  -->
<!DOCTYPE svg PUBLIC "-//W3C//DTD SVG 1.1//EN" "http://www.w3.org/Graphics/SVG/1.1/DTD/svg11.dtd">
<svg version="1.1" id="Layer_1" xmlns="http://www.w3.org/2000/svg" xmlns:xlink="http://www.w3.org/1999/xlink" x="0px" y="0px"
	 width="13px" height="12px" viewBox="0 0 13 12" enable-background="new 0 0 13 12" xml:space="preserve">
<path fill="#1A1A1A" d="M12.72,10.549l-1.813-2.121c0.679-0.693,1.026-1.522,1.026-2.499c0-1.019-0.364-1.878-1.094-2.582
	c-0.729-0.706-1.617-1.061-2.667-1.061c-1.045,0-1.933,0.354-2.658,1.061C4.918,3.924,4.583,4.611,4.475,5.398
	C4.026,5.251,3.393,4.946,3.052,4.324c-0.229-0.42-0.312-0.942-0.326-1.463C3.143,2.902,3.56,2.986,3.968,3.158
	C4.195,3.25,4.461,3.147,4.557,2.917c0.096-0.229-0.012-0.492-0.241-0.589C3.803,2.112,3.279,2.008,2.754,1.963
	c0.08-0.77,0.253-1.374,0.257-1.386c0.07-0.238-0.066-0.488-0.305-0.559C2.465-0.053,2.218,0.085,2.148,0.324
	C2.131,0.38,1.931,1.077,1.85,1.968C1.317,2.021,0.785,2.135,0.268,2.365c-0.228,0.101-0.33,0.366-0.229,0.593
	C0.113,3.126,0.277,3.226,0.45,3.226c0.062,0,0.123-0.013,0.182-0.039c0.39-0.173,0.79-0.263,1.191-0.313
	c0.019,0.649,0.134,1.321,0.44,1.882c0.559,1.021,1.615,1.424,2.2,1.576c0.086,0.836,0.424,1.565,1.051,2.176
	c0.726,0.707,1.613,1.06,2.658,1.06c0.803,0,1.509-0.21,2.124-0.622l1.816,2.124c0.079,0.093,0.191,0.141,0.304,0.141
	c0.092,0,0.185-0.032,0.26-0.097C12.844,10.969,12.864,10.717,12.72,10.549z M7.66,8.508C7.657,8.582,7.653,8.639,7.649,8.704
	c-0.567-0.098-1.064-0.353-1.49-0.77C5.606,7.388,5.33,6.719,5.33,5.929c0-0.797,0.276-1.465,0.829-2.013
	c0.426-0.418,0.923-0.672,1.49-0.769C7.653,3.212,7.657,3.271,7.66,3.343C7.697,4.05,7.714,4.911,7.714,5.928
	C7.714,6.943,7.697,7.801,7.66,8.508z M8.698,8.508c-0.036-0.707-0.054-1.565-0.054-2.58c0-1.018,0.018-1.878,0.054-2.585
	C8.702,3.27,8.706,3.211,8.71,3.145c0.573,0.096,1.075,0.349,1.501,0.771c0.546,0.548,0.818,1.216,0.818,2.013
	c0,0.79-0.272,1.459-0.818,2.005C9.786,8.357,9.284,8.611,8.709,8.706C8.706,8.64,8.702,8.583,8.698,8.508z"/>
</svg>
