<?xml version="1.0" encoding="utf-8"?>
<!-- Generator: Adobe Illustrator 15.1.0, SVG Export Plug-In . SVG Version: 6.00 Build 0)  -->
<!DOCTYPE svg PUBLIC "-//W3C//DTD SVG 1.1//EN" "http://www.w3.org/Graphics/SVG/1.1/DTD/svg11.dtd">
<svg version="1.1" id="Layer_1" xmlns="http://www.w3.org/2000/svg" xmlns:xlink="http://www.w3.org/1999/xlink" x="0px" y="0px"
	 width="12px" height="10px" viewBox="0 0 12 10" enable-background="new 0 0 12 10" xml:space="preserve">
<path fill="#1A1A1A" d="M10.84,3.346C10.111,2.64,9.223,2.285,8.173,2.285c-1.046,0-1.933,0.354-2.659,1.061
	C4.919,3.923,4.582,4.611,4.475,5.398C4.026,5.252,3.394,4.947,3.052,4.324C2.822,3.904,2.74,3.381,2.727,2.861
	C3.143,2.902,3.56,2.986,3.968,3.158C4.194,3.25,4.461,3.147,4.557,2.917c0.096-0.229-0.012-0.492-0.241-0.589
	C3.803,2.112,3.278,2.008,2.754,1.963c0.08-0.77,0.253-1.374,0.257-1.386c0.07-0.238-0.066-0.488-0.304-0.559
	C2.465-0.053,2.219,0.085,2.148,0.324C2.131,0.38,1.932,1.077,1.85,1.968C1.316,2.021,0.785,2.135,0.268,2.365
	c-0.227,0.101-0.33,0.366-0.229,0.593c0.074,0.169,0.238,0.269,0.41,0.269c0.062,0,0.123-0.013,0.182-0.039
	c0.391-0.173,0.791-0.263,1.191-0.313c0.02,0.649,0.135,1.321,0.441,1.882c0.559,1.021,1.615,1.424,2.199,1.576
	C4.55,7.167,4.889,7.896,5.514,8.506c0.727,0.707,1.613,1.06,2.659,1.06c1.05,0,1.938-0.353,2.667-1.06
	c0.729-0.708,1.094-1.566,1.094-2.578C11.934,4.91,11.569,4.05,10.84,3.346z M10.925,6.432c-0.751-0.729-1.673-1.095-2.753-1.095
	c-1.078,0-1.994,0.366-2.745,1.095c-0.018,0.017-0.03,0.036-0.046,0.054C5.348,6.305,5.33,6.117,5.33,5.921
	c0-0.796,0.275-1.465,0.828-2.012c0.557-0.547,1.232-0.817,2.033-0.817c0.798,0,1.47,0.271,2.02,0.817
	c0.547,0.547,0.818,1.216,0.818,2.012c0,0.199-0.018,0.39-0.051,0.573C10.96,6.473,10.945,6.45,10.925,6.432z"/>
</svg>
