<?xml version="1.0" encoding="utf-8"?>
<!-- Generator: Adobe Illustrator 15.1.0, SVG Export Plug-In . SVG Version: 6.00 Build 0)  -->
<!DOCTYPE svg PUBLIC "-//W3C//DTD SVG 1.1//EN" "http://www.w3.org/Graphics/SVG/1.1/DTD/svg11.dtd">
<svg version="1.1" id="Layer_1" xmlns="http://www.w3.org/2000/svg" xmlns:xlink="http://www.w3.org/1999/xlink" x="0px" y="0px"
	 width="23px" height="11px" viewBox="0 0 23 11" enable-background="new 0 0 23 11" xml:space="preserve">
<path fill="#1A1A1A" d="M21.768,4.654H13.25c-0.16-0.54-0.42-1.037-0.8-1.483c-0.094-0.11-0.176-0.227-0.283-0.331
	c-0.841-0.814-1.867-1.222-3.077-1.222c-1.206,0-2.229,0.407-3.065,1.222C5.917,2.944,5.835,3.06,5.742,3.17
	C5.177,3.836,4.863,4.61,4.796,5.489c-0.395-0.088-1.308-0.37-1.744-1.165c-0.229-0.42-0.312-0.942-0.326-1.463
	C3.143,2.902,3.56,2.986,3.968,3.158C4.195,3.25,4.461,3.147,4.557,2.917c0.096-0.229-0.012-0.492-0.241-0.589
	C3.803,2.112,3.279,2.008,2.754,1.963c0.08-0.77,0.253-1.374,0.257-1.386c0.07-0.238-0.066-0.488-0.305-0.559
	C2.465-0.053,2.218,0.085,2.148,0.324C2.131,0.38,1.931,1.077,1.85,1.968C1.317,2.021,0.785,2.135,0.268,2.365
	c-0.228,0.101-0.33,0.366-0.229,0.593C0.113,3.126,0.277,3.226,0.45,3.226c0.062,0,0.123-0.013,0.182-0.039
	c0.39-0.173,0.79-0.263,1.191-0.313c0.019,0.649,0.134,1.321,0.44,1.882c0.726,1.325,2.285,1.613,2.56,1.654
	c0.121,0.912,0.511,1.711,1.201,2.383c0.837,0.814,1.859,1.222,3.065,1.222c1.21,0,2.236-0.407,3.077-1.222
	c0.778-0.754,1.18-1.666,1.238-2.723h8.363c0.384,0,0.694-0.316,0.694-0.709C22.462,4.97,22.152,4.654,21.768,4.654z M11.54,8.232
	c-0.659,0.657-1.47,0.984-2.427,0.984c-0.964,0-1.777-0.327-2.444-0.984s-1-1.461-1-2.413c0-0.786,0.238-1.465,0.689-2.049
	C7.13,4.392,8.036,4.722,9.089,4.722c1.062,0,1.974-0.333,2.751-0.96c0.45,0.586,0.688,1.267,0.688,2.057
	C12.528,6.771,12.199,7.575,11.54,8.232z"/>
</svg>
