<?xml version="1.0" encoding="utf-8"?>
<!-- Generator: Adobe Illustrator 15.1.0, SVG Export Plug-In . SVG Version: 6.00 Build 0)  -->
<!DOCTYPE svg PUBLIC "-//W3C//DTD SVG 1.1//EN" "http://www.w3.org/Graphics/SVG/1.1/DTD/svg11.dtd">
<svg version="1.1" id="Layer_1" xmlns="http://www.w3.org/2000/svg" xmlns:xlink="http://www.w3.org/1999/xlink" x="0px" y="0px"
	 width="14px" height="12px" viewBox="0 0 14 12" enable-background="new 0 0 14 12" xml:space="preserve">
<path fill="#1A1A1A" d="M12.141,9.871c0.531-0.49,0.844-1.092,0.898-1.803c0.018-0.219-0.146-0.412-0.367-0.43
	c-0.242-0.037-0.412,0.146-0.43,0.367c-0.039,0.5-0.25,0.91-0.619,1.26l-0.717-0.838c0.68-0.693,1.027-1.521,1.027-2.498
	c0-1.019-0.365-1.878-1.094-2.583c-0.729-0.706-1.617-1.061-2.668-1.061c-1.044,0-1.932,0.354-2.658,1.061
	C4.918,3.924,4.583,4.611,4.475,5.398C4.026,5.251,3.393,4.946,3.052,4.324c-0.229-0.42-0.312-0.942-0.326-1.463
	C3.143,2.902,3.56,2.986,3.968,3.158C4.195,3.25,4.461,3.147,4.557,2.917c0.096-0.229-0.012-0.492-0.241-0.589
	C3.803,2.112,3.279,2.008,2.754,1.963c0.08-0.77,0.253-1.374,0.257-1.386c0.07-0.238-0.066-0.488-0.305-0.559
	C2.465-0.053,2.218,0.085,2.148,0.324C2.131,0.38,1.931,1.077,1.85,1.968C1.317,2.021,0.785,2.135,0.268,2.365
	c-0.228,0.101-0.33,0.366-0.229,0.593C0.113,3.126,0.277,3.226,0.45,3.226c0.062,0,0.123-0.013,0.182-0.039
	c0.39-0.173,0.79-0.263,1.191-0.313c0.019,0.649,0.134,1.321,0.44,1.882c0.559,1.022,1.615,1.424,2.2,1.577
	c0.086,0.836,0.424,1.564,1.051,2.176C6.24,9.215,7.127,9.566,8.172,9.566c0.803,0,1.51-0.209,2.125-0.621l0.662,0.773
	C10.572,9.9,10.145,9.98,9.668,9.941c-0.236-0.002-0.41,0.152-0.426,0.371c-0.016,0.221,0.152,0.412,0.371,0.428
	c0.092,0.006,0.184,0.008,0.271,0.008c0.588,0,1.127-0.135,1.611-0.4l0.617,0.721c0.078,0.094,0.191,0.141,0.303,0.141
	c0.092,0,0.186-0.031,0.26-0.096c0.168-0.145,0.188-0.396,0.045-0.564L12.141,9.871z M7.66,8.508
	C7.657,8.582,7.653,8.639,7.649,8.703c-0.568-0.098-1.065-0.352-1.491-0.77C5.606,7.389,5.33,6.719,5.33,5.93
	c0-0.797,0.276-1.465,0.829-2.013c0.426-0.418,0.923-0.672,1.491-0.769C7.653,3.212,7.657,3.271,7.66,3.343
	C7.697,4.05,7.715,4.911,7.715,5.928C7.715,6.943,7.697,7.801,7.66,8.508z M8.697,8.508c-0.035-0.707-0.053-1.564-0.053-2.58
	c0-1.017,0.018-1.877,0.053-2.584C8.701,3.27,8.705,3.211,8.711,3.145c0.572,0.096,1.074,0.349,1.5,0.771
	c0.547,0.548,0.818,1.216,0.818,2.013c0,0.789-0.271,1.459-0.818,2.004C9.785,8.357,9.283,8.611,8.709,8.705
	C8.705,8.641,8.701,8.582,8.697,8.508z"/>
</svg>
