<?xml version="1.0" encoding="utf-8"?>
<!-- Generator: Adobe Illustrator 15.1.0, SVG Export Plug-In . SVG Version: 6.00 Build 0)  -->
<!DOCTYPE svg PUBLIC "-//W3C//DTD SVG 1.1//EN" "http://www.w3.org/Graphics/SVG/1.1/DTD/svg11.dtd">
<svg version="1.1" id="Layer_1" xmlns="http://www.w3.org/2000/svg" xmlns:xlink="http://www.w3.org/1999/xlink" x="0px" y="0px"
	 width="9px" height="9px" viewBox="0 0 9 9" enable-background="new 0 0 9 9" xml:space="preserve">
<path fill="#1A1A1A" d="M8.295,8.263L6.481,6.142C7.16,5.448,7.508,4.619,7.508,3.643c0-1.019-0.364-1.878-1.094-2.582
	C5.685,0.354,4.797,0,3.747,0C2.702,0,1.814,0.354,1.089,1.061C0.362,1.765,0,2.624,0,3.643c0,1.012,0.362,1.87,1.089,2.578
	c0.726,0.707,1.613,1.06,2.658,1.06c0.803,0,1.509-0.21,2.123-0.622l1.817,2.124c0.079,0.093,0.191,0.141,0.304,0.141
	c0.092,0,0.185-0.032,0.26-0.097C8.419,8.683,8.438,8.431,8.295,8.263z M1.733,5.643C1.181,5.098,0.904,4.429,0.904,3.638
	c0-0.624,0.176-1.167,0.516-1.637C2.083,2.51,2.855,2.785,3.746,2.785c0.9,0,1.676-0.278,2.344-0.793
	C6.429,2.465,6.604,3.01,6.604,3.638c0,0.791-0.272,1.46-0.818,2.005c-0.55,0.547-1.223,0.818-2.021,0.818
	C2.966,6.461,2.29,6.189,1.733,5.643z"/>
</svg>
