<?xml version="1.0" encoding="utf-8"?>
<!-- Generator: Adobe Illustrator 15.1.0, SVG Export Plug-In . SVG Version: 6.00 Build 0)  -->
<!DOCTYPE svg PUBLIC "-//W3C//DTD SVG 1.1//EN" "http://www.w3.org/Graphics/SVG/1.1/DTD/svg11.dtd">
<svg version="1.1" id="Layer_1" xmlns="http://www.w3.org/2000/svg" xmlns:xlink="http://www.w3.org/1999/xlink" x="0px" y="0px"
	 width="23px" height="11px" viewBox="0 0 23 11" enable-background="new 0 0 23 11" xml:space="preserve">
<path fill="#1A1A1A" d="M21.768,4.653h-8.516c-0.192-0.676-0.542-1.287-1.086-1.814c-0.707-0.684-1.553-1.063-2.521-1.172
	C9.462,1.646,9.282,1.618,9.089,1.618c-0.188,0-0.362,0.028-0.541,0.048c-0.97,0.106-1.817,0.486-2.524,1.173
	c-0.756,0.736-1.151,1.625-1.226,2.65C4.407,5.401,3.49,5.122,3.052,4.323C2.823,3.903,2.741,3.382,2.726,2.86
	C3.143,2.901,3.56,2.985,3.968,3.157c0.227,0.094,0.493-0.01,0.589-0.24c0.096-0.229-0.012-0.493-0.241-0.589
	C3.803,2.112,3.279,2.008,2.754,1.963c0.08-0.77,0.253-1.374,0.257-1.386c0.07-0.238-0.066-0.488-0.305-0.559
	C2.465-0.053,2.218,0.085,2.148,0.324C2.131,0.38,1.931,1.077,1.85,1.968C1.317,2.021,0.785,2.135,0.268,2.365
	c-0.228,0.101-0.33,0.367-0.229,0.593C0.113,3.126,0.277,3.226,0.45,3.226c0.062,0,0.123-0.012,0.182-0.039
	c0.39-0.172,0.79-0.262,1.191-0.312c0.019,0.648,0.134,1.32,0.44,1.881c0.726,1.326,2.285,1.613,2.56,1.654
	C4.944,7.321,5.333,8.12,6.024,8.792C6.732,9.481,7.581,9.86,8.552,9.968c0.178,0.02,0.351,0.047,0.537,0.047
	c0.191,0,0.37-0.029,0.553-0.049c0.97-0.109,1.816-0.488,2.524-1.174c0.778-0.754,1.18-1.666,1.238-2.723h8.363
	c0.384,0,0.694-0.316,0.694-0.709C22.462,4.97,22.152,4.653,21.768,4.653z M8.583,9.169c-0.734-0.1-1.375-0.404-1.915-0.938
	c-0.667-0.656-1-1.461-1-2.412c0-0.957,0.333-1.762,1-2.42c0.539-0.531,1.18-0.836,1.913-0.937c0.032,0.941,0.048,2.064,0.048,3.386
	C8.629,7.14,8.615,8.239,8.583,9.169z M11.54,8.231C11,8.771,10.352,9.075,9.612,9.171c-0.03-0.93-0.047-2.029-0.047-3.322
	c0-1.324,0.018-2.447,0.048-3.388C10.353,2.558,11,2.862,11.54,3.399c0.659,0.658,0.988,1.463,0.988,2.42
	C12.528,6.771,12.199,7.575,11.54,8.231z"/>
</svg>
