<?xml version="1.0" encoding="utf-8"?>
<!-- Generator: Adobe Illustrator 15.1.0, SVG Export Plug-In . SVG Version: 6.00 Build 0)  -->
<!DOCTYPE svg PUBLIC "-//W3C//DTD SVG 1.1//EN" "http://www.w3.org/Graphics/SVG/1.1/DTD/svg11.dtd">
<svg version="1.1" id="Layer_1" xmlns="http://www.w3.org/2000/svg" xmlns:xlink="http://www.w3.org/1999/xlink" x="0px" y="0px"
	 width="9px" height="9px" viewBox="0 0 9 9" enable-background="new 0 0 9 9" xml:space="preserve">
<path fill="#1A1A1A" d="M8.295,8.263L6.481,6.142C7.16,5.448,7.508,4.619,7.508,3.643c0-1.019-0.364-1.878-1.094-2.582
	C5.686,0.354,4.797,0,3.747,0C2.702,0,1.814,0.354,1.089,1.061C0.362,1.765,0,2.624,0,3.643c0,1.012,0.362,1.87,1.089,2.578
	c0.726,0.707,1.613,1.06,2.658,1.06c0.803,0,1.509-0.21,2.124-0.622l1.816,2.124c0.079,0.093,0.191,0.141,0.304,0.141
	c0.092,0,0.185-0.032,0.26-0.097C8.419,8.683,8.438,8.431,8.295,8.263z M3.746,3.051c-1.078,0-1.994,0.366-2.745,1.096
	C0.983,4.163,0.971,4.182,0.955,4.2C0.922,4.02,0.904,3.831,0.904,3.636c0-0.797,0.276-1.465,0.829-2.013
	C2.29,1.076,2.966,0.806,3.766,0.806c0.798,0,1.47,0.271,2.021,0.817c0.546,0.548,0.818,1.216,0.818,2.013
	c0,0.199-0.018,0.39-0.052,0.572C6.534,4.188,6.521,4.165,6.499,4.146C5.749,3.417,4.827,3.051,3.746,3.051z"/>
</svg>
