<?xml version="1.0" encoding="utf-8"?>
<!-- Generator: Adobe Illustrator 15.1.0, SVG Export Plug-In . SVG Version: 6.00 Build 0)  -->
<!DOCTYPE svg PUBLIC "-//W3C//DTD SVG 1.1//EN" "http://www.w3.org/Graphics/SVG/1.1/DTD/svg11.dtd">
<svg version="1.1" id="Layer_1" xmlns="http://www.w3.org/2000/svg" xmlns:xlink="http://www.w3.org/1999/xlink" x="0px" y="0px"
	 width="12px" height="9px" viewBox="0 0 12 9" enable-background="new 0 0 12 9" xml:space="preserve">
<path fill="#1A1A1A" d="M11.887,8.263l-1.814-2.121c0.68-0.693,1.027-1.522,1.027-2.499c0-1.019-0.365-1.878-1.094-2.582
	C9.278,0.354,8.389,0,7.338,0C6.293,0,5.407,0.354,4.68,1.061C4.163,1.562,3.838,2.147,3.69,2.809
	C3.268,2.902,2.868,3.02,2.512,3.183C2.014,3.411,1.575,3.705,1.194,4.06c-0.379,0.356-0.68,0.755-0.898,1.195
	C0.004,5.843-0.072,6.396,0.067,6.92C0.206,7.44,0.534,7.83,1.051,8.087C1.514,8.314,1.985,8.35,2.467,8.189
	c0.48-0.161,0.836-0.47,1.064-0.931C3.752,6.813,3.79,6.363,3.645,5.908C3.5,5.454,3.211,5.119,2.78,4.905
	C2.491,4.762,2.163,4.693,1.797,4.698c0.365-0.359,0.766-0.631,1.201-0.815C3.184,3.806,3.387,3.744,3.596,3.69
	c0.012,0.99,0.369,1.834,1.084,2.53c0.727,0.707,1.613,1.06,2.658,1.06c0.803,0,1.51-0.21,2.125-0.622l1.816,2.124
	c0.078,0.093,0.191,0.141,0.303,0.141c0.092,0,0.186-0.032,0.26-0.097C12.01,8.683,12.03,8.431,11.887,8.263z M2.227,5.533
	c0.285,0.142,0.475,0.339,0.568,0.59c0.094,0.25,0.074,0.51-0.057,0.774C2.61,7.155,2.422,7.332,2.172,7.421
	C1.924,7.51,1.674,7.492,1.422,7.367c-0.281-0.14-0.463-0.353-0.543-0.642C0.797,6.437,0.834,6.139,0.989,5.828
	c0.074-0.153,0.152-0.284,0.236-0.397c0.236-0.032,0.428-0.042,0.568-0.027C1.936,5.418,2.079,5.461,2.227,5.533z M6.827,6.222
	C6.823,6.295,6.819,6.353,6.815,6.417c-0.566-0.098-1.064-0.353-1.49-0.77C4.772,5.102,4.497,4.433,4.497,3.643
	c0-0.797,0.275-1.465,0.828-2.013c0.426-0.418,0.924-0.672,1.49-0.769c0.004,0.064,0.008,0.123,0.012,0.195
	c0.037,0.707,0.055,1.567,0.055,2.585C6.881,4.656,6.864,5.515,6.827,6.222z M7.864,6.222c-0.035-0.707-0.053-1.565-0.053-2.58
	c0-1.018,0.018-1.878,0.053-2.585c0.004-0.073,0.008-0.132,0.014-0.198c0.572,0.096,1.074,0.349,1.5,0.771
	c0.547,0.548,0.818,1.216,0.818,2.013c0,0.79-0.271,1.459-0.818,2.005C8.952,6.07,8.45,6.324,7.875,6.419
	C7.872,6.354,7.868,6.296,7.864,6.222z"/>
</svg>
