<?xml version="1.0" encoding="utf-8"?>
<!-- Generator: Adobe Illustrator 15.1.0, SVG Export Plug-In . SVG Version: 6.00 Build 0)  -->
<!DOCTYPE svg PUBLIC "-//W3C//DTD SVG 1.1//EN" "http://www.w3.org/Graphics/SVG/1.1/DTD/svg11.dtd">
<svg version="1.1" id="Layer_1" xmlns="http://www.w3.org/2000/svg" xmlns:xlink="http://www.w3.org/1999/xlink" x="0px" y="0px"
	 width="12px" height="10px" viewBox="0 0 12 10" enable-background="new 0 0 12 10" xml:space="preserve">
<path fill="#1A1A1A" d="M10.84,3.346C10.11,2.64,9.222,2.285,8.172,2.285c-1.045,0-1.932,0.354-2.658,1.061
	C4.918,3.923,4.582,4.611,4.475,5.399C4.026,5.252,3.394,4.947,3.052,4.324C2.822,3.904,2.74,3.381,2.727,2.861
	C3.143,2.902,3.56,2.986,3.968,3.158C4.194,3.25,4.461,3.147,4.557,2.917c0.096-0.229-0.012-0.492-0.241-0.589
	C3.803,2.112,3.278,2.008,2.754,1.963c0.08-0.77,0.253-1.374,0.257-1.386c0.07-0.238-0.066-0.488-0.304-0.559
	C2.465-0.053,2.219,0.085,2.148,0.324C2.131,0.38,1.932,1.077,1.85,1.968C1.316,2.021,0.785,2.135,0.268,2.365
	c-0.227,0.101-0.33,0.366-0.229,0.593c0.074,0.169,0.238,0.269,0.41,0.269c0.062,0,0.123-0.013,0.182-0.039
	c0.391-0.173,0.791-0.263,1.191-0.313c0.02,0.649,0.135,1.321,0.441,1.882c0.559,1.021,1.615,1.424,2.199,1.576
	C4.55,7.167,4.888,7.896,5.514,8.506c0.727,0.707,1.613,1.06,2.658,1.06c1.05,0,1.938-0.353,2.668-1.06
	c0.729-0.708,1.094-1.566,1.094-2.578C11.934,4.91,11.568,4.05,10.84,3.346z M7.66,8.507C7.656,8.58,7.652,8.638,7.648,8.702
	c-0.567-0.098-1.064-0.352-1.49-0.77C5.605,7.387,5.33,6.718,5.33,5.928c0-0.796,0.275-1.464,0.828-2.012
	c0.426-0.418,0.923-0.672,1.49-0.769C7.652,3.211,7.656,3.27,7.66,3.342c0.037,0.708,0.055,1.567,0.055,2.585
	C7.715,6.941,7.697,7.8,7.66,8.507z M10.211,7.933C9.785,8.355,9.283,8.609,8.709,8.704C8.705,8.639,8.701,8.581,8.697,8.507
	C8.662,7.8,8.645,6.941,8.645,5.927c0-1.018,0.018-1.877,0.053-2.585C8.701,3.269,8.705,3.21,8.71,3.144
	c0.573,0.095,1.075,0.349,1.501,0.771c0.547,0.548,0.818,1.216,0.818,2.012C11.029,6.718,10.758,7.387,10.211,7.933z"/>
</svg>
