<?xml version="1.0" encoding="utf-8"?>
<!-- Generator: Adobe Illustrator 15.1.0, SVG Export Plug-In . SVG Version: 6.00 Build 0)  -->
<!DOCTYPE svg PUBLIC "-//W3C//DTD SVG 1.1//EN" "http://www.w3.org/Graphics/SVG/1.1/DTD/svg11.dtd">
<svg version="1.1" id="Layer_1" xmlns="http://www.w3.org/2000/svg" xmlns:xlink="http://www.w3.org/1999/xlink" x="0px" y="0px"
	 width="13px" height="9px" viewBox="0 0 13 9" enable-background="new 0 0 13 9" xml:space="preserve">
<g>
	<path fill="#1A1A1A" d="M7.344,2.469c-0.338,0-0.623,0.112-0.855,0.343C6.254,3.037,6.137,3.313,6.137,3.64
		c0,0.327,0.117,0.603,0.352,0.83c0.232,0.227,0.518,0.342,0.855,0.342S7.967,4.696,8.201,4.47c0.234-0.228,0.352-0.503,0.352-0.83
		c0-0.326-0.117-0.603-0.352-0.828C7.967,2.581,7.682,2.469,7.344,2.469z"/>
	<path fill="#1A1A1A" d="M11.307,7.584c0.531-0.49,0.844-1.091,0.898-1.802c0.018-0.22-0.146-0.413-0.367-0.43
		c-0.242-0.037-0.412,0.146-0.43,0.367c-0.039,0.499-0.25,0.91-0.619,1.259l-0.717-0.837c0.68-0.693,1.027-1.522,1.027-2.499
		c0-1.019-0.365-1.878-1.094-2.582C9.275,0.354,8.389,0,7.338,0C6.293,0,5.406,0.354,4.68,1.061C4.163,1.562,3.838,2.147,3.69,2.809
		C3.268,2.903,2.868,3.02,2.512,3.183C2.014,3.411,1.575,3.705,1.194,4.06c-0.38,0.356-0.681,0.755-0.899,1.195
		C0.004,5.843-0.072,6.396,0.067,6.92C0.206,7.44,0.534,7.83,1.05,8.087C1.513,8.314,1.984,8.35,2.466,8.189
		c0.48-0.161,0.836-0.47,1.065-0.931c0.22-0.445,0.258-0.896,0.113-1.351C3.5,5.454,3.211,5.119,2.779,4.905
		C2.49,4.762,2.163,4.693,1.796,4.698c0.365-0.359,0.766-0.631,1.202-0.815c0.186-0.077,0.388-0.139,0.598-0.191
		C3.608,4.681,3.965,5.524,4.68,6.221c0.726,0.707,1.613,1.06,2.658,1.06c0.803,0,1.51-0.21,2.123-0.622l0.664,0.774
		C9.738,7.613,9.311,7.693,8.834,7.654c-0.236-0.001-0.41,0.153-0.426,0.372C8.393,8.247,8.561,8.438,8.779,8.453
		c0.092,0.006,0.184,0.009,0.271,0.009c0.588,0,1.127-0.136,1.611-0.401l0.617,0.722c0.078,0.093,0.191,0.141,0.303,0.141
		c0.092,0,0.186-0.032,0.26-0.097c0.168-0.144,0.188-0.396,0.045-0.563L11.307,7.584z M2.226,5.533
		c0.286,0.142,0.476,0.339,0.569,0.59c0.094,0.25,0.074,0.51-0.057,0.774c-0.13,0.258-0.317,0.435-0.566,0.523
		C1.924,7.51,1.674,7.492,1.422,7.367C1.14,7.228,0.958,7.015,0.879,6.726C0.797,6.437,0.833,6.139,0.988,5.828
		C1.063,5.675,1.14,5.544,1.225,5.431c0.236-0.032,0.427-0.042,0.567-0.027C1.936,5.418,2.079,5.461,2.226,5.533z M5.324,5.647
		C4.772,5.102,4.496,4.433,4.496,3.643c0-0.797,0.276-1.465,0.829-2.012c0.557-0.547,1.232-0.818,2.033-0.818
		c0.797,0,1.469,0.271,2.02,0.818c0.547,0.547,0.818,1.215,0.818,2.012c0,0.79-0.271,1.459-0.818,2.005
		c-0.551,0.546-1.223,0.817-2.02,0.817C6.557,6.465,5.881,6.193,5.324,5.647z"/>
</g>
</svg>
