<?xml version="1.0" encoding="utf-8"?>
<!-- Generator: Adobe Illustrator 15.1.0, SVG Export Plug-In . SVG Version: 6.00 Build 0)  -->
<!DOCTYPE svg PUBLIC "-//W3C//DTD SVG 1.1//EN" "http://www.w3.org/Graphics/SVG/1.1/DTD/svg11.dtd">
<svg version="1.1" id="Layer_1" xmlns="http://www.w3.org/2000/svg" xmlns:xlink="http://www.w3.org/1999/xlink" x="0px" y="0px"
	 width="72px" height="9px" viewBox="0 0 72 9" enable-background="new 0 0 72 9" xml:space="preserve">
<g>
	<path fill="#1A1A1A" d="M71.306,3.036H14.721c-0.188-0.797-0.585-1.537-1.233-2.198c-0.233-0.237-0.613-0.24-0.849-0.009
		c-0.236,0.232-0.24,0.612-0.009,0.849c0.417,0.425,0.692,0.877,0.856,1.358h-1.465c-0.188-0.797-0.585-1.537-1.233-2.198
		c-0.233-0.237-0.613-0.24-0.849-0.009c-0.236,0.232-0.24,0.612-0.009,0.849c0.417,0.425,0.692,0.877,0.856,1.358H8.484
		C8.292,2.359,7.942,1.749,7.398,1.222C6.558,0.407,5.531,0,4.321,0C3.115,0,2.093,0.407,1.256,1.222S0,3.029,0,4.201
		C0,5.369,0.419,6.36,1.256,7.175s1.859,1.222,3.065,1.222c1.21,0,2.236-0.407,3.077-1.222c0.778-0.754,1.18-1.666,1.238-2.723
		h2.287c-0.086,0.708-0.368,1.335-0.879,1.905c-0.221,0.247-0.2,0.627,0.047,0.848c0.115,0.103,0.258,0.152,0.4,0.152
		c0.165,0,0.329-0.067,0.447-0.199c0.705-0.789,1.103-1.7,1.194-2.706h1.489c-0.086,0.708-0.368,1.335-0.879,1.905
		c-0.221,0.247-0.2,0.627,0.047,0.848c0.115,0.103,0.258,0.152,0.4,0.152c0.165,0,0.329-0.067,0.447-0.199
		c0.705-0.789,1.103-1.7,1.194-2.706h56.473C71.689,4.452,72,4.136,72,3.743C72,3.353,71.689,3.036,71.306,3.036z M6.771,6.614
		c-0.659,0.657-1.47,0.984-2.427,0.984c-0.964,0-1.777-0.327-2.444-0.984s-1-1.461-1-2.413c0-0.956,0.333-1.762,1-2.419
		s1.48-0.984,2.444-0.984c0.957,0,1.768,0.327,2.427,0.984S7.76,3.245,7.76,4.201C7.76,5.153,7.431,5.957,6.771,6.614z"/>
	<path fill="#1A1A1A" d="M4.327,2.648c-0.446,0-0.822,0.15-1.132,0.452C2.887,3.4,2.732,3.768,2.732,4.199
		c0,0.431,0.154,0.797,0.463,1.097c0.31,0.302,0.686,0.452,1.132,0.452s0.825-0.15,1.136-0.452c0.31-0.3,0.465-0.666,0.465-1.097
		c0-0.432-0.155-0.799-0.465-1.099C5.152,2.799,4.773,2.648,4.327,2.648z"/>
</g>
</svg>
