<?xml version="1.0" encoding="utf-8"?>
<!-- Generator: Adobe Illustrator 15.1.0, SVG Export Plug-In . SVG Version: 6.00 Build 0)  -->
<!DOCTYPE svg PUBLIC "-//W3C//DTD SVG 1.1//EN" "http://www.w3.org/Graphics/SVG/1.1/DTD/svg11.dtd">
<svg version="1.1" id="Layer_1" xmlns="http://www.w3.org/2000/svg" xmlns:xlink="http://www.w3.org/1999/xlink" x="0px" y="0px"
	 width="14px" height="12px" viewBox="0 0 14 12" enable-background="new 0 0 14 12" xml:space="preserve">
<path fill="#1A1A1A" d="M12.141,9.871c0.531-0.49,0.844-1.091,0.898-1.803c0.018-0.219-0.146-0.412-0.367-0.43
	c-0.242-0.037-0.412,0.146-0.43,0.367c-0.04,0.499-0.25,0.91-0.62,1.26l-0.716-0.838c0.679-0.693,1.025-1.521,1.025-2.499
	c0-1.019-0.363-1.878-1.094-2.582c-0.729-0.706-1.617-1.061-2.667-1.061c-1.045,0-1.933,0.354-2.658,1.061
	C4.917,3.923,4.58,4.611,4.473,5.398C4.025,5.25,3.393,4.946,3.052,4.324C2.823,3.904,2.74,3.382,2.726,2.861
	C3.143,2.902,3.56,2.986,3.968,3.158C4.195,3.25,4.461,3.147,4.557,2.917c0.096-0.229-0.012-0.492-0.241-0.589
	c-0.513-0.216-1.037-0.32-1.562-0.365c0.08-0.77,0.253-1.374,0.257-1.386c0.07-0.238-0.066-0.488-0.305-0.559
	C2.465-0.053,2.218,0.085,2.148,0.324C2.131,0.38,1.931,1.077,1.85,1.968C1.317,2.021,0.785,2.135,0.268,2.365
	C0.04,2.466-0.062,2.731,0.039,2.958C0.113,3.126,0.277,3.226,0.45,3.226c0.062,0,0.123-0.013,0.182-0.039
	c0.39-0.173,0.79-0.263,1.191-0.313c0.019,0.649,0.134,1.321,0.44,1.882C2.822,5.777,3.877,6.18,4.462,6.331
	c0.086,0.837,0.425,1.565,1.052,2.177C6.24,9.215,7.127,9.568,8.172,9.568c0.803,0,1.51-0.211,2.124-0.623l0.662,0.774
	C10.572,9.9,10.145,9.98,9.668,9.941c-0.236-0.002-0.411,0.152-0.427,0.371c-0.015,0.222,0.151,0.412,0.372,0.428
	c0.092,0.006,0.183,0.009,0.271,0.009c0.589,0,1.126-0.136,1.61-0.401l0.617,0.723c0.078,0.093,0.19,0.141,0.304,0.141
	c0.092,0,0.185-0.031,0.26-0.097c0.168-0.145,0.188-0.396,0.044-0.563L12.141,9.871z M8.171,5.337c-1.078,0-1.994,0.366-2.745,1.096
	C5.409,6.45,5.396,6.468,5.38,6.487C5.347,6.306,5.33,6.118,5.33,5.922c0-0.797,0.276-1.465,0.829-2.013
	c0.557-0.547,1.232-0.817,2.032-0.817c0.797,0,1.47,0.271,2.021,0.817c0.546,0.548,0.817,1.216,0.817,2.013
	c0,0.199-0.018,0.39-0.051,0.572c-0.02-0.021-0.033-0.043-0.055-0.062C10.174,5.704,9.252,5.337,8.171,5.337z"/>
</svg>
