<?xml version="1.0" encoding="utf-8"?>
<!-- Generator: Adobe Illustrator 15.1.0, SVG Export Plug-In . SVG Version: 6.00 Build 0)  -->
<!DOCTYPE svg PUBLIC "-//W3C//DTD SVG 1.1//EN" "http://www.w3.org/Graphics/SVG/1.1/DTD/svg11.dtd">
<svg version="1.1" id="Layer_1" xmlns="http://www.w3.org/2000/svg" xmlns:xlink="http://www.w3.org/1999/xlink" x="0px" y="0px"
	 width="12px" height="10px" viewBox="0 0 12 10" enable-background="new 0 0 12 10" xml:space="preserve">
<path fill="#1A1A1A" d="M10.839,3.346C10.111,2.64,9.223,2.287,8.173,2.287c-1.046,0-1.933,0.353-2.659,1.059
	C4.919,3.924,4.582,4.612,4.475,5.399C4.026,5.252,3.394,4.947,3.052,4.324C2.822,3.904,2.74,3.381,2.727,2.861
	C3.143,2.902,3.56,2.986,3.968,3.158C4.194,3.25,4.461,3.147,4.557,2.917c0.096-0.229-0.012-0.492-0.241-0.589
	C3.803,2.112,3.278,2.008,2.754,1.963c0.08-0.77,0.253-1.374,0.257-1.386c0.07-0.238-0.066-0.488-0.304-0.559
	C2.465-0.053,2.219,0.085,2.148,0.324C2.131,0.38,1.932,1.077,1.85,1.968C1.316,2.021,0.785,2.135,0.268,2.365
	c-0.227,0.101-0.33,0.366-0.229,0.593c0.074,0.169,0.238,0.269,0.41,0.269c0.062,0,0.123-0.013,0.182-0.039
	c0.391-0.173,0.791-0.263,1.191-0.313c0.02,0.649,0.135,1.321,0.441,1.882c0.559,1.021,1.615,1.424,2.199,1.576
	C4.55,7.168,4.888,7.897,5.514,8.506C6.24,9.213,7.127,9.565,8.173,9.565c1.05,0,1.938-0.352,2.666-1.059
	c0.73-0.707,1.095-1.565,1.095-2.578C11.934,4.911,11.569,4.052,10.839,3.346z M10.439,7.673c-0.389,0.48-0.859,0.721-1.412,0.721
	c-0.555,0-1.027-0.24-1.408-0.721C7.233,7.198,7.043,6.614,7.043,5.928c0-0.688,0.19-1.273,0.576-1.748
	C8,3.701,8.473,3.459,9.027,3.459c0.553,0,1.023,0.242,1.412,0.721c0.385,0.475,0.578,1.06,0.578,1.748
	C11.018,6.614,10.824,7.198,10.439,7.673z"/>
</svg>
