<?xml version="1.0" encoding="utf-8"?>
<!-- Generator: Adobe Illustrator 15.1.0, SVG Export Plug-In . SVG Version: 6.00 Build 0)  -->
<!DOCTYPE svg PUBLIC "-//W3C//DTD SVG 1.1//EN" "http://www.w3.org/Graphics/SVG/1.1/DTD/svg11.dtd">
<svg version="1.1" id="Layer_1" xmlns="http://www.w3.org/2000/svg" xmlns:xlink="http://www.w3.org/1999/xlink" x="0px" y="0px"
	 width="18px" height="9px" viewBox="0 0 18 9" enable-background="new 0 0 18 9" xml:space="preserve">
<path fill="#1A1A1A" d="M17,3.036H8.484C8.292,2.359,7.942,1.749,7.398,1.222C6.558,0.407,5.531,0,4.321,0
	C3.115,0,2.093,0.407,1.256,1.222S0,3.029,0,4.201C0,5.369,0.419,6.36,1.256,7.175s1.859,1.222,3.065,1.222
	c1.21,0,2.236-0.407,3.077-1.222c0.778-0.754,1.18-1.666,1.238-2.723H17c0.384,0,0.694-0.316,0.694-0.709
	C17.694,3.353,17.384,3.036,17,3.036z M6.771,6.614c-0.659,0.657-1.47,0.984-2.427,0.984c-0.964,0-1.777-0.327-2.444-0.984
	s-1-1.461-1-2.413c0-0.956,0.333-1.762,1-2.419s1.48-0.984,2.444-0.984c0.957,0,1.768,0.327,2.427,0.984S7.76,3.245,7.76,4.201
	C7.76,5.153,7.431,5.957,6.771,6.614z"/>
</svg>
