<?xml version="1.0" encoding="utf-8"?>
<!-- Generator: Adobe Illustrator 15.1.0, SVG Export Plug-In . SVG Version: 6.00 Build 0)  -->
<!DOCTYPE svg PUBLIC "-//W3C//DTD SVG 1.1//EN" "http://www.w3.org/Graphics/SVG/1.1/DTD/svg11.dtd">
<svg version="1.1" id="Layer_1" xmlns="http://www.w3.org/2000/svg" xmlns:xlink="http://www.w3.org/1999/xlink" x="0px" y="0px"
	 width="8px" height="8px" viewBox="0 0 8 8" enable-background="new 0 0 8 8" xml:space="preserve">
<g>
	<path fill="#1A1A1A" d="M3.752,2.469c-0.337,0-0.623,0.113-0.855,0.343C2.663,3.037,2.546,3.314,2.546,3.64
		c0,0.328,0.117,0.603,0.351,0.83c0.232,0.227,0.519,0.342,0.855,0.342c0.338,0,0.623-0.115,0.857-0.342
		c0.235-0.228,0.353-0.502,0.353-0.83c0-0.326-0.117-0.603-0.353-0.828C4.375,2.582,4.09,2.469,3.752,2.469z"/>
	<path fill="#1A1A1A" d="M6.414,1.061C5.685,0.354,4.797,0,3.746,0C2.701,0,1.814,0.354,1.088,1.061C0.361,1.765,0,2.625,0,3.643
		c0,1.012,0.361,1.87,1.088,2.578c0.727,0.707,1.613,1.06,2.658,1.06c1.051,0,1.938-0.353,2.668-1.06
		c0.729-0.708,1.094-1.566,1.094-2.578C7.508,2.625,7.144,1.765,6.414,1.061z M5.785,5.647c-0.55,0.546-1.223,0.818-2.02,0.818
		c-0.801,0-1.477-0.271-2.032-0.818C1.18,5.102,0.904,4.433,0.904,3.643c0-0.796,0.275-1.465,0.829-2.012
		c0.556-0.547,1.231-0.818,2.032-0.818c0.797,0,1.47,0.271,2.02,0.818c0.547,0.547,0.818,1.215,0.818,2.012
		C6.604,4.433,6.332,5.102,5.785,5.647z"/>
</g>
</svg>
