<?xml version="1.0" encoding="utf-8"?>
<!-- Generator: Adobe Illustrator 15.1.0, SVG Export Plug-In . SVG Version: 6.00 Build 0)  -->
<!DOCTYPE svg PUBLIC "-//W3C//DTD SVG 1.1//EN" "http://www.w3.org/Graphics/SVG/1.1/DTD/svg11.dtd">
<svg version="1.1" id="Layer_1" xmlns="http://www.w3.org/2000/svg" xmlns:xlink="http://www.w3.org/1999/xlink" x="0px" y="0px"
	 width="5px" height="6px" viewBox="0 0 5 6" enable-background="new 0 0 5 6" xml:space="preserve">
<path fill="#1A1A1A" d="M2.829,2.312V0.4C2.829,0.179,2.65,0,2.429,0S2.03,0.179,2.03,0.4v1.904
	c-0.699,0.083-1.338,0.397-1.901,0.95c-0.169,0.166-0.171,0.438-0.007,0.605C0.288,4.027,0.559,4.03,0.727,3.865
	c0.399-0.392,0.83-0.62,1.303-0.699v2.421c0,0.221,0.179,0.4,0.399,0.4s0.399-0.179,0.399-0.4V3.175
	c0.455,0.079,0.864,0.273,1.238,0.608C4.244,3.94,4.514,3.927,4.671,3.75C4.745,3.667,4.78,3.565,4.78,3.464
	c0-0.117-0.047-0.234-0.143-0.319C4.108,2.671,3.499,2.398,2.829,2.312z"/>
</svg>
