<?xml version="1.0" encoding="utf-8"?>
<!-- Generator: Adobe Illustrator 15.1.0, SVG Export Plug-In . SVG Version: 6.00 Build 0)  -->
<!DOCTYPE svg PUBLIC "-//W3C//DTD SVG 1.1//EN" "http://www.w3.org/Graphics/SVG/1.1/DTD/svg11.dtd">
<svg version="1.1" id="Layer_1" xmlns="http://www.w3.org/2000/svg" xmlns:xlink="http://www.w3.org/1999/xlink" x="0px" y="0px"
	 width="5px" height="20px" viewBox="0 0 5 20" enable-background="new 0 0 5 20" xml:space="preserve">
<path fill="#1A1A1A" d="M3.715,19.417c-0.309,0-0.613-0.143-0.811-0.411c-2.156-2.96-3.121-6.412-2.863-10.259
	C0.242,5.718,1.166,2.96,2.787,0.548c0.309-0.457,0.93-0.579,1.389-0.271c0.459,0.309,0.58,0.93,0.271,1.389
	C3.025,3.78,2.213,6.208,2.037,8.88c-0.229,3.414,0.584,6.341,2.484,8.948c0.326,0.446,0.227,1.071-0.219,1.397
	C4.125,19.355,3.918,19.417,3.715,19.417z"/>
</svg>
