<?xml version="1.0" encoding="utf-8"?>
<!-- Generator: Adobe Illustrator 15.1.0, SVG Export Plug-In . SVG Version: 6.00 Build 0)  -->
<!DOCTYPE svg PUBLIC "-//W3C//DTD SVG 1.1//EN" "http://www.w3.org/Graphics/SVG/1.1/DTD/svg11.dtd">
<svg version="1.1" id="Layer_1" xmlns="http://www.w3.org/2000/svg" xmlns:xlink="http://www.w3.org/1999/xlink" x="0px" y="0px"
	 width="7px" height="3px" viewBox="0 0 7 3" enable-background="new 0 0 7 3" xml:space="preserve">
<path fill="#1A1A1A" d="M6.7,1.667c0,0.143-0.049,0.285-0.152,0.4C6.327,2.315,5.948,2.334,5.7,2.114
	C5.083,1.561,4.403,1.266,3.622,1.209c-0.979-0.072-1.83,0.262-2.602,1.02c-0.236,0.23-0.616,0.227-0.849-0.01
	C-0.06,1.985-0.057,1.604,0.18,1.372c1.018-0.998,2.205-1.455,3.529-1.359C4.75,0.088,5.69,0.495,6.5,1.219
	C6.633,1.338,6.7,1.502,6.7,1.667z"/>
</svg>
