<?xml version="1.0" encoding="utf-8"?>
<!-- Generator: Adobe Illustrator 15.1.0, SVG Export Plug-In . SVG Version: 6.00 Build 0)  -->
<!DOCTYPE svg PUBLIC "-//W3C//DTD SVG 1.1//EN" "http://www.w3.org/Graphics/SVG/1.1/DTD/svg11.dtd">
<svg version="1.1" id="Layer_1" xmlns="http://www.w3.org/2000/svg" xmlns:xlink="http://www.w3.org/1999/xlink" x="0px" y="0px"
	 width="13px" height="3px" viewBox="0 0 13 3" enable-background="new 0 0 13 3" xml:space="preserve">
<path fill="#1A1A1A" d="M12.147,1.22c-0.812-0.725-1.752-1.131-2.793-1.207C8.207-0.07,7.162,0.264,6.241,1.004
	c-0.75-0.588-1.6-0.923-2.531-0.991C2.385-0.083,1.198,0.374,0.18,1.372C-0.057,1.604-0.06,1.985,0.171,2.22
	c0.232,0.236,0.612,0.24,0.849,0.01c0.771-0.758,1.623-1.092,2.602-1.02C4.403,1.267,5.083,1.562,5.7,2.114
	c0.023,0.021,0.1,0.088,0.117,0.105c0.232,0.236,0.611,0.24,0.848,0.01C7.438,1.472,8.29,1.138,9.268,1.21
	c0.781,0.057,1.461,0.352,2.078,0.904c0.246,0.221,0.627,0.201,0.848-0.047c0.102-0.115,0.152-0.258,0.152-0.4
	C12.346,1.503,12.278,1.339,12.147,1.22z"/>
</svg>
