<?xml version="1.0" encoding="utf-8"?>
<!-- Generator: Adobe Illustrator 15.1.0, SVG Export Plug-In . SVG Version: 6.00 Build 0)  -->
<!DOCTYPE svg PUBLIC "-//W3C//DTD SVG 1.1//EN" "http://www.w3.org/Graphics/SVG/1.1/DTD/svg11.dtd">
<svg version="1.1" id="Layer_1" xmlns="http://www.w3.org/2000/svg" xmlns:xlink="http://www.w3.org/1999/xlink" x="0px" y="0px"
	 width="5px" height="6px" viewBox="0 0 5 6" enable-background="new 0 0 5 6" xml:space="preserve">
<path fill="#1A1A1A" d="M3.474,2.863C3.625,2.998,3.855,2.986,3.99,2.834c0.062-0.07,0.093-0.157,0.093-0.244
	c0-0.1-0.04-0.2-0.122-0.272C3.526,1.929,3.027,1.7,2.48,1.617V0.4C2.48,0.179,2.302,0,2.081,0S1.682,0.179,1.682,0.4v1.202
	C1.104,1.682,0.578,1.953,0.11,2.411c-0.146,0.142-0.146,0.374-0.005,0.517c0.141,0.144,0.373,0.146,0.517,0.006
	c0.325-0.32,0.677-0.507,1.06-0.583V3.31C1.104,3.391,0.578,3.661,0.11,4.119c-0.146,0.142-0.146,0.374-0.005,0.517
	C0.246,4.78,0.479,4.782,0.622,4.642c0.325-0.32,0.677-0.507,1.06-0.583v1.529c0,0.221,0.179,0.4,0.399,0.4s0.399-0.179,0.399-0.4
	V4.063c0.363,0.074,0.691,0.238,0.993,0.509C3.625,4.706,3.855,4.694,3.99,4.543c0.062-0.07,0.093-0.157,0.093-0.244
	c0-0.1-0.04-0.2-0.122-0.272C3.526,3.637,3.027,3.408,2.48,3.325V2.354C2.844,2.428,3.172,2.593,3.474,2.863z"/>
</svg>
