<?xml version="1.0" encoding="utf-8"?>
<!-- Generator: Adobe Illustrator 15.1.0, SVG Export Plug-In . SVG Version: 6.00 Build 0)  -->
<!DOCTYPE svg PUBLIC "-//W3C//DTD SVG 1.1//EN" "http://www.w3.org/Graphics/SVG/1.1/DTD/svg11.dtd">
<svg version="1.1" id="Layer_1" xmlns="http://www.w3.org/2000/svg" xmlns:xlink="http://www.w3.org/1999/xlink" x="0px" y="0px"
	 width="4px" height="6px" viewBox="0 0 4 6" enable-background="new 0 0 4 6" xml:space="preserve">
<path fill="#1A1A1A" d="M3.102,3.754c0.135,0.12,0.341,0.11,0.461-0.026C3.619,3.666,3.646,3.587,3.646,3.51
	c0-0.089-0.036-0.178-0.108-0.243C3.161,2.931,2.731,2.729,2.262,2.648V1.903c0.303,0.072,0.586,0.194,0.84,0.422
	c0.135,0.12,0.341,0.11,0.461-0.026c0.057-0.062,0.083-0.14,0.083-0.217c0-0.089-0.036-0.178-0.108-0.243
	C3.161,1.503,2.731,1.3,2.262,1.22V0.4c0-0.221-0.179-0.4-0.399-0.4S1.463,0.179,1.463,0.4v0.807
	c-0.5,0.079-0.957,0.315-1.364,0.714c-0.13,0.126-0.131,0.333-0.005,0.461c0.127,0.128,0.333,0.131,0.462,0.005
	c0.279-0.275,0.581-0.438,0.907-0.511v0.758c-0.5,0.079-0.957,0.315-1.364,0.714c-0.13,0.126-0.131,0.333-0.005,0.461
	C0.221,3.94,0.427,3.942,0.556,3.816c0.279-0.274,0.581-0.438,0.907-0.51v0.757c-0.5,0.079-0.957,0.316-1.364,0.715
	c-0.13,0.126-0.131,0.333-0.005,0.461C0.221,5.368,0.427,5.37,0.556,5.245c0.279-0.274,0.581-0.438,0.907-0.51v0.853
	c0,0.221,0.179,0.4,0.399,0.4s0.399-0.179,0.399-0.4V4.76c0.303,0.072,0.586,0.194,0.84,0.422c0.135,0.12,0.341,0.109,0.461-0.025
	c0.057-0.063,0.083-0.141,0.083-0.218c0-0.089-0.036-0.178-0.108-0.243C3.161,4.359,2.731,4.157,2.262,4.077V3.332
	C2.564,3.404,2.848,3.526,3.102,3.754z"/>
</svg>
