<?xml version="1.0" encoding="ISO-8859-1"?><!DOCTYPE score-partwise PUBLIC "-//Recordare//DTD MusicXML 2.0 Partwise//EN" "http://www.musicxml.org/dtds/partwise.dtd"><score-partwise>	<identification>		<encoding>			<software>PDFtoMusic Pro v1.3.0d Build BF4F (c) Myriad - http://www.myriad-online.com</software>			<?PDFtoMusic Document type 0100-00000000?>		</encoding>	</identification>	<defaults>		<scaling>			<millimeters>7.535319</millimeters>			<tenths>40</tenths>		</scaling>		<page-layout>			<page-height>1483.149</page-height>			<page-width>1146.070</page-width>			<page-margins type="both">				<left-margin>53.083</left-margin>				<right-margin>53.083</right-margin>				<top-margin>53.083</top-margin>				 <bottom-margin>53.083</bottom-margin>			</page-margins>		</page-layout>	</defaults>	<credit>		<credit-words  default-x="260" default-y="1400" justify="left" valign="baseline" font-family="Times New Roman" font-size="18">God Rest ye Merry Gentlemen</credit-words>	</credit>	<credit>	<credit-words  default-x="1126.537" default-y="1447.980" justify="left" valign="baseline" font-family="Times New Roman" font-size="12" font-weight="normal" font-style="normal">1</credit-words>	</credit>	<part-list>		<score-part id="P1">			<part-name></part-name>			<score-instrument id="P1-I1">				<instrument-name>Instrument 1</instrument-name>			</score-instrument>			<midi-instrument id="P1-I1">				<midi-channel>1</midi-channel>				<midi-bank>1</midi-bank>				<midi-program>53</midi-program>				<?Myriad				<midi-volume>64</midi-volume>				?>				<?Myriad				<midi-panning>0</midi-panning>				?>			</midi-instrument>		</score-part>	</part-list>	<part id="P1">		<!--==========================[1,1]=============================-->		<measure number="27" width="179">			<print>				<system-layout>					<system-margins>						<left-margin>101.805</left-margin>						<right-margin>0.000</right-margin>					</system-margins>					<top-system-distance>173.602</top-system-distance>				</system-layout>				<staff-layout number="2">					<staff-distance>62.472</staff-distance>				</staff-layout>			</print>			<attributes>				<divisions>6720</divisions>				<time>					<beats>4</beats>					<beat-type>4</beat-type>				</time>				<staves>2</staves>				<clef number="1">					<sign>G</sign>					<line>2</line>				</clef>				<clef number="2">					<sign>F</sign>					<line>4</line>				</clef>				<staff-details number="1" print-object="yes">					<staff-lines>5</staff-lines>					<staff-size>100.00</staff-size>				</staff-details>				<staff-details number="2" print-object="yes">					<staff-lines>5</staff-lines>					<staff-size>100.00</staff-size>				</staff-details>			</attributes>			<note>				<rest>				</rest>				<duration>13440</duration>				<voice>1</voice>				<type>half</type>				<staff>1</staff>			</note>			<note>				<rest>				</rest>				<duration>6720</duration>				<voice>1</voice>				<type>quarter</type>				<staff>1</staff>			</note>			<note>				<pitch>					<step>D</step>					<octave>4</octave>				</pitch>				<duration>6720</duration>				<voice>1</voice>				<type>quarter</type>				<stem default-y="-10.56">up</stem>				<staff>1</staff>			</note>			<backup>				<duration>26880</duration>			</backup>			<note>				<rest>				</rest>				<duration>26880</duration>				<voice>1</voice>				<type>whole</type>				<staff>2</staff>			</note>		</measure>		<!--==========================[1,2]=============================-->		<measure number="28" width="149">			<note>				<pitch>					<step>D</step>					<octave>4</octave>				</pitch>				<duration>6720</duration>				<voice>1</voice>				<type>quarter</type>				<stem default-y="-10.56">up</stem>				<staff>1</staff>			</note>			<note>				<pitch>					<step>A</step>					<octave>4</octave>				</pitch>				<duration>6720</duration>				<voice>1</voice>				<type>quarter</type>				<stem default-y="9.44">up</stem>				<staff>1</staff>			</note>			<note>				<pitch>					<step>A</step>					<octave>4</octave>				</pitch>				<duration>6720</duration>				<voice>1</voice>				<type>quarter</type>				<stem default-y="9.44">up</stem>				<staff>1</staff>			</note>			<note>				<pitch>					<step>G</step>					<octave>4</octave>				</pitch>				<duration>6720</duration>				<voice>1</voice>				<type>quarter</type>				<stem default-y="4.49">up</stem>				<staff>1</staff>			</note>			<backup>				<duration>26880</duration>			</backup>			<note>				<pitch>					<step>F</step>					<octave>3</octave>				</pitch>				<duration>26880</duration>				<tie type="start"/>				<voice>4</voice>				<type>whole</type>				<stem>none</stem>				<staff>2</staff>				<notations>					<tied type="start" number="1" placement="above" orientation="over"/>				</notations>				<lyric number="1" justify="right" default-y="-197.92">					<syllabic>single</syllabic>					<text font-family="Times New Roman" font-size="10" font-weight="normal" font-style="normal">33 34</text>				</lyric>			</note>			<note>				<chord/>				<pitch>					<step>D</step>					<octave>3</octave>				</pitch>				<duration>26880</duration>				<tie type="start"/>				<voice>4</voice>				<type>whole</type>				<stem>none</stem>				<staff>2</staff>				<notations>					<tied type="start" number="2" placement="below" orientation="under"/>				</notations>			</note>		</measure>		<!--==========================[1,3]=============================-->		<measure number="29" width="149">			<note>				<pitch>					<step>F</step>					<octave>4</octave>				</pitch>				<duration>6720</duration>				<voice>1</voice>				<type>quarter</type>				<stem default-y="-0.56">up</stem>				<staff>1</staff>			</note>			<note>				<pitch>					<step>E</step>					<octave>4</octave>				</pitch>				<duration>6720</duration>				<voice>1</voice>				<type>quarter</type>				<stem default-y="-5.51">up</stem>				<staff>1</staff>			</note>			<note>				<pitch>					<step>D</step>					<octave>4</octave>				</pitch>				<duration>6720</duration>				<voice>1</voice>				<type>quarter</type>				<stem default-y="-10.56">up</stem>				<staff>1</staff>			</note>			<note>				<pitch>					<step>C</step>					<octave>4</octave>				</pitch>				<duration>6720</duration>				<voice>1</voice>				<type>quarter</type>				<stem default-y="-15.51">up</stem>				<staff>1</staff>			</note>			<backup>				<duration>26880</duration>			</backup>			<note>				<pitch>					<step>D</step>					<octave>3</octave>				</pitch>				<duration>20160</duration>				<tie type="stop"/>				<voice>4</voice>				<type>half</type>				<dot/>				<stem default-y="-55.39">down</stem>				<staff>2</staff>				<notations>					<tied type="stop" number="2"/>				</notations>			</note>			<note>				<chord/>				<pitch>					<step>F</step>					<octave>3</octave>				</pitch>				<duration>20160</duration>				<tie type="stop"/>				<voice>4</voice>				<type>half</type>				<dot/>				<stem default-y="-55.39">down</stem>				<staff>2</staff>				<notations>					<tied type="stop" number="1"/>				</notations>				<lyric number="1" justify="right" default-y="-197.92">					<syllabic>single</syllabic>					<text font-family="Times New Roman" font-size="10" font-weight="normal" font-style="normal">35</text>				</lyric>			</note>			<note>				<pitch>					<step>C</step>					<octave>3</octave>				</pitch>				<duration>6720</duration>				<voice>4</voice>				<type>quarter</type>				<stem default-y="9.44">up</stem>				<staff>2</staff>				<lyric number="1" justify="left" default-y="-197.92">					<syllabic>single</syllabic>					<text font-family="Times New Roman" font-size="10" font-weight="normal" font-style="normal">36</text>				</lyric>			</note>		</measure>		<!--==========================[1,4]=============================-->		<measure number="30" width="159">			<note>				<pitch>					<step>D</step>					<octave>4</octave>				</pitch>				<duration>6720</duration>				<voice>1</voice>				<type>quarter</type>				<stem default-y="-10.56">up</stem>				<staff>1</staff>			</note>			<note>				<pitch>					<step>E</step>					<octave>4</octave>				</pitch>				<duration>6720</duration>				<voice>1</voice>				<type>quarter</type>				<stem default-y="-5.51">up</stem>				<staff>1</staff>			</note>			<note>				<pitch>					<step>F</step>					<octave>4</octave>				</pitch>				<duration>6720</duration>				<voice>1</voice>				<type>quarter</type>				<stem default-y="-0.56">up</stem>				<staff>1</staff>			</note>			<note>				<pitch>					<step>G</step>					<octave>4</octave>				</pitch>				<duration>6720</duration>				<voice>1</voice>				<type>quarter</type>				<stem default-y="4.49">up</stem>				<staff>1</staff>			</note>			<backup>				<duration>26880</duration>			</backup>			<note>				<pitch>					<step>B</step>					<alter>-1</alter>					<octave>2</octave>				</pitch>				<duration>26880</duration>				<voice>4</voice>				<type>whole</type>				<accidental>flat</accidental>				<stem>none</stem>				<staff>2</staff>			</note>		</measure>		<!--==========================[1,5]=============================-->		<measure number="31" width="166">			<note>				<pitch>					<step>A</step>					<octave>4</octave>				</pitch>				<duration>6720</duration>				<voice>1</voice>				<type>quarter</type>				<stem default-y="9.44">up</stem>				<staff>1</staff>			</note>			<note>				<rest>				</rest>				<duration>6720</duration>				<voice>1</voice>				<type>quarter</type>				<staff>1</staff>			</note>			<note>				<rest>				</rest>				<duration>6720</duration>				<voice>1</voice>				<type>quarter</type>				<staff>1</staff>			</note>			<note>				<pitch>					<step>D</step>					<octave>4</octave>				</pitch>				<duration>6720</duration>				<voice>1</voice>				<type>quarter</type>				<stem default-y="-10.56">up</stem>				<staff>1</staff>			</note>			<backup>				<duration>26880</duration>			</backup>			<note>				<pitch>					<step>A</step>					<octave>2</octave>				</pitch>				<duration>6720</duration>				<voice>4</voice>				<type>quarter</type>				<stem default-y="-0.56">up</stem>				<staff>2</staff>				<lyric number="1" justify="right" default-y="-197.92">					<syllabic>single</syllabic>					<text font-family="Times New Roman" font-size="10" font-weight="normal" font-style="normal">37</text>				</lyric>			</note>			<note>				<pitch>					<step>C</step>					<alter>1</alter>					<octave>3</octave>				</pitch>				<duration>6720</duration>				<voice>4</voice>				<type>quarter</type>				<accidental>sharp</accidental>				<stem default-y="9.44">up</stem>				<staff>2</staff>			</note>			<note>				<pitch>					<step>E</step>					<octave>3</octave>				</pitch>				<duration>6720</duration>				<voice>4</voice>				<type>quarter</type>				<stem default-y="-50.45">down</stem>				<staff>2</staff>			</note>			<note>				<rest>				</rest>				<duration>6720</duration>				<voice>4</voice>				<type>quarter</type>				<staff>2</staff>			</note>		</measure>		<!--==========================[1,6]=============================-->		<measure number="32" width="150">			<note>				<pitch>					<step>D</step>					<octave>4</octave>				</pitch>				<duration>6720</duration>				<voice>1</voice>				<type>quarter</type>				<stem default-y="-10.56">up</stem>				<staff>1</staff>			</note>			<note>				<pitch>					<step>A</step>					<octave>4</octave>				</pitch>				<duration>6720</duration>				<voice>1</voice>				<type>quarter</type>				<stem default-y="9.44">up</stem>				<staff>1</staff>			</note>			<note>				<pitch>					<step>A</step>					<octave>4</octave>				</pitch>				<duration>6720</duration>				<voice>1</voice>				<type>quarter</type>				<stem default-y="9.44">up</stem>				<staff>1</staff>			</note>			<note>				<pitch>					<step>G</step>					<octave>4</octave>				</pitch>				<duration>6720</duration>				<voice>1</voice>				<type>quarter</type>				<stem default-y="4.49">up</stem>				<staff>1</staff>			</note>			<backup>				<duration>26880</duration>			</backup>			<note>				<pitch>					<step>F</step>					<octave>3</octave>				</pitch>				<duration>26880</duration>				<tie type="start"/>				<voice>4</voice>				<type>whole</type>				<stem>none</stem>				<staff>2</staff>				<notations>					<tied type="start" number="1" placement="above" orientation="under"/>				</notations>				<lyric number="1" justify="right" default-y="-197.92">					<syllabic>single</syllabic>					<text font-family="Times New Roman" font-size="10" font-weight="normal" font-style="normal">38</text>				</lyric>			</note>			<note>				<chord/>				<pitch>					<step>D</step>					<octave>3</octave>				</pitch>				<duration>26880</duration>				<tie type="start"/>				<voice>4</voice>				<type>whole</type>				<stem>none</stem>				<staff>2</staff>				<notations>					<tied type="start" number="2" placement="above" orientation="under"/>				</notations>			</note>		</measure>		<!--==========================[1,7]=============================-->		<measure number="33" width="199">			<print new-system="yes">				<system-layout>					<system-margins>						<left-margin>7.759</left-margin>						<right-margin>0.000</right-margin>					</system-margins>					<system-distance>75.056</system-distance>				</system-layout>				<staff-layout number="2">					<staff-distance>62.472</staff-distance>				</staff-layout>			</print>			<attributes>				<staff-details number="1" print-object="yes">				</staff-details>				<staff-details number="2" print-object="yes">				</staff-details>			</attributes>			<note>				<pitch>					<step>F</step>					<octave>4</octave>				</pitch>				<duration>6720</duration>				<voice>1</voice>				<type>quarter</type>				<stem default-y="-0.56">up</stem>				<staff>1</staff>			</note>			<note>				<pitch>					<step>E</step>					<octave>4</octave>				</pitch>				<duration>6720</duration>				<voice>1</voice>				<type>quarter</type>				<stem default-y="-5.51">up</stem>				<staff>1</staff>			</note>			<note>				<pitch>					<step>D</step>					<octave>4</octave>				</pitch>				<duration>6720</duration>				<voice>1</voice>				<type>quarter</type>				<stem default-y="-10.56">up</stem>				<staff>1</staff>			</note>			<note>				<pitch>					<step>C</step>					<octave>4</octave>				</pitch>				<duration>6720</duration>				<voice>1</voice>				<type>quarter</type>				<stem default-y="-15.51">up</stem>				<staff>1</staff>			</note>			<backup>				<duration>26880</duration>			</backup>			<note>				<pitch>					<step>F</step>					<octave>3</octave>				</pitch>				<duration>20160</duration>				<tie type="stop"/>				<voice>4</voice>				<type>half</type>				<dot/>				<stem default-y="-55.39">down</stem>				<staff>2</staff>				<notations>					<tied type="stop" number="1"/>				</notations>				<lyric number="1" justify="right" default-y="-197.92">					<syllabic>single</syllabic>					<text font-family="Times New Roman" font-size="10" font-weight="normal" font-style="normal">39</text>				</lyric>			</note>			<note>				<chord/>				<pitch>					<step>D</step>					<octave>3</octave>				</pitch>				<duration>20160</duration>				<tie type="stop"/>				<voice>4</voice>				<type>half</type>				<dot/>				<stem default-y="-55.39">down</stem>				<staff>2</staff>				<notations>					<tied type="stop" number="2"/>				</notations>			</note>			<note>				<pitch>					<step>C</step>					<octave>3</octave>				</pitch>				<duration>6720</duration>				<voice>4</voice>				<type>quarter</type>				<stem default-y="9.44">up</stem>				<staff>2</staff>				<lyric number="1" justify="center" default-y="-197.92">					<syllabic>single</syllabic>					<text font-family="Times New Roman" font-size="10" font-weight="normal" font-style="normal">40</text>				</lyric>			</note>		</measure>		<!--==========================[1,8]=============================-->		<measure number="34" width="169">			<note>				<pitch>					<step>D</step>					<octave>4</octave>				</pitch>				<duration>6720</duration>				<voice>1</voice>				<type>quarter</type>				<stem default-y="-10.56">up</stem>				<staff>1</staff>			</note>			<note>				<pitch>					<step>E</step>					<octave>4</octave>				</pitch>				<duration>6720</duration>				<voice>1</voice>				<type>quarter</type>				<stem default-y="-5.51">up</stem>				<staff>1</staff>			</note>			<note>				<pitch>					<step>F</step>					<octave>4</octave>				</pitch>				<duration>6720</duration>				<voice>1</voice>				<type>quarter</type>				<stem default-y="-0.56">up</stem>				<staff>1</staff>			</note>			<note>				<pitch>					<step>G</step>					<octave>4</octave>				</pitch>				<duration>6720</duration>				<voice>1</voice>				<type>quarter</type>				<stem default-y="4.49">up</stem>				<staff>1</staff>			</note>			<backup>				<duration>26880</duration>			</backup>			<note>				<pitch>					<step>B</step>					<alter>-1</alter>					<octave>2</octave>				</pitch>				<duration>26880</duration>				<voice>4</voice>				<type>whole</type>				<accidental>flat</accidental>				<stem>none</stem>				<staff>2</staff>				<lyric number="1" justify="left" default-y="-197.92">					<syllabic>single</syllabic>					<text font-family="Times New Roman" font-size="10" font-weight="normal" font-style="normal">41</text>				</lyric>			</note>		</measure>		<!--==========================[1,9]=============================-->		<measure number="35" width="176">			<note>				<pitch>					<step>A</step>					<octave>4</octave>				</pitch>				<duration>13440</duration>				<voice>1</voice>				<type>half</type>				<stem default-y="9.44">up</stem>				<staff>1</staff>			</note>			<note>				<rest>				</rest>				<duration>6720</duration>				<voice>1</voice>				<type>quarter</type>				<staff>1</staff>			</note>			<note>				<pitch>					<step>A</step>					<octave>4</octave>				</pitch>				<duration>6720</duration>				<voice>1</voice>				<type>quarter</type>				<stem default-y="9.44">up</stem>				<staff>1</staff>			</note>			<backup>				<duration>26880</duration>			</backup>			<note>				<pitch>					<step>A</step>					<octave>2</octave>				</pitch>				<duration>6720</duration>				<voice>4</voice>				<type>quarter</type>				<stem default-y="-0.56">up</stem>				<staff>2</staff>			</note>			<note>				<pitch>					<step>C</step>					<alter>1</alter>					<octave>3</octave>				</pitch>				<duration>6720</duration>				<voice>4</voice>				<type>quarter</type>				<accidental>sharp</accidental>				<stem default-y="9.44">up</stem>				<staff>2</staff>				<lyric number="1" justify="left" default-y="-197.92">					<syllabic>single</syllabic>					<text font-family="Times New Roman" font-size="10" font-weight="normal" font-style="normal">42</text>				</lyric>			</note>			<note>				<pitch>					<step>E</step>					<octave>3</octave>				</pitch>				<duration>6720</duration>				<voice>4</voice>				<type>quarter</type>				<stem default-y="-50.45">down</stem>				<staff>2</staff>			</note>			<note>				<rest>				</rest>				<duration>6720</duration>				<voice>4</voice>				<type>quarter</type>				<staff>2</staff>			</note>		</measure>		<!--==========================[1,10]=============================-->		<measure number="36" width="174">			<note>				<pitch>					<step>B</step>					<alter>-1</alter>					<octave>2</octave>				</pitch>				<duration>20160</duration>				<voice>4</voice>				<type>half</type>				<dot/>				<accidental>flat</accidental>				<stem default-y="-65.39">down</stem>				<staff>2</staff>			</note>			<note>				<chord/>				<pitch>					<step>F</step>					<octave>3</octave>				</pitch>				<duration>20160</duration>				<voice>4</voice>				<type>half</type>				<dot/>				<stem default-y="-65.39">down</stem>				<staff>2</staff>				<lyric number="1" justify="left" default-y="-197.92">					<syllabic>single</syllabic>					<text font-family="Times New Roman" font-size="10" font-weight="normal" font-style="normal">43</text>				</lyric>			</note>			<note>				<rest>				</rest>				<duration>6720</duration>				<voice>4</voice>				<type>quarter</type>				<staff>2</staff>			</note>			<backup>				<duration>26880</duration>			</backup>			<note>				<pitch>					<step>B</step>					<alter>-1</alter>					<octave>4</octave>				</pitch>				<duration>6720</duration>				<voice>1</voice>				<type>quarter</type>				<accidental>flat</accidental>				<stem default-y="-55.39">down</stem>				<staff>1</staff>			</note>			<note>				<pitch>					<step>G</step>					<octave>4</octave>				</pitch>				<duration>6720</duration>				<voice>1</voice>				<type>quarter</type>				<stem default-y="4.49">up</stem>				<staff>1</staff>			</note>			<note>				<pitch>					<step>A</step>					<octave>4</octave>				</pitch>				<duration>6720</duration>				<voice>1</voice>				<type>quarter</type>				<stem default-y="9.44">up</stem>				<staff>1</staff>			</note>			<note>				<pitch>					<step>B</step>					<alter>-1</alter>					<octave>4</octave>				</pitch>				<duration>6720</duration>				<voice>1</voice>				<type>quarter</type>				<stem default-y="-55.39">down</stem>				<staff>1</staff>			</note>		</measure>		<!--==========================[1,11]=============================-->		<measure number="37" width="159">			<note>				<pitch>					<step>C</step>					<octave>3</octave>				</pitch>				<duration>13440</duration>				<voice>4</voice>				<type>half</type>				<stem default-y="9.44">up</stem>				<staff>2</staff>				<lyric number="1" justify="left" default-y="-197.92">					<syllabic>single</syllabic>					<text font-family="Times New Roman" font-size="10" font-weight="normal" font-style="normal">44</text>				</lyric>			</note>			<note>				<chord/>				<pitch>					<step>F</step>					<octave>2</octave>				</pitch>				<duration>13440</duration>				<voice>4</voice>				<type>half</type>				<stem default-y="9.44">up</stem>				<staff>2</staff>			</note>			<note>				<rest>				</rest>				<duration>13440</duration>				<voice>4</voice>				<type>half</type>				<staff>2</staff>			</note>			<backup>				<duration>26880</duration>			</backup>			<note>				<pitch>					<step>C</step>					<octave>5</octave>				</pitch>				<duration>6720</duration>				<voice>1</voice>				<type>quarter</type>				<stem default-y="-50.45">down</stem>				<staff>1</staff>			</note>			<direction placement="above">				<direction-type>					<pedal type="start" relative-x="13.31" default-y="2.50"/>				</direction-type>				<offset>-6720.00</offset>				<staff>1</staff>			</direction>			<note>				<pitch>					<step>D</step>					<octave>5</octave>				</pitch>				<duration>6720</duration>				<voice>1</voice>				<type>quarter</type>				<stem default-y="-45.39">down</stem>				<staff>1</staff>			</note>			<note>				<pitch>					<step>A</step>					<octave>4</octave>				</pitch>				<duration>6720</duration>				<voice>1</voice>				<type>quarter</type>				<stem default-y="9.44">up</stem>				<staff>1</staff>			</note>			<note>				<pitch>					<step>G</step>					<octave>4</octave>				</pitch>				<duration>6720</duration>				<voice>1</voice>				<type>quarter</type>				<stem default-y="4.49">up</stem>				<staff>1</staff>			</note>			<direction placement="above">				<direction-type>					<pedal type="stop" relative-x="8.43" default-y="5.39"/>				</direction-type>				<offset>-6720.00</offset>				<staff>1</staff>			</direction>		</measure>		<!--==========================[1,12]=============================-->		<measure number="38" width="170">			<note>				<pitch>					<step>F</step>					<octave>4</octave>				</pitch>				<duration>6720</duration>				<voice>1</voice>				<type>quarter</type>				<stem default-y="-0.56">up</stem>				<staff>1</staff>			</note>			<note>				<pitch>					<step>D</step>					<octave>4</octave>				</pitch>				<duration>6720</duration>				<voice>1</voice>				<type>quarter</type>				<stem default-y="-10.56">up</stem>				<staff>1</staff>			</note>			<note>				<pitch>					<step>E</step>					<octave>4</octave>				</pitch>				<duration>6720</duration>				<voice>1</voice>				<type>quarter</type>				<stem default-y="-5.51">up</stem>				<staff>1</staff>			</note>			<note>				<pitch>					<step>F</step>					<octave>4</octave>				</pitch>				<duration>6720</duration>				<voice>1</voice>				<type>quarter</type>				<stem default-y="-0.56">up</stem>				<staff>1</staff>			</note>			<backup>				<duration>26880</duration>			</backup>			<note>				<debug/>				<pitch>					<step>F</step>					<octave>3</octave>				</pitch>				<duration>13440</duration>				<voice>4</voice>				<type>half</type>				<stem default-y="-65.39">down</stem>				<staff>2</staff>				<lyric number="1" justify="left" default-y="-197.92">					<syllabic>single</syllabic>					<text font-family="Times New Roman" font-size="10" font-weight="normal" font-style="normal">45</text>				</lyric>			</note>			<note>				<debug/>				<chord/>				<pitch>					<step>B</step>					<alter>-1</alter>					<octave>2</octave>				</pitch>				<duration>13440</duration>				<voice>4</voice>				<type>half</type>				<accidental>flat</accidental>				<stem default-y="-65.39">down</stem>				<staff>2</staff>			</note>			<note>				<rest>				</rest>				<duration>13440</duration>				<voice>4</voice>				<type>half</type>				<staff>2</staff>			</note>		</measure>		<!--==========================[1,13]=============================-->		<measure number="39" width="165">			<print new-system="yes">				<system-layout>					<system-margins>						<left-margin>7.759</left-margin>						<right-margin>0.000</right-margin>					</system-margins>					<system-distance>75.056</system-distance>				</system-layout>				<staff-layout number="2">					<staff-distance>62.472</staff-distance>				</staff-layout>			</print>			<attributes>				<staff-details number="1" print-object="yes">				</staff-details>				<staff-details number="2" print-object="yes">				</staff-details>			</attributes>			<note>				<pitch>					<step>G</step>					<octave>4</octave>				</pitch>				<duration>13440</duration>				<voice>1</voice>				<type>half</type>				<stem default-y="4.49">up</stem>				<staff>1</staff>			</note>			<note>				<pitch>					<step>F</step>					<octave>4</octave>				</pitch>				<duration>6720</duration>				<voice>1</voice>				<type>quarter</type>				<stem default-y="-0.56">up</stem>				<staff>1</staff>			</note>			<note>				<pitch>					<step>G</step>					<octave>4</octave>				</pitch>				<duration>6720</duration>				<voice>1</voice>				<type>quarter</type>				<stem default-y="4.49">up</stem>				<staff>1</staff>			</note>			<backup>				<duration>26880</duration>			</backup>			<note>				<pitch>					<step>G</step>					<octave>3</octave>				</pitch>				<duration>13440</duration>				<voice>4</voice>				<type>half</type>				<stem default-y="-60.45">down</stem>				<staff>2</staff>				<lyric number="1" justify="right" default-y="-197.92">					<syllabic>single</syllabic>					<text font-family="Times New Roman" font-size="10" font-weight="normal" font-style="normal">46</text>				</lyric>			</note>			<note>				<chord/>				<pitch>					<step>C</step>					<octave>3</octave>				</pitch>				<duration>13440</duration>				<voice>4</voice>				<type>half</type>				<stem default-y="-60.45">down</stem>				<staff>2</staff>			</note>			<note>				<pitch>					<step>D</step>					<octave>3</octave>				</pitch>				<duration>6720</duration>				<voice>4</voice>				<type>quarter</type>				<stem default-y="-55.39">down</stem>				<staff>2</staff>			</note>			<note>				<pitch>					<step>E</step>					<octave>3</octave>				</pitch>				<duration>6720</duration>				<voice>4</voice>				<type>quarter</type>				<stem default-y="-50.45">down</stem>				<staff>2</staff>			</note>		</measure>		<!--==========================[1,14]=============================-->		<measure number="40" width="135">			<note>				<pitch>					<step>A</step>					<octave>4</octave>				</pitch>				<duration>13440</duration>				<voice>1</voice>				<type>half</type>				<stem default-y="9.44">up</stem>				<staff>1</staff>			</note>			<note>				<pitch>					<step>B</step>					<alter>-1</alter>					<octave>4</octave>				</pitch>				<duration>6720</duration>				<voice>1</voice>				<type>quarter</type>				<accidental>flat</accidental>				<stem default-y="-55.39">down</stem>				<staff>1</staff>			</note>			<note>				<pitch>					<step>A</step>					<octave>4</octave>				</pitch>				<duration>6720</duration>				<voice>1</voice>				<type>quarter</type>				<stem default-y="9.44">up</stem>				<staff>1</staff>			</note>			<backup>				<duration>26880</duration>			</backup>			<note>				<pitch>					<step>F</step>					<octave>3</octave>				</pitch>				<duration>13440</duration>				<voice>4</voice>				<type>half</type>				<stem default-y="-45.39">down</stem>				<staff>2</staff>			</note>			<note>				<pitch>					<step>G</step>					<octave>3</octave>				</pitch>				<duration>6720</duration>				<voice>4</voice>				<type>quarter</type>				<stem default-y="-40.45">down</stem>				<staff>2</staff>			</note>			<note>				<pitch>					<step>F</step>					<octave>3</octave>				</pitch>				<duration>6720</duration>				<voice>4</voice>				<type>quarter</type>				<stem default-y="-45.39">down</stem>				<staff>2</staff>				<lyric number="1" justify="right" default-y="-197.92">					<syllabic>single</syllabic>					<text font-family="Times New Roman" font-size="10" font-weight="normal" font-style="normal">47</text>				</lyric>			</note>		</measure>		<!--==========================[1,15]=============================-->		<measure number="41" width="152">			<note>				<pitch>					<step>A</step>					<octave>4</octave>				</pitch>				<duration>6720</duration>				<voice>1</voice>				<type>quarter</type>				<stem default-y="9.44">up</stem>				<staff>1</staff>			</note>			<note>				<pitch>					<step>G</step>					<octave>4</octave>				</pitch>				<duration>6720</duration>				<voice>1</voice>				<type>quarter</type>				<stem default-y="4.49">up</stem>				<staff>1</staff>			</note>			<note>				<pitch>					<step>F</step>					<octave>4</octave>				</pitch>				<duration>6720</duration>				<voice>1</voice>				<type>quarter</type>				<stem default-y="-0.56">up</stem>				<staff>1</staff>			</note>			<direction placement="above">				<direction-type>					<pedal type="start" relative-x="-8.05" default-y="2.50"/>				</direction-type>				<staff>1</staff>			</direction>			<note>				<pitch>					<step>E</step>					<octave>4</octave>				</pitch>				<duration>6720</duration>				<voice>1</voice>				<type>quarter</type>				<stem default-y="-5.51">up</stem>				<staff>1</staff>			</note>			<backup>				<duration>26880</duration>			</backup>			<note>				<pitch>					<step>F</step>					<octave>3</octave>				</pitch>				<duration>6720</duration>				<voice>4</voice>				<type>quarter</type>				<stem default-y="-45.39">down</stem>				<staff>2</staff>			</note>			<note>				<pitch>					<step>E</step>					<octave>3</octave>				</pitch>				<duration>6720</duration>				<voice>4</voice>				<type>quarter</type>				<stem default-y="-50.45">down</stem>				<staff>2</staff>			</note>			<note>				<pitch>					<step>D</step>					<octave>3</octave>				</pitch>				<duration>6720</duration>				<voice>4</voice>				<type>quarter</type>				<stem default-y="-55.39">down</stem>				<staff>2</staff>			</note>			<note>				<pitch>					<step>C</step>					<octave>3</octave>				</pitch>				<duration>6720</duration>				<voice>4</voice>				<type>quarter</type>				<stem default-y="9.44">up</stem>				<staff>2</staff>			</note>		</measure>		<!--==========================[1,16]=============================-->		<measure number="42" width="162">			<note>				<pitch>					<step>D</step>					<octave>4</octave>				</pitch>				<duration>13440</duration>				<voice>1</voice>				<type>half</type>				<stem default-y="-10.56">up</stem>				<staff>1</staff>			</note>			<note>				<pitch>					<step>F</step>					<octave>4</octave>				</pitch>				<duration>3360</duration>				<voice>1</voice>				<type>eighth</type>				<stem default-y="4.10">up</stem>				<staff>1</staff>				<beam number="1">begin</beam>			</note>			<direction placement="above">				<direction-type>					<pedal type="stop" relative-x="-11.37" default-y="5.39"/>				</direction-type>				<staff>1</staff>			</direction>			<note>				<pitch>					<step>E</step>					<octave>4</octave>				</pitch>				<duration>3360</duration>				<voice>1</voice>				<type>eighth</type>				<stem default-y="4.10">up</stem>				<staff>1</staff>				<beam number="1">end</beam>			</note>			<note>				<pitch>					<step>D</step>					<octave>4</octave>				</pitch>				<duration>6720</duration>				<voice>1</voice>				<type>quarter</type>				<stem default-y="-10.56">up</stem>				<staff>1</staff>			</note>			<backup>				<duration>26880</duration>			</backup>			<note>				<pitch>					<step>B</step>					<alter>-1</alter>					<octave>2</octave>				</pitch>				<duration>26880</duration>				<voice>4</voice>				<type>whole</type>				<accidental>flat</accidental>				<stem>none</stem>				<staff>2</staff>				<lyric number="1" justify="right" default-y="-197.92">					<syllabic>single</syllabic>					<text font-family="Times New Roman" font-size="10" font-weight="normal" font-style="normal">48</text>				</lyric>			</note>		</measure>		<!--==========================[1,17]=============================-->		<measure number="43" width="130">			<note>				<pitch>					<step>G</step>					<octave>4</octave>				</pitch>				<duration>13440</duration>				<voice>1</voice>				<type>half</type>				<stem default-y="4.49">up</stem>				<staff>1</staff>			</note>			<note>				<pitch>					<step>F</step>					<octave>4</octave>				</pitch>				<duration>6720</duration>				<voice>1</voice>				<type>quarter</type>				<stem default-y="-0.56">up</stem>				<staff>1</staff>			</note>			<note>				<pitch>					<step>G</step>					<octave>4</octave>				</pitch>				<duration>6720</duration>				<voice>1</voice>				<type>quarter</type>				<stem default-y="4.49">up</stem>				<staff>1</staff>			</note>			<backup>				<duration>26880</duration>			</backup>			<note>				<pitch>					<step>E</step>					<octave>3</octave>				</pitch>				<duration>20160</duration>				<voice>4</voice>				<type>half</type>				<dot/>				<stem default-y="-60.45">down</stem>				<staff>2</staff>				<lyric number="1" justify="left" default-y="-197.92">					<syllabic>single</syllabic>					<text font-family="Times New Roman" font-size="10" font-weight="normal" font-style="normal">49</text>				</lyric>			</note>			<note>				<chord/>				<pitch>					<step>C</step>					<octave>3</octave>				</pitch>				<duration>20160</duration>				<voice>4</voice>				<type>half</type>				<dot/>				<stem default-y="-60.45">down</stem>				<staff>2</staff>			</note>			<note>				<rest>				</rest>				<duration>6720</duration>				<voice>4</voice>				<type>quarter</type>				<staff>2</staff>			</note>		</measure>		<!--==========================[1,18]=============================-->		<measure number="44" width="167">			<note>				<pitch>					<step>C</step>					<octave>3</octave>				</pitch>				<duration>20160</duration>				<voice>4</voice>				<type>half</type>				<dot/>				<stem default-y="9.44">up</stem>				<staff>2</staff>			</note>			<note>				<chord/>				<pitch>					<step>F</step>					<octave>2</octave>				</pitch>				<duration>20160</duration>				<voice>4</voice>				<type>half</type>				<dot/>				<stem default-y="9.44">up</stem>				<staff>2</staff>			</note>			<note>				<rest>				</rest>				<duration>6720</duration>				<voice>4</voice>				<type>quarter</type>				<staff>2</staff>			</note>			<backup>				<duration>26880</duration>			</backup>			<note>				<pitch>					<step>A</step>					<octave>4</octave>				</pitch>				<duration>6720</duration>				<voice>1</voice>				<type>quarter</type>				<stem default-y="9.44">up</stem>				<staff>1</staff>			</note>			<direction placement="above">				<direction-type>					<pedal type="start" relative-x="5.03" default-y="2.50"/>				</direction-type>				<offset>-6720.00</offset>				<staff>1</staff>			</direction>			<note>				<pitch>					<step>B</step>					<alter>-1</alter>					<octave>4</octave>				</pitch>				<duration>6720</duration>				<voice>1</voice>				<type>quarter</type>				<accidental>flat</accidental>				<stem default-y="-55.39">down</stem>				<staff>1</staff>			</note>			<note>				<pitch>					<step>C</step>					<octave>5</octave>				</pitch>				<duration>6720</duration>				<voice>1</voice>				<type>quarter</type>				<stem default-y="-50.45">down</stem>				<staff>1</staff>			</note>			<note>				<pitch>					<step>D</step>					<octave>5</octave>				</pitch>				<duration>6720</duration>				<voice>1</voice>				<type>quarter</type>				<stem default-y="-45.39">down</stem>				<staff>1</staff>			</note>			<direction placement="above">				<direction-type>					<pedal type="stop" relative-x="16.59" default-y="5.39"/>				</direction-type>				<offset>-6720.00</offset>				<staff>1</staff>			</direction>		</measure>		<!--==========================[1,19]=============================-->		<measure number="45" width="136">			<note>				<pitch>					<step>A</step>					<octave>4</octave>				</pitch>				<duration>6720</duration>				<voice>1</voice>				<type>quarter</type>				<stem default-y="9.44">up</stem>				<staff>1</staff>			</note>			<direction placement="above">				<direction-type>					<pedal type="start" relative-x="6.59" default-y="2.50"/>				</direction-type>				<offset>-6720.00</offset>				<staff>1</staff>			</direction>			<note>				<pitch>					<step>G</step>					<octave>4</octave>				</pitch>				<duration>6720</duration>				<voice>1</voice>				<type>quarter</type>				<stem default-y="4.49">up</stem>				<staff>1</staff>			</note>			<note>				<pitch>					<step>F</step>					<octave>4</octave>				</pitch>				<duration>13440</duration>				<tie type="start"/>				<voice>1</voice>				<type>half</type>				<stem default-y="-0.56">up</stem>				<staff>1</staff>				<notations>					<tied type="start" number="1" placement="above" orientation="under"/>				</notations>			</note>			<direction placement="above">				<direction-type>					<pedal type="stop" relative-x="26.19" default-y="5.39"/>				</direction-type>				<offset>-13440.00</offset>				<staff>1</staff>			</direction>			<backup>				<duration>26880</duration>			</backup>			<note>				<pitch>					<step>F</step>					<octave>3</octave>				</pitch>				<duration>6720</duration>				<voice>4</voice>				<type>quarter</type>				<stem default-y="-65.39">down</stem>				<staff>2</staff>				<lyric number="1" justify="right" default-y="-197.92">					<syllabic>single</syllabic>					<text font-family="Times New Roman" font-size="10" font-weight="normal" font-style="normal">50</text>				</lyric>			</note>			<note>				<chord/>				<pitch>					<step>B</step>					<alter>-1</alter>					<octave>2</octave>				</pitch>				<duration>6720</duration>				<voice>4</voice>				<type>quarter</type>				<accidental>flat</accidental>				<stem default-y="-65.39">down</stem>				<staff>2</staff>			</note>			<note>				<rest>				</rest>				<duration>6720</duration>				<voice>4</voice>				<type>quarter</type>				<staff>2</staff>			</note>			<note>				<pitch>					<step>C</step>					<octave>3</octave>				</pitch>				<duration>13440</duration>				<tie type="start"/>				<voice>4</voice>				<type>half</type>				<stem default-y="-60.45">down</stem>				<staff>2</staff>				<notations>					<tied type="start" number="2" placement="above" orientation="under"/>				</notations>			</note>			<note>				<chord/>				<pitch>					<step>G</step>					<octave>3</octave>				</pitch>				<duration>13440</duration>				<tie type="start"/>				<voice>4</voice>				<type>half</type>				<stem default-y="-60.45">down</stem>				<staff>2</staff>				<notations>					<tied type="start" number="3" placement="above" orientation="under"/>				</notations>			</note>		</measure>		<!--==========================[1,20]=============================-->		<measure number="46" width="257">			<print new-system="yes">				<system-layout>					<system-margins>						<left-margin>7.759</left-margin>						<right-margin>0.000</right-margin>					</system-margins>					<system-distance>75.056</system-distance>				</system-layout>				<staff-layout number="2">					<staff-distance>62.472</staff-distance>				</staff-layout>			</print>			<attributes>				<staff-details number="1" print-object="yes">				</staff-details>				<staff-details number="2" print-object="yes">				</staff-details>			</attributes>			<note>				<pitch>					<step>F</step>					<octave>4</octave>				</pitch>				<duration>13440</duration>				<tie type="stop"/>				<voice>1</voice>				<type>half</type>				<stem default-y="-0.56">up</stem>				<staff>1</staff>				<notations>					<tied type="stop" number="1"/>				</notations>			</note>			<note>				<pitch>					<step>E</step>					<octave>4</octave>				</pitch>				<duration>13440</duration>				<tie type="start"/>				<voice>1</voice>				<type>half</type>				<stem default-y="-5.51">up</stem>				<staff>1</staff>				<notations>					<tied type="start" number="1" placement="below" orientation="under"/>				</notations>			</note>			<backup>				<duration>26880</duration>			</backup>			<note>				<pitch>					<step>G</step>					<octave>3</octave>				</pitch>				<duration>26880</duration>				<tie type="start"/>				<tie type="stop"/>				<voice>4</voice>				<type>whole</type>				<stem>none</stem>				<staff>2</staff>				<notations>					<tied type="start" number="4" placement="above" orientation="over"/>					<tied type="stop" number="3"/>				</notations>			</note>			<note>				<chord/>				<pitch>					<step>C</step>					<octave>3</octave>				</pitch>				<duration>26880</duration>				<tie type="start"/>				<tie type="stop"/>				<voice>4</voice>				<type>whole</type>				<stem>none</stem>				<staff>2</staff>				<notations>					<tied type="start" number="3" placement="below" orientation="under"/>					<tied type="stop" number="2"/>				</notations>			</note>		</measure>		<!--==========================[1,21]=============================-->		<measure number="47" width="219">			<note>				<pitch>					<step>G</step>					<octave>3</octave>				</pitch>				<duration>20160</duration>				<tie type="stop"/>				<voice>4</voice>				<type>half</type>				<dot/>				<stem default-y="-60.45">down</stem>				<staff>2</staff>				<notations>					<tied type="stop" number="4"/>				</notations>			</note>			<note>				<chord/>				<pitch>					<step>C</step>					<octave>3</octave>				</pitch>				<duration>20160</duration>				<tie type="stop"/>				<voice>4</voice>				<type>half</type>				<dot/>				<stem default-y="-60.45">down</stem>				<staff>2</staff>				<notations>					<tied type="stop" number="3"/>				</notations>			</note>			<direction placement="below">				<direction-type>					<pedal type="start" relative-x="-61.68" default-y="-112.56"/>				</direction-type>				<staff>2</staff>			</direction>			<note>				<rest>				</rest>				<duration>6720</duration>				<voice>4</voice>				<type>quarter</type>				<staff>2</staff>			</note>			<backup>				<duration>26880</duration>			</backup>			<note>				<pitch>					<step>E</step>					<octave>4</octave>				</pitch>				<duration>26880</duration>				<tie type="stop"/>				<voice>1</voice>				<type>whole</type>				<stem>none</stem>				<staff>1</staff>				<notations>					<tied type="stop" number="1"/>				</notations>			</note>		</measure>		<!--==========================[1,22]=============================-->		<measure number="48" width="190">			<direction placement="below">				<direction-type>					<pedal type="stop" relative-x="-19.24" default-y="-109.67"/>				</direction-type>				<staff>2</staff>			</direction>			<note>				<pitch>					<step>A</step>					<octave>3</octave>				</pitch>				<duration>26880</duration>				<tie type="start"/>				<voice>4</voice>				<type>whole</type>				<stem>none</stem>				<staff>2</staff>				<notations>					<tied type="start" number="1" placement="above" orientation="over"/>				</notations>			</note>			<note>				<chord/>				<pitch>					<step>F</step>					<octave>3</octave>				</pitch>				<duration>26880</duration>				<tie type="start"/>				<voice>4</voice>				<type>whole</type>				<stem>none</stem>				<staff>2</staff>				<notations>					<tied type="start" number="2" placement="above" orientation="over"/>				</notations>			</note>			<note>				<chord/>				<pitch>					<step>D</step>					<octave>3</octave>				</pitch>				<duration>26880</duration>				<tie type="start"/>				<voice>4</voice>				<type>whole</type>				<stem>none</stem>				<staff>2</staff>				<notations>					<tied type="start" number="3" placement="below" orientation="under"/>				</notations>			</note>			<backup>				<duration>26880</duration>			</backup>			<note>				<pitch>					<step>D</step>					<octave>4</octave>				</pitch>				<duration>26880</duration>				<tie type="start"/>				<voice>1</voice>				<type>whole</type>				<stem>none</stem>				<staff>1</staff>				<notations>					<tied type="start" number="4" placement="below" orientation="under"/>				</notations>			</note>		</measure>		<!--==========================[1,23]=============================-->		<measure number="49" width="190">			<note>				<pitch>					<step>A</step>					<octave>3</octave>				</pitch>				<duration>26880</duration>				<tie type="stop"/>				<voice>4</voice>				<type>whole</type>				<stem>none</stem>				<staff>2</staff>				<notations>					<tied type="stop" number="1"/>				</notations>			</note>			<note>				<chord/>				<pitch>					<step>F</step>					<octave>3</octave>				</pitch>				<duration>26880</duration>				<tie type="stop"/>				<voice>4</voice>				<type>whole</type>				<stem>none</stem>				<staff>2</staff>				<notations>					<tied type="stop" number="2"/>				</notations>			</note>			<note>				<chord/>				<pitch>					<step>D</step>					<octave>3</octave>				</pitch>				<duration>26880</duration>				<tie type="stop"/>				<voice>4</voice>				<type>whole</type>				<stem>none</stem>				<staff>2</staff>				<notations>					<tied type="stop" number="3"/>				</notations>			</note>			<backup>				<duration>26880</duration>			</backup>			<note>				<pitch>					<step>D</step>					<octave>4</octave>				</pitch>				<duration>26880</duration>				<tie type="stop"/>				<voice>1</voice>				<type>whole</type>				<stem>none</stem>				<staff>1</staff>				<notations>					<tied type="stop" number="4"/>				</notations>			</note>		</measure>		<!--==========================[1,24]=============================-->		<measure number="50" width="192">			<note>				<rest>				</rest>				<duration>26880</duration>				<voice>1</voice>				<type>whole</type>				<staff>1</staff>			</note>			<backup>				<duration>26880</duration>			</backup>			<note>				<rest>				</rest>				<duration>26880</duration>				<voice>1</voice>				<type>whole</type>				<staff>2</staff>			</note>		</measure>	</part></score-partwise>